<?xml version="1.0" encoding="UTF-8"?>
<!DOCTYPE svg PUBLIC "-//W3C//DTD SVG 1.1//EN" "http://www.w3.org/Graphics/SVG/1.1/DTD/svg11.dtd">
<!-- Creator: CorelDRAW 2019 (64-Bit) -->
<svg xmlns="http://www.w3.org/2000/svg" xml:space="preserve" width="99.4006mm" height="66.8074mm" version="1.1" style="shape-rendering:geometricPrecision; text-rendering:geometricPrecision; image-rendering:optimizeQuality; fill-rule:evenodd; clip-rule:evenodd"
viewBox="0 0 896.41 602.48"
 xmlns:xlink="http://www.w3.org/1999/xlink">
 <defs>
  <style type="text/css">
   <![CDATA[
    .fil5 {fill:none}
    .fil3 {fill:#C4D34C}
    .fil1 {fill:#095540}
    .fil2 {fill:#FAF9F4}
    .fil4 {fill:#FEFEFE;fill-rule:nonzero}
    .fil0 {fill:#FEFEFE;fill-rule:nonzero}
   ]]>
  </style>
 </defs>
 <g id="Слой_x0020_1">
  <metadata id="CorelCorpID_0Corel-Layer"/>
  <path class="fil0" d="M444.91 487.2c49.59,0 94.49,-20.04 126.99,-52.45 32.5,-32.4 52.6,-77.17 52.6,-126.62 0,-49.45 -20.1,-94.22 -52.59,-126.62 -32.5,-32.4 -77.4,-52.45 -126.99,-52.45 -49.59,0 -94.49,20.04 -126.99,52.45 -32.5,32.4 -52.6,77.17 -52.6,126.62 0,49.45 20.1,94.21 52.6,126.62 32.5,32.4 77.4,52.45 126.99,52.45zm128.26 -51.17c-32.83,32.73 -78.17,52.97 -128.26,52.97 -50.08,0 -95.43,-20.25 -128.26,-52.97 -32.83,-32.73 -53.13,-77.95 -53.13,-127.89 0,-49.94 20.31,-95.16 53.13,-127.89 32.82,-32.73 78.17,-52.98 128.26,-52.98 50.09,0 95.43,20.24 128.26,52.97 32.83,32.73 53.13,77.95 53.13,127.89 0,49.94 -20.31,95.16 -53.13,127.89z"/>
  <path class="fil1" d="M337.81 494.3c21.43,0 38.8,-17.38 38.8,-38.83 0,-21.44 -17.37,-38.83 -38.8,-38.83 -21.43,0 -38.8,17.38 -38.8,38.83 0,21.44 17.37,38.83 38.8,38.83z"/>
  <path class="fil1" d="M552.13 497.08c21.43,0 38.8,-17.39 38.8,-38.83 0,-21.44 -17.37,-38.83 -38.8,-38.83 -21.43,0 -38.8,17.38 -38.8,38.83 0,21.44 17.37,38.83 38.8,38.83z"/>
  <path class="fil1" d="M277.77 282.61c21.43,0 38.8,-17.39 38.8,-38.83 0,-21.44 -17.37,-38.83 -38.8,-38.83 -21.43,0 -38.8,17.38 -38.8,38.83 0,21.44 17.37,38.83 38.8,38.83z"/>
  <path class="fil1" d="M609.4 281.68c21.43,0 38.8,-17.38 38.8,-38.83 0,-21.44 -17.37,-38.83 -38.8,-38.83 -21.43,0 -38.8,17.38 -38.8,38.83 0,21.44 17.37,38.83 38.8,38.83z"/>
  <path class="fil1" d="M448.2 177.5c21.58,0 39.08,-17.44 39.08,-38.96 0,-21.52 -17.5,-38.96 -39.08,-38.96 -21.58,0 -39.08,17.44 -39.08,38.96 0,21.52 17.49,38.96 39.08,38.96z"/>
  <path class="fil2" d="M598.45 201.35l-11.71 6.41 10.27 4.85 1.44 -11.26zm-23.7 221.82l11.26 7.17 -10.57 4.16 -0.69 -11.33zm-205.5 46.68l11.3 -1.21 -6.65 11.57 -4.65 -10.36zm-101.61 -192.99l4.55 10.41 -13.04 -2.87 8.5 -7.54zm138.13 -138.01l0.23 -13.34 9.08 6.83 -9.3 6.51z"/>
  <path class="fil3" d="M431.52 117.86l33.37 0c1.5,0 2.79,0.56 3.82,1.66 1.02,1.1 1.49,2.43 1.38,3.93l-2.28 30.92c-0.2,2.73 -2.46,4.83 -5.2,4.83l-12.44 0 0 -16.64c0,-1.08 -0.89,-1.97 -1.97,-1.97l0 0c-1.08,0 -1.97,0.89 -1.97,1.97l0 16.64 -12.44 0c-2.74,0 -4.99,-2.1 -5.2,-4.83l-2.28 -30.92c-0.11,-1.5 0.36,-2.83 1.38,-3.93 1.02,-1.1 2.32,-1.66 3.82,-1.66zm10.24 6.99l12.9 0c1.57,0 2.85,1.28 2.85,2.85l0 3.15c0,1.57 -1.28,2.85 -2.85,2.85l-3.73 0 2.15 -4.13c0.33,-0.63 0.11,-1.4 -0.49,-1.76l-0.13 -0.08c-0.6,-0.37 -1.39,-0.21 -1.79,0.37l-3.95 5.6 -4.95 0c-1.57,0 -2.85,-1.28 -2.85,-2.85l0 -3.15c0,-1.57 1.28,-2.85 2.85,-2.85z"/>
  <path class="fil3" d="M609.4 210.9c17.65,0 31.96,14.31 31.96,31.96 0,17.65 -14.31,31.96 -31.96,31.96 -17.65,0 -31.96,-14.31 -31.96,-31.96 0,-17.65 14.31,-31.96 31.96,-31.96zm7.69 30.76l-7.69 4.73 -7.69 -4.73c-1.57,-0.96 -3.64,-0.47 -4.6,1.1l-1.33 2.17c-0.96,1.57 -0.47,3.64 1.1,4.6l3.71 2.28 -3.71 2.28c-1.57,0.96 -2.06,3.03 -1.1,4.6l1.33 2.17c0.96,1.57 3.03,2.06 4.6,1.1l7.69 -4.73 7.69 4.73c1.57,0.96 3.64,0.47 4.6,-1.1l1.33 -2.17c0.96,-1.57 0.47,-3.64 -1.1,-4.6l-3.71 -2.28 3.71 -2.28c1.57,-0.96 2.06,-3.03 1.1,-4.6l-1.33 -2.17c-0.96,-1.57 -3.03,-2.06 -4.6,-1.1zm-19.61 -13.86c1.72,0 3.11,1.39 3.11,3.11 0,1.72 -1.39,3.11 -3.11,3.11 -1.72,0 -3.11,-1.39 -3.11,-3.11 0,-1.72 1.39,-3.11 3.11,-3.11zm23.85 0c1.72,0 3.11,1.39 3.11,3.11 0,1.72 -1.39,3.11 -3.11,3.11 -1.72,0 -3.11,-1.39 -3.11,-3.11 0,-1.72 1.39,-3.11 3.11,-3.11z"/>
  <path class="fil3" d="M552.13 426.29c17.65,0 31.96,14.31 31.96,31.96 0,17.65 -14.31,31.96 -31.96,31.96 -17.65,0 -31.96,-14.31 -31.96,-31.96 0,-17.65 14.31,-31.96 31.96,-31.96zm-11.17 45.16c-0.41,0.42 -1.08,0.42 -1.5,0.01 -0.42,-0.41 -0.42,-1.08 -0.01,-1.5l6.88 -7.03c-0.24,-3.69 -1.83,-6.52 -1.84,-6.53 -0.28,-0.51 -0.1,-1.16 0.41,-1.44 0.51,-0.28 1.16,-0.1 1.44,0.41 0,0.01 1.32,2.35 1.88,5.62l5.92 -6.05c1.43,-4.85 -1.18,-8.56 -1.19,-8.57 -0.33,-0.48 -0.21,-1.14 0.28,-1.47 0.48,-0.33 1.14,-0.21 1.47,0.28 0.01,0.01 2.09,2.96 1.98,7.17l5.62 -5.75c0.41,-0.42 1.08,-0.42 1.5,-0.01 0.42,0.41 0.42,1.08 0.01,1.5l-5.44 5.55c4.41,-0.29 7.15,2.27 7.16,2.28 0.43,0.4 0.46,1.07 0.06,1.5 -0.4,0.43 -1.07,0.46 -1.5,0.06 -0.01,-0.01 -3.27,-3.06 -8.43,-1.07l-5.88 6.01c3.39,0.39 5.31,1.53 5.32,1.53 0.51,0.29 0.68,0.94 0.39,1.45 -0.29,0.51 -0.94,0.68 -1.45,0.39 -0.01,-0 -2.2,-1.3 -6.2,-1.38l-6.89 7.04zm26.41 -18.87c1.27,0.88 2.1,2.36 2.08,4.02 -0.03,2.67 -2.21,4.81 -4.88,4.79 -0.5,-0.01 -0.97,-0.08 -1.42,-0.23 0.98,0.89 1.59,2.19 1.58,3.62 -0.03,2.67 -2.21,4.81 -4.88,4.79 -0.93,-0.01 -1.79,-0.28 -2.52,-0.74 0.63,0.83 1.01,1.86 0.99,2.99 -0.03,2.67 -2.21,4.81 -4.88,4.79 -1.65,-0.02 -3.1,-0.86 -3.96,-2.13 -4.88,-3.14 -9.05,2.26 -12.78,-1.2 -3.52,-3.26 1.18,-8.66 -1.24,-12.83 -0.57,-0.48 -0.76,-0.81 -1.15,-1.4 -0.38,-0.69 -0.59,-1.48 -0.59,-2.31 0,-2.67 2.16,-4.84 4.83,-4.84 1.12,0 2.16,0.38 2.98,1.02 -0.45,-0.74 -0.72,-1.6 -0.72,-2.53 0,-2.67 2.17,-4.84 4.84,-4.84 1.43,0 2.72,0.62 3.6,1.61 -0.14,-0.45 -0.21,-0.93 -0.21,-1.42 0,-2.67 2.16,-4.84 4.84,-4.84 1.66,0 3.13,0.84 4,2.12 1.23,-1.88 3.35,-3.12 5.76,-3.12 3.82,0 6.96,3.08 6.93,6.96 -0.02,2.41 -1.29,4.52 -3.18,5.73zm-15.24 -16.58c3.33,0 6.48,0.73 9.31,2.04 0.7,-0.17 1.43,-0.27 2.18,-0.27l0.01 0.01 0.08 0c2.46,0.02 4.7,1.03 6.32,2.64 1.63,1.62 2.64,3.86 2.64,6.36l0 0.09c-0.01,0.75 -0.11,1.47 -0.28,2.16 1.28,2.81 1.99,5.93 1.99,9.22 0,6.14 -2.49,11.71 -6.52,15.73 -4.03,4.03 -9.59,6.52 -15.73,6.52 -4.64,0 -8.95,-1.42 -12.52,-3.85 -1.44,0 -2.88,-0.43 -4.37,-1.82 -1.64,-1.52 -2.09,-3.18 -2.07,-4.92 -2.09,-3.39 -3.3,-7.38 -3.3,-11.66 0,-6.14 2.49,-11.71 6.52,-15.73 4.03,-4.03 9.59,-6.52 15.73,-6.52zm6.5 3.29c-2.04,-0.7 -4.22,-1.08 -6.5,-1.08 -9.13,0 -16.84,6.11 -19.25,14.47 0.22,-0.31 0.47,-0.6 0.74,-0.87 1.26,-1.26 3,-2.04 4.92,-2.04l0.16 0c0.15,-1.68 0.89,-3.18 2.01,-4.31 1.26,-1.26 3,-2.04 4.92,-2.04 0.55,0 1.08,0.07 1.6,0.19 0.34,-1.07 0.93,-2.02 1.71,-2.8 1.26,-1.26 3,-2.04 4.92,-2.04 1.17,0 2.27,0.29 3.25,0.81 0.22,0.12 0.43,0.24 0.63,0.38 0.28,-0.24 0.57,-0.47 0.88,-0.67zm-26.63 15.05c-0.02,0.05 -0.04,0.1 -0.05,0.15 0.02,-0.05 0.04,-0.1 0.05,-0.15zm-0.3 1.07c-0.01,0.06 -0.02,0.11 -0.03,0.17 0.01,-0.06 0.02,-0.11 0.03,-0.17zm0.42 4c0.14,2.37 0.68,4.63 1.57,6.71 0.3,-1.57 0.57,-3.18 0.04,-4.37 -0.49,-0.46 -0.74,-0.83 -1.08,-1.36l-0 0 -0.13 -0.2 -0.09 -0.16c-0.11,-0.21 -0.22,-0.42 -0.31,-0.63zm10.88 16.68c2.41,1.23 5.1,1.99 7.95,2.16 -0.27,-0.1 -0.52,-0.22 -0.77,-0.35 -0.83,-0.45 -1.57,-1.07 -2.16,-1.81 -1.58,-0.85 -3.27,-0.43 -4.86,-0.03l-0.16 0.04zm14.2 1.54c8.61,-2.25 14.97,-10.08 14.97,-19.39 0,-2.24 -0.37,-4.4 -1.05,-6.42 -0.21,0.31 -0.44,0.61 -0.69,0.89 0.14,0.21 0.26,0.42 0.37,0.64 0.5,0.97 0.78,2.07 0.77,3.24l0.01 0 -0.01 0.02c-0.02,1.92 -0.81,3.66 -2.08,4.9 -0.78,0.77 -1.75,1.35 -2.82,1.68 0.11,0.51 0.17,1.04 0.17,1.58l0.01 0 -0.01 0.02c-0.02,1.92 -0.81,3.66 -2.08,4.9 -1.14,1.11 -2.65,1.84 -4.33,1.97l0 0.17c-0.02,1.92 -0.81,3.66 -2.08,4.9 -0.35,0.34 -0.73,0.64 -1.14,0.91z"/>
  <path class="fil3" d="M337.81 423.51c17.65,0 31.96,14.31 31.96,31.96 0,7.62 -2.67,14.62 -7.12,20.11 -0.59,-0.49 -1.11,-1.12 -1.66,-1.77 -1.67,-1.99 -3.46,-4.12 -7.28,-4.19 -3.66,-0.07 -5.07,1.97 -6.52,4.08 -1.2,1.74 -2.44,3.54 -5.56,3.49 -3.21,-0.06 -4.61,-1.92 -5.94,-3.69 -1.53,-2.05 -2.99,-4 -6.4,-4 -3.86,0 -6.08,2.26 -8.22,4.43 -1.38,1.41 -2.72,2.77 -4.36,3.17 -0.75,0.18 -1.47,0.28 -2.15,0.31 -5.4,-5.72 -8.72,-13.44 -8.72,-21.93 0,-17.65 14.31,-31.96 31.96,-31.96zm23.37 53.76c-5.83,6.25 -14.14,10.16 -23.37,10.16 -8.14,0 -15.56,-3.04 -21.21,-8.05 0.21,-0.04 0.42,-0.09 0.63,-0.14 2.25,-0.55 3.81,-2.13 5.42,-3.76 1.81,-1.84 3.7,-3.77 6.64,-3.77 2.31,0 3.44,1.51 4.64,3.1 1.64,2.19 3.37,4.5 7.67,4.58 4.3,0.07 5.88,-2.22 7.41,-4.44 1.11,-1.61 2.19,-3.17 4.67,-3.13 2.8,0.05 4.25,1.78 5.62,3.41 0.61,0.73 1.21,1.44 1.89,2.03zm-40.17 -9.16c-0.34,0.51 -1.03,0.65 -1.53,0.31 -0.51,-0.34 -0.65,-1.03 -0.31,-1.53l3.17 -4.76c0.34,-0.51 1.03,-0.65 1.53,-0.31 0.51,0.34 0.65,1.03 0.31,1.53l-3.17 4.76zm31.99 -4.87c-0.41,-0.45 -0.38,-1.15 0.07,-1.56 0.45,-0.41 1.15,-0.38 1.56,0.07l3.96 4.33c0.41,0.45 0.38,1.15 -0.07,1.56 -0.45,0.41 -1.15,0.38 -1.56,-0.07l-3.96 -4.33zm5.22 -10.76c-0.33,0.51 -1.01,0.66 -1.53,0.33 -0.51,-0.33 -0.66,-1.01 -0.33,-1.52l3.17 -4.94c0.33,-0.51 1.01,-0.66 1.52,-0.33 0.51,0.33 0.66,1.01 0.33,1.53l-3.17 4.94zm-10.84 -16.45c-0.44,-0.42 -0.46,-1.12 -0.04,-1.56 0.42,-0.44 1.12,-0.46 1.56,-0.04l4.09 3.9c0.44,0.42 0.46,1.12 0.04,1.56 -0.42,0.44 -1.12,0.46 -1.56,0.04l-4.09 -3.9zm-13.24 -0.59c-0.32,0.52 -1,0.68 -1.52,0.36 -0.52,-0.32 -0.68,-1 -0.36,-1.52l3.17 -5.12c0.32,-0.52 1,-0.68 1.52,-0.36 0.52,0.32 0.68,1 0.36,1.52l-3.17 5.12zm-12.57 1.98c-0.3,-0.53 -0.12,-1.2 0.41,-1.51 0.53,-0.3 1.21,-0.12 1.51,0.41l2.87 5c0.3,0.53 0.12,1.21 -0.41,1.51 -0.53,0.3 -1.2,0.12 -1.51,-0.41l-2.87 -5zm-6.75 8.09c0.32,-0.52 1,-0.68 1.52,-0.37 0.52,0.32 0.69,1 0.37,1.52l-2.87 4.7c-0.32,0.52 -1,0.68 -1.52,0.37 -0.52,-0.32 -0.68,-1 -0.37,-1.52l2.87 -4.7zm23.33 1.92c4.21,0 7.62,3.41 7.62,7.62 0,4.21 -3.41,7.62 -7.62,7.62 -4.21,0 -7.62,-3.41 -7.62,-7.62 0,-4.21 3.41,-7.62 7.62,-7.62z"/>
  <path class="fil3" d="M277.77 211.82c17.65,0 31.96,14.31 31.96,31.96 0,17.65 -14.31,31.96 -31.96,31.96 -17.65,0 -31.96,-14.31 -31.96,-31.96 0,-17.65 14.31,-31.96 31.96,-31.96zm-5.18 23.25c-0.09,1.81 -0.87,3.45 -2.07,4.65 -1.28,1.28 -3.06,2.08 -5.01,2.08 -1.96,0 -3.73,-0.79 -5.01,-2.08 -1.2,-1.2 -1.98,-2.84 -2.07,-4.65l2.22 0c0.19,2.52 2.29,4.51 4.87,4.51 2.57,0 4.68,-1.99 4.87,-4.51l2.22 0zm-1.11 -7.8c-3.08,2.57 -7.25,4.16 -11.82,4.16l-0.08 0 0.25 -2.21c3.68,-0.04 7.05,-1.22 9.63,-3.15l2.02 1.21zm11.46 7.8c0.09,1.81 0.87,3.45 2.07,4.65 1.28,1.28 3.06,2.08 5.01,2.08 1.96,0 3.73,-0.79 5.01,-2.08 1.2,-1.2 1.98,-2.84 2.07,-4.65l-2.22 0c-0.19,2.52 -2.29,4.51 -4.87,4.51 -2.57,0 -4.68,-1.99 -4.87,-4.51l-2.22 0zm1.11 -7.8c3.08,2.57 7.25,4.16 11.82,4.16l0.08 0 -0.25 -2.21c-3.68,-0.04 -7.05,-1.22 -9.63,-3.15l-2.02 1.21zm-14.46 23.41l16.35 0c3.39,0 6.16,2.77 6.16,6.16l0 0c0,3.39 -2.77,6.16 -6.16,6.16l-16.35 0c-3.39,0 -6.16,-2.77 -6.16,-6.16l0 0c0,-3.39 2.77,-6.16 6.16,-6.16z"/>
  <path class="fil4" d="M412.1 31.79l-8.14 0 0 -23.08 8.14 0c3.69,0 6.71,1.08 9.07,3.23 2.35,2.15 3.53,4.92 3.53,8.31 0,3.41 -1.18,6.19 -3.53,8.34 -2.33,2.13 -5.35,3.2 -9.07,3.2zm-4.52 -19.75l0 16.42 4.19 0c2.9,0 5.15,-0.74 6.76,-2.21 1.63,-1.49 2.44,-3.49 2.44,-6 0,-2.51 -0.81,-4.51 -2.44,-6 -1.6,-1.47 -3.86,-2.21 -6.76,-2.21l-4.19 0zm23.74 19.75l-3.86 0 10.09 -23.21 3.49 0 10.09 23.21 -3.89 0 -2.51 -5.74 -10.95 0 -2.47 5.74zm7.95 -18.63l-4.22 9.69 8.44 0 -4.22 -9.69zm25.68 18.63l-3.63 0 0 -10.45 -8.94 -12.63 4.22 0 6.59 9.33 6.59 -9.33 4.09 0 -8.94 12.53 0 10.55zm27.5 0l-3.56 0 0 -19.19 -5.04 2.7 0 -3.53 5.44 -3.07 3.17 0 0 23.08z"/>
  <path class="fil4" d="M354.61 55.5l0 -5.89 1.44 0 0 14.02 -1.44 0 0 -1.54c-0.91,1.19 -2.16,1.78 -3.75,1.78 -1.43,0 -2.6,-0.49 -3.5,-1.48 -0.91,-0.99 -1.36,-2.18 -1.36,-3.58 0,-1.41 0.45,-2.62 1.36,-3.6 0.91,-0.99 2.08,-1.48 3.5,-1.48 1.59,0 2.84,0.59 3.75,1.78zm0 4.89l0 -3.18c-0.28,-0.64 -0.73,-1.17 -1.36,-1.57 -0.63,-0.41 -1.31,-0.61 -2.04,-0.61 -1.08,0 -1.97,0.37 -2.66,1.1 -0.71,0.73 -1.06,1.63 -1.06,2.68 0,1.06 0.35,1.95 1.06,2.68 0.71,0.72 1.6,1.08 2.66,1.08 0.72,0 1.4,-0.2 2.02,-0.61 0.63,-0.41 1.09,-0.93 1.38,-1.57zm9.47 3.48c-1.51,0 -2.78,-0.47 -3.8,-1.42 -1.01,-0.93 -1.52,-2.15 -1.52,-3.65 0,-1.44 0.45,-2.65 1.36,-3.62 0.92,-0.97 2.1,-1.46 3.55,-1.46 0.77,0 1.46,0.16 2.06,0.47 0.6,0.31 1.07,0.72 1.42,1.23 0.35,0.51 0.61,1.04 0.78,1.61 0.17,0.57 0.26,1.14 0.26,1.71l0 0.4 -7.95 0c0.08,1.04 0.5,1.87 1.25,2.49 0.75,0.62 1.71,0.93 2.87,0.93 1.12,0 2.16,-0.3 3.1,-0.9l0 1.28c-0.79,0.61 -1.92,0.92 -3.38,0.92zm-3.82 -5.91l6.47 0c-0.04,-0.75 -0.32,-1.42 -0.84,-2.02 -0.49,-0.61 -1.26,-0.92 -2.28,-0.92 -0.96,0 -1.75,0.29 -2.36,0.88 -0.6,0.6 -0.93,1.29 -0.98,2.06zm15.08 5.91c-1.48,0 -2.71,-0.48 -3.68,-1.44 -0.97,-0.97 -1.46,-2.19 -1.46,-3.65 0,-1.44 0.49,-2.64 1.48,-3.6 0.97,-0.97 2.2,-1.46 3.68,-1.46 1.12,0 2.1,0.23 2.92,0.7l0 1.34c-0.87,-0.49 -1.78,-0.74 -2.72,-0.74 -1.12,0 -2.05,0.36 -2.78,1.08 -0.73,0.69 -1.1,1.6 -1.1,2.7 0,1.08 0.37,1.98 1.1,2.7 0.75,0.71 1.68,1.06 2.78,1.06 1.07,0 2.04,-0.28 2.9,-0.84l0 1.32c-0.91,0.55 -1.95,0.82 -3.12,0.82zm7.71 -0.24l-1.44 0 0 -9.67 1.44 0 0 9.67zm-1.44 -12.28c-0.19,-0.2 -0.28,-0.44 -0.28,-0.72 0,-0.28 0.09,-0.52 0.28,-0.72 0.2,-0.2 0.44,-0.3 0.72,-0.3 0.28,0 0.52,0.1 0.72,0.3 0.2,0.2 0.3,0.44 0.3,0.72 0,0.28 -0.1,0.52 -0.3,0.72 -0.2,0.19 -0.44,0.28 -0.72,0.28 -0.28,0 -0.52,-0.09 -0.72,-0.28zm13.02 4.14l0 -5.89 1.44 0 0 14.02 -1.44 0 0 -1.54c-0.91,1.19 -2.16,1.78 -3.75,1.78 -1.43,0 -2.6,-0.49 -3.5,-1.48 -0.91,-0.99 -1.36,-2.18 -1.36,-3.58 0,-1.41 0.45,-2.62 1.36,-3.6 0.91,-0.99 2.08,-1.48 3.5,-1.48 1.59,0 2.84,0.59 3.75,1.78zm0 4.89l0 -3.18c-0.28,-0.64 -0.73,-1.17 -1.36,-1.57 -0.63,-0.41 -1.31,-0.61 -2.04,-0.61 -1.08,0 -1.97,0.37 -2.66,1.1 -0.71,0.73 -1.06,1.63 -1.06,2.68 0,1.06 0.35,1.95 1.06,2.68 0.71,0.72 1.6,1.08 2.66,1.08 0.72,0 1.4,-0.2 2.02,-0.61 0.63,-0.41 1.09,-0.93 1.38,-1.57zm9.47 3.48c-1.51,0 -2.78,-0.47 -3.8,-1.42 -1.01,-0.93 -1.52,-2.15 -1.52,-3.65 0,-1.44 0.45,-2.65 1.36,-3.62 0.92,-0.97 2.1,-1.46 3.55,-1.46 0.77,0 1.46,0.16 2.06,0.47 0.6,0.31 1.07,0.72 1.42,1.23 0.35,0.51 0.61,1.04 0.78,1.61 0.17,0.57 0.26,1.14 0.26,1.71l0 0.4 -7.95 0c0.08,1.04 0.5,1.87 1.25,2.49 0.75,0.62 1.71,0.93 2.87,0.93 1.12,0 2.16,-0.3 3.1,-0.9l0 1.28c-0.79,0.61 -1.92,0.92 -3.38,0.92zm-3.82 -5.91l6.47 0c-0.04,-0.75 -0.32,-1.42 -0.84,-2.02 -0.49,-0.61 -1.26,-0.92 -2.28,-0.92 -0.96,0 -1.75,0.29 -2.36,0.88 -0.6,0.6 -0.93,1.29 -0.98,2.06zm19.77 5.91c-0.89,0 -1.57,-0.26 -2.03,-0.79 -0.46,-0.53 -0.69,-1.26 -0.69,-2.19l0 -5.67 -2.28 0 0 -1.26 2.28 0 0 -2.98 1.44 0 0 2.98 3.38 0 0 1.26 -3.38 0 0 5.23c0,0.77 0.13,1.31 0.38,1.6 0.27,0.31 0.7,0.46 1.3,0.46 0.59,0 1.11,-0.13 1.58,-0.4l0 1.32c-0.41,0.29 -1.07,0.44 -1.98,0.44zm5.53 -8.65c0.97,-1 2.23,-1.5 3.77,-1.5 1.54,0 2.79,0.5 3.77,1.5 0.97,0.97 1.46,2.17 1.46,3.58 0,1.42 -0.49,2.61 -1.46,3.58 -0.99,0.99 -2.24,1.48 -3.77,1.48 -1.52,0 -2.78,-0.49 -3.77,-1.48 -0.97,-0.97 -1.46,-2.17 -1.46,-3.58 0,-1.41 0.49,-2.61 1.46,-3.58zm7.51 3.58c0,-1.07 -0.35,-1.97 -1.06,-2.7 -0.71,-0.72 -1.6,-1.08 -2.68,-1.08 -1.08,0 -1.98,0.36 -2.68,1.08 -0.71,0.73 -1.06,1.63 -1.06,2.7 0,1.06 0.35,1.95 1.06,2.68 0.71,0.72 1.6,1.08 2.68,1.08 1.08,0 1.98,-0.36 2.68,-1.08 0.71,-0.73 1.06,-1.63 1.06,-2.68zm14.08 5.07c-1.51,0 -2.78,-0.47 -3.8,-1.42 -1.01,-0.93 -1.52,-2.15 -1.52,-3.65 0,-1.44 0.45,-2.65 1.36,-3.62 0.92,-0.97 2.1,-1.46 3.55,-1.46 0.77,0 1.46,0.16 2.06,0.47 0.6,0.31 1.07,0.72 1.42,1.23 0.35,0.51 0.61,1.04 0.78,1.61 0.17,0.57 0.26,1.14 0.26,1.71l0 0.4 -7.95 0c0.08,1.04 0.5,1.87 1.25,2.49 0.75,0.62 1.71,0.93 2.87,0.93 1.12,0 2.16,-0.3 3.1,-0.9l0 1.28c-0.79,0.61 -1.92,0.92 -3.38,0.92zm-3.82 -5.91l6.47 0c-0.04,-0.75 -0.32,-1.42 -0.84,-2.02 -0.49,-0.61 -1.26,-0.92 -2.28,-0.92 -0.96,0 -1.75,0.29 -2.36,0.88 -0.6,0.6 -0.93,1.29 -0.98,2.06zm13.9 4.61c0.67,0 1.3,-0.15 1.9,-0.46 0.6,-0.31 1.09,-0.69 1.46,-1.16l0 -1.34c-0.99,-0.64 -2.04,-0.96 -3.14,-0.96 -0.88,0 -1.58,0.17 -2.09,0.52 -0.51,0.35 -0.77,0.82 -0.77,1.42 0,0.63 0.25,1.11 0.74,1.46 0.49,0.35 1.13,0.52 1.9,0.52zm-0.4 1.3c-1.03,0 -1.9,-0.28 -2.62,-0.84 -0.71,-0.59 -1.06,-1.38 -1.06,-2.36 0,-0.97 0.37,-1.76 1.12,-2.34 0.75,-0.57 1.7,-0.86 2.84,-0.86 1.25,0 2.42,0.31 3.48,0.94l0 -0.96c0,-1.62 -1.06,-2.42 -3.18,-2.42 -1.13,0 -2.19,0.33 -3.16,0.98l0 -1.4c0.95,-0.59 2.1,-0.88 3.46,-0.88 1.32,0 2.37,0.31 3.15,0.93 0.78,0.62 1.17,1.51 1.17,2.65l0 3.99c0,0.37 0.08,0.67 0.25,0.88 0.17,0.21 0.39,0.32 0.67,0.32 0.21,0 0.4,-0.04 0.56,-0.12l0 1.12c-0.21,0.15 -0.53,0.22 -0.96,0.22 -0.48,0 -0.88,-0.13 -1.21,-0.39 -0.33,-0.26 -0.53,-0.64 -0.61,-1.15 -0.97,1.13 -2.28,1.7 -3.9,1.7zm12.88 0c-0.89,0 -1.57,-0.26 -2.03,-0.79 -0.46,-0.53 -0.69,-1.26 -0.69,-2.19l0 -5.67 -2.28 0 0 -1.26 2.28 0 0 -2.98 1.44 0 0 2.98 3.38 0 0 1.26 -3.38 0 0 5.23c0,0.77 0.13,1.31 0.38,1.6 0.27,0.31 0.7,0.46 1.3,0.46 0.59,0 1.11,-0.13 1.58,-0.4l0 1.32c-0.41,0.29 -1.07,0.44 -1.98,0.44zm11.49 -6.77l0 6.53 -1.44 0 0 -14.02 1.44 0 0 5.83c1.03,-1.15 2.32,-1.72 3.87,-1.72 1.19,0 2.1,0.35 2.73,1.05 0.63,0.7 0.95,1.69 0.95,2.97l0 5.89 -1.44 0 0 -5.57c0,-1.99 -0.91,-2.98 -2.74,-2.98 -0.67,0 -1.31,0.21 -1.94,0.62 -0.64,0.41 -1.11,0.88 -1.42,1.4zm15.4 6.77c-1.51,0 -2.78,-0.47 -3.8,-1.42 -1.01,-0.93 -1.52,-2.15 -1.52,-3.65 0,-1.44 0.45,-2.65 1.36,-3.62 0.92,-0.97 2.1,-1.46 3.55,-1.46 0.77,0 1.46,0.16 2.06,0.47 0.6,0.31 1.07,0.72 1.42,1.23 0.35,0.51 0.61,1.04 0.78,1.61 0.17,0.57 0.26,1.14 0.26,1.71l0 0.4 -7.95 0c0.08,1.04 0.5,1.87 1.25,2.49 0.75,0.62 1.71,0.93 2.87,0.93 1.12,0 2.16,-0.3 3.1,-0.9l0 1.28c-0.79,0.61 -1.92,0.92 -3.38,0.92zm-3.82 -5.91l6.47 0c-0.04,-0.75 -0.32,-1.42 -0.84,-2.02 -0.49,-0.61 -1.26,-0.92 -2.28,-0.92 -0.96,0 -1.75,0.29 -2.36,0.88 -0.6,0.6 -0.93,1.29 -0.98,2.06zm13.9 4.61c0.67,0 1.3,-0.15 1.9,-0.46 0.6,-0.31 1.09,-0.69 1.46,-1.16l0 -1.34c-0.99,-0.64 -2.04,-0.96 -3.14,-0.96 -0.88,0 -1.58,0.17 -2.09,0.52 -0.51,0.35 -0.77,0.82 -0.77,1.42 0,0.63 0.25,1.11 0.74,1.46 0.49,0.35 1.13,0.52 1.9,0.52zm-0.4 1.3c-1.03,0 -1.9,-0.28 -2.62,-0.84 -0.71,-0.59 -1.06,-1.38 -1.06,-2.36 0,-0.97 0.37,-1.76 1.12,-2.34 0.75,-0.57 1.7,-0.86 2.84,-0.86 1.25,0 2.42,0.31 3.48,0.94l0 -0.96c0,-1.62 -1.06,-2.42 -3.18,-2.42 -1.13,0 -2.19,0.33 -3.16,0.98l0 -1.4c0.95,-0.59 2.1,-0.88 3.46,-0.88 1.32,0 2.37,0.31 3.15,0.93 0.78,0.62 1.17,1.51 1.17,2.65l0 3.99c0,0.37 0.08,0.67 0.25,0.88 0.17,0.21 0.39,0.32 0.67,0.32 0.21,0 0.4,-0.04 0.56,-0.12l0 1.12c-0.21,0.15 -0.53,0.22 -0.96,0.22 -0.48,0 -0.88,-0.13 -1.21,-0.39 -0.33,-0.26 -0.53,-0.64 -0.61,-1.15 -0.97,1.13 -2.28,1.7 -3.9,1.7zm11.25 0c-0.67,0 -1.2,-0.19 -1.61,-0.58 -0.41,-0.39 -0.61,-0.99 -0.61,-1.8l0 -11.88 1.44 0 0 11.53c0,0.95 0.42,1.42 1.26,1.42 0.33,0 0.65,-0.09 0.94,-0.26l0 1.28c-0.35,0.19 -0.82,0.28 -1.42,0.28zm7.47 0c-0.89,0 -1.57,-0.26 -2.03,-0.79 -0.46,-0.53 -0.69,-1.26 -0.69,-2.19l0 -5.67 -2.28 0 0 -1.26 2.28 0 0 -2.98 1.44 0 0 2.98 3.38 0 0 1.26 -3.38 0 0 5.23c0,0.77 0.13,1.31 0.38,1.6 0.27,0.31 0.7,0.46 1.3,0.46 0.59,0 1.11,-0.13 1.58,-0.4l0 1.32c-0.41,0.29 -1.07,0.44 -1.98,0.44zm6.21 -6.77l0 6.53 -1.44 0 0 -14.02 1.44 0 0 5.83c1.03,-1.15 2.32,-1.72 3.87,-1.72 1.19,0 2.1,0.35 2.73,1.05 0.63,0.7 0.95,1.69 0.95,2.97l0 5.89 -1.44 0 0 -5.57c0,-1.99 -0.91,-2.98 -2.74,-2.98 -0.67,0 -1.31,0.21 -1.94,0.62 -0.64,0.41 -1.11,0.88 -1.42,1.4zm11.32 10.61c-0.69,0 -1.21,-0.09 -1.54,-0.28l0 -1.34c0.41,0.21 0.85,0.32 1.32,0.32 0.59,0 1.09,-0.24 1.52,-0.73 0.43,-0.49 0.87,-1.29 1.34,-2.41l-4.31 -9.31 1.6 0 3.43 7.61 3.32 -7.61 1.56 0 -4.79 10.75c-0.87,2 -2.02,3 -3.46,3z"/>
  <path class="fil4" d="M728.76 170.65l-8.14 0 0 -23.08 8.14 0c3.69,0 6.71,1.08 9.07,3.23 2.35,2.15 3.53,4.92 3.53,8.31 0,3.41 -1.18,6.19 -3.53,8.34 -2.33,2.13 -5.35,3.2 -9.07,3.2zm-4.52 -19.75l0 16.42 4.19 0c2.9,0 5.15,-0.74 6.76,-2.21 1.63,-1.49 2.44,-3.49 2.44,-6 0,-2.51 -0.81,-4.51 -2.44,-6 -1.6,-1.47 -3.86,-2.21 -6.76,-2.21l-4.19 0zm23.74 19.75l-3.86 0 10.09 -23.21 3.49 0 10.09 23.21 -3.89 0 -2.51 -5.74 -10.95 0 -2.47 5.74zm7.95 -18.63l-4.22 9.69 8.44 0 -4.22 -9.69zm25.68 18.63l-3.63 0 0 -10.45 -8.94 -12.63 4.22 0 6.59 9.33 6.59 -9.33 4.09 0 -8.94 12.53 0 10.55zm26.24 0.43c-2.73,0 -5.02,-0.58 -6.89,-1.75l0 -3.53c1.89,1.36 4.12,2.04 6.69,2.04 1.52,0 2.82,-0.42 3.92,-1.25 1.1,-0.86 1.65,-2 1.65,-3.43 0,-1.34 -0.48,-2.42 -1.45,-3.25 -0.97,-0.82 -2.26,-1.24 -3.89,-1.24 -1.06,0 -2.03,0.18 -2.93,0.53l0 -2.47 6.2 -6 -9.33 0 0 -3.17 14.14 0 0 2.74 -5.9 5.67c1.85,0.2 3.45,0.95 4.81,2.24 1.34,1.28 2.01,2.92 2.01,4.95 0,2.37 -0.87,4.29 -2.6,5.74 -1.71,1.45 -3.86,2.18 -6.43,2.18z"/>
  <path class="fil4" d="M708.74 202.73c-0.67,0 -1.2,-0.19 -1.61,-0.58 -0.41,-0.39 -0.61,-0.99 -0.61,-1.8l0 -11.88 1.44 0 0 11.53c0,0.95 0.42,1.42 1.26,1.42 0.33,0 0.65,-0.09 0.94,-0.26l0 1.28c-0.35,0.19 -0.82,0.28 -1.42,0.28zm5.29 -0.24l-1.44 0 0 -9.67 1.44 0 0 9.67zm-1.44 -12.28c-0.19,-0.2 -0.28,-0.44 -0.28,-0.72 0,-0.28 0.09,-0.52 0.28,-0.72 0.2,-0.2 0.44,-0.3 0.72,-0.3 0.28,0 0.52,0.1 0.72,0.3 0.2,0.2 0.3,0.44 0.3,0.72 0,0.28 -0.1,0.52 -0.3,0.72 -0.2,0.19 -0.44,0.28 -0.72,0.28 -0.28,0 -0.52,-0.09 -0.72,-0.28zm6.55 12.28l-1.44 0 0 -9.67 1.44 0 0 1.44c0.8,-1.12 1.96,-1.68 3.48,-1.68 0.79,0 1.45,0.17 1.99,0.5 0.54,0.33 0.91,0.8 1.11,1.4 0.37,-0.57 0.88,-1.04 1.53,-1.38 0.65,-0.35 1.38,-0.52 2.19,-0.52 1.08,0 1.92,0.34 2.52,1.01 0.6,0.67 0.9,1.63 0.9,2.87l0 6.03 -1.44 0 0 -5.71c0,-1.9 -0.8,-2.84 -2.4,-2.84 -0.59,0 -1.17,0.2 -1.75,0.61 -0.58,0.41 -1.02,0.9 -1.31,1.47 0,0.13 0,0.29 0.01,0.46 0.01,0.17 0.01,0.31 0.02,0.4 0.01,0.09 0.01,0.17 0.01,0.22l0 5.39 -1.44 0 0 -5.71c0,-1.9 -0.8,-2.84 -2.4,-2.84 -0.56,0 -1.13,0.2 -1.72,0.6 -0.56,0.37 -0.99,0.84 -1.3,1.4l0 6.55zm18.62 0l-1.44 0 0 -9.67 1.44 0 0 9.67zm-1.44 -12.28c-0.19,-0.2 -0.28,-0.44 -0.28,-0.72 0,-0.28 0.09,-0.52 0.28,-0.72 0.2,-0.2 0.44,-0.3 0.72,-0.3 0.28,0 0.52,0.1 0.72,0.3 0.2,0.2 0.3,0.44 0.3,0.72 0,0.28 -0.1,0.52 -0.3,0.72 -0.2,0.19 -0.44,0.28 -0.72,0.28 -0.28,0 -0.52,-0.09 -0.72,-0.28zm8.95 12.52c-0.89,0 -1.57,-0.26 -2.03,-0.79 -0.46,-0.53 -0.69,-1.26 -0.69,-2.19l0 -5.67 -2.28 0 0 -1.26 2.28 0 0 -2.98 1.44 0 0 2.98 3.38 0 0 1.26 -3.38 0 0 5.23c0,0.77 0.13,1.31 0.38,1.6 0.27,0.31 0.7,0.46 1.3,0.46 0.59,0 1.11,-0.13 1.58,-0.4l0 1.32c-0.41,0.29 -1.07,0.44 -1.98,0.44zm10.59 3.85c-0.69,0 -1.21,-0.09 -1.54,-0.28l0 -1.34c0.41,0.21 0.85,0.32 1.32,0.32 0.59,0 1.09,-0.24 1.52,-0.73 0.43,-0.49 0.87,-1.29 1.34,-2.41l-4.31 -9.31 1.6 0 3.43 7.61 3.32 -7.61 1.56 0 -4.79 10.75c-0.87,2 -2.02,3 -3.46,3zm11.33 -12.5c0.97,-1 2.23,-1.5 3.77,-1.5 1.54,0 2.79,0.5 3.77,1.5 0.97,0.97 1.46,2.17 1.46,3.58 0,1.42 -0.49,2.61 -1.46,3.58 -0.99,0.99 -2.24,1.48 -3.77,1.48 -1.52,0 -2.78,-0.49 -3.77,-1.48 -0.97,-0.97 -1.46,-2.17 -1.46,-3.58 0,-1.41 0.49,-2.61 1.46,-3.58zm7.51 3.58c0,-1.07 -0.35,-1.97 -1.06,-2.7 -0.71,-0.72 -1.6,-1.08 -2.68,-1.08 -1.08,0 -1.98,0.36 -2.68,1.08 -0.71,0.73 -1.06,1.63 -1.06,2.7 0,1.06 0.35,1.95 1.06,2.68 0.71,0.72 1.6,1.08 2.68,1.08 1.08,0 1.98,-0.36 2.68,-1.08 0.71,-0.73 1.06,-1.63 1.06,-2.68zm11.55 1.68l0 -6.53 1.44 0 0 9.67 -1.44 0 0 -1.48c-1.03,1.15 -2.32,1.72 -3.87,1.72 -1.19,0 -2.1,-0.35 -2.73,-1.05 -0.63,-0.7 -0.95,-1.69 -0.95,-2.97l0 -5.89 1.44 0 0 5.57c0,1.99 0.91,2.98 2.74,2.98 0.67,0 1.31,-0.2 1.92,-0.6 0.65,-0.43 1.13,-0.9 1.44,-1.42zm6.29 3.14l-1.44 0 0 -9.67 1.44 0 0 1.84c0.36,-0.63 0.89,-1.13 1.6,-1.51 0.71,-0.38 1.45,-0.57 2.24,-0.57l0 1.46c-0.44,0 -0.84,0.06 -1.2,0.18 -0.61,0.16 -1.16,0.44 -1.62,0.83 -0.47,0.39 -0.81,0.84 -1.02,1.33l0 6.11zm9.23 0.24c-0.77,0 -1.53,-0.1 -2.27,-0.29 -0.74,-0.19 -1.32,-0.43 -1.73,-0.71l0 -1.48c1.18,0.79 2.5,1.18 3.97,1.18 0.83,0 1.48,-0.14 1.95,-0.41 0.47,-0.27 0.71,-0.65 0.71,-1.13 0,-0.41 -0.23,-0.75 -0.68,-1.02 -0.13,-0.11 -0.47,-0.23 -1.02,-0.36 -0.16,-0.05 -0.38,-0.11 -0.66,-0.16 -0.36,-0.09 -0.58,-0.15 -0.66,-0.16 -1.21,-0.31 -2.08,-0.67 -2.6,-1.09 -0.52,-0.42 -0.78,-1.03 -0.78,-1.83 0,-0.84 0.34,-1.5 1.02,-1.97 0.68,-0.47 1.63,-0.71 2.86,-0.71 1.46,0 2.63,0.29 3.53,0.86l0 1.42c-1.09,-0.65 -2.25,-0.98 -3.46,-0.98 -0.81,0 -1.43,0.13 -1.85,0.38 -0.42,0.25 -0.63,0.6 -0.63,1.04 0,0.48 0.25,0.84 0.74,1.08 0.09,0.03 0.21,0.07 0.35,0.13 0.14,0.06 0.28,0.11 0.43,0.15l0.44 0.12c0.32,0.11 0.64,0.18 0.96,0.22 1.2,0.29 2.09,0.65 2.65,1.08 0.57,0.43 0.85,1.03 0.85,1.82 0,0.88 -0.39,1.57 -1.16,2.06 -0.77,0.51 -1.76,0.76 -2.94,0.76zm11.54 0c-1.51,0 -2.78,-0.47 -3.8,-1.42 -1.01,-0.93 -1.52,-2.15 -1.52,-3.65 0,-1.44 0.45,-2.65 1.36,-3.62 0.92,-0.97 2.1,-1.46 3.55,-1.46 0.77,0 1.46,0.16 2.06,0.47 0.6,0.31 1.07,0.72 1.42,1.23 0.35,0.51 0.61,1.04 0.78,1.61 0.17,0.57 0.26,1.14 0.26,1.71l0 0.4 -7.95 0c0.08,1.04 0.5,1.87 1.25,2.49 0.75,0.62 1.71,0.93 2.87,0.93 1.12,0 2.16,-0.3 3.1,-0.9l0 1.28c-0.79,0.61 -1.92,0.92 -3.38,0.92zm-3.82 -5.91l6.47 0c-0.04,-0.75 -0.32,-1.42 -0.84,-2.02 -0.49,-0.61 -1.26,-0.92 -2.28,-0.92 -0.96,0 -1.75,0.29 -2.36,0.88 -0.6,0.6 -0.93,1.29 -0.98,2.06zm12.86 5.91c-0.67,0 -1.2,-0.19 -1.61,-0.58 -0.41,-0.39 -0.61,-0.99 -0.61,-1.8l0 -11.88 1.44 0 0 11.53c0,0.95 0.42,1.42 1.26,1.42 0.33,0 0.65,-0.09 0.94,-0.26l0 1.28c-0.35,0.19 -0.82,0.28 -1.42,0.28zm5.83 -8.65l0 8.41 -1.44 0 0 -8.41 -1.92 0 0 -1.26 1.92 0 0 -1.62c0,-0.89 0.24,-1.6 0.72,-2.11 0.48,-0.51 1.16,-0.77 2.04,-0.77 0.81,0 1.5,0.13 2.04,0.38l0 1.32c-0.64,-0.27 -1.2,-0.4 -1.68,-0.4 -1.12,0 -1.68,0.62 -1.68,1.86l0 1.34 3.36 0 0 1.26 -3.36 0zm-133.09 25.19l0 8.41 -1.44 0 0 -8.41 -1.92 0 0 -1.26 1.92 0 0 -1.62c0,-0.89 0.24,-1.6 0.72,-2.11 0.48,-0.51 1.16,-0.77 2.04,-0.77 0.81,0 1.5,0.13 2.04,0.38l0 1.32c-0.64,-0.27 -1.2,-0.4 -1.68,-0.4 -1.12,0 -1.68,0.62 -1.68,1.86l0 1.34 3.36 0 0 1.26 -3.36 0zm7.07 8.41l-1.44 0 0 -9.67 1.44 0 0 1.84c0.36,-0.63 0.89,-1.13 1.6,-1.51 0.71,-0.38 1.45,-0.57 2.24,-0.57l0 1.46c-0.44,0 -0.84,0.06 -1.2,0.18 -0.61,0.16 -1.16,0.44 -1.62,0.83 -0.47,0.39 -0.81,0.84 -1.02,1.33l0 6.11zm6.71 -8.41c0.97,-1 2.23,-1.5 3.77,-1.5 1.54,0 2.79,0.5 3.77,1.5 0.97,0.97 1.46,2.17 1.46,3.58 0,1.42 -0.49,2.61 -1.46,3.58 -0.99,0.99 -2.24,1.48 -3.77,1.48 -1.52,0 -2.78,-0.49 -3.77,-1.48 -0.97,-0.97 -1.46,-2.17 -1.46,-3.58 0,-1.41 0.49,-2.61 1.46,-3.58zm7.51 3.58c0,-1.07 -0.35,-1.97 -1.06,-2.7 -0.71,-0.72 -1.6,-1.08 -2.68,-1.08 -1.08,0 -1.98,0.36 -2.68,1.08 -0.71,0.73 -1.06,1.63 -1.06,2.7 0,1.06 0.35,1.95 1.06,2.68 0.71,0.72 1.6,1.08 2.68,1.08 1.08,0 1.98,-0.36 2.68,-1.08 0.71,-0.73 1.06,-1.63 1.06,-2.68zm5.61 4.83l-1.44 0 0 -9.67 1.44 0 0 1.44c0.8,-1.12 1.96,-1.68 3.48,-1.68 0.79,0 1.45,0.17 1.99,0.5 0.54,0.33 0.91,0.8 1.11,1.4 0.37,-0.57 0.88,-1.04 1.53,-1.38 0.65,-0.35 1.38,-0.52 2.19,-0.52 1.08,0 1.92,0.34 2.52,1.01 0.6,0.67 0.9,1.63 0.9,2.87l0 6.03 -1.44 0 0 -5.71c0,-1.9 -0.8,-2.84 -2.4,-2.84 -0.59,0 -1.17,0.2 -1.75,0.61 -0.58,0.41 -1.02,0.9 -1.31,1.47 0,0.13 0,0.29 0.01,0.46 0.01,0.17 0.01,0.31 0.02,0.4 0.01,0.09 0.01,0.17 0.01,0.22l0 5.39 -1.44 0 0 -5.71c0,-1.9 -0.8,-2.84 -2.4,-2.84 -0.56,0 -1.13,0.2 -1.72,0.6 -0.56,0.37 -0.99,0.84 -1.3,1.4l0 6.55zm25.53 0.24c-0.77,0 -1.53,-0.1 -2.27,-0.29 -0.74,-0.19 -1.32,-0.43 -1.73,-0.71l0 -1.48c1.18,0.79 2.5,1.18 3.97,1.18 0.83,0 1.48,-0.14 1.95,-0.41 0.47,-0.27 0.71,-0.65 0.71,-1.13 0,-0.41 -0.23,-0.75 -0.68,-1.02 -0.13,-0.11 -0.47,-0.23 -1.02,-0.36 -0.16,-0.05 -0.38,-0.11 -0.66,-0.16 -0.36,-0.09 -0.58,-0.15 -0.66,-0.16 -1.21,-0.31 -2.08,-0.67 -2.6,-1.09 -0.52,-0.42 -0.78,-1.03 -0.78,-1.83 0,-0.84 0.34,-1.5 1.02,-1.97 0.68,-0.47 1.63,-0.71 2.86,-0.71 1.46,0 2.63,0.29 3.53,0.86l0 1.42c-1.09,-0.65 -2.25,-0.98 -3.46,-0.98 -0.81,0 -1.43,0.13 -1.85,0.38 -0.42,0.25 -0.63,0.6 -0.63,1.04 0,0.48 0.25,0.84 0.74,1.08 0.09,0.03 0.21,0.07 0.35,0.13 0.14,0.06 0.28,0.11 0.43,0.15l0.44 0.12c0.32,0.11 0.64,0.18 0.96,0.22 1.2,0.29 2.09,0.65 2.65,1.08 0.57,0.43 0.85,1.03 0.85,1.82 0,0.88 -0.39,1.57 -1.16,2.06 -0.77,0.51 -1.76,0.76 -2.94,0.76zm7.67 -8.65c0.97,-1 2.23,-1.5 3.77,-1.5 1.54,0 2.79,0.5 3.77,1.5 0.97,0.97 1.46,2.17 1.46,3.58 0,1.42 -0.49,2.61 -1.46,3.58 -0.99,0.99 -2.24,1.48 -3.77,1.48 -1.52,0 -2.78,-0.49 -3.77,-1.48 -0.97,-0.97 -1.46,-2.17 -1.46,-3.58 0,-1.41 0.49,-2.61 1.46,-3.58zm7.51 3.58c0,-1.07 -0.35,-1.97 -1.06,-2.7 -0.71,-0.72 -1.6,-1.08 -2.68,-1.08 -1.08,0 -1.98,0.36 -2.68,1.08 -0.71,0.73 -1.06,1.63 -1.06,2.7 0,1.06 0.35,1.95 1.06,2.68 0.71,0.72 1.6,1.08 2.68,1.08 1.08,0 1.98,-0.36 2.68,-1.08 0.71,-0.73 1.06,-1.63 1.06,-2.68zm5.61 4.83l-1.44 0 0 -9.67 1.44 0 0 1.44c0.8,-1.12 1.96,-1.68 3.48,-1.68 0.79,0 1.45,0.17 1.99,0.5 0.54,0.33 0.91,0.8 1.11,1.4 0.37,-0.57 0.88,-1.04 1.53,-1.38 0.65,-0.35 1.38,-0.52 2.19,-0.52 1.08,0 1.92,0.34 2.52,1.01 0.6,0.67 0.9,1.63 0.9,2.87l0 6.03 -1.44 0 0 -5.71c0,-1.9 -0.8,-2.84 -2.4,-2.84 -0.59,0 -1.17,0.2 -1.75,0.61 -0.58,0.41 -1.02,0.9 -1.31,1.47 0,0.13 0,0.29 0.01,0.46 0.01,0.17 0.01,0.31 0.02,0.4 0.01,0.09 0.01,0.17 0.01,0.22l0 5.39 -1.44 0 0 -5.71c0,-1.9 -0.8,-2.84 -2.4,-2.84 -0.56,0 -1.13,0.2 -1.72,0.6 -0.56,0.37 -0.99,0.84 -1.3,1.4l0 6.55zm21.59 0.24c-1.51,0 -2.78,-0.47 -3.8,-1.42 -1.01,-0.93 -1.52,-2.15 -1.52,-3.65 0,-1.44 0.45,-2.65 1.36,-3.62 0.92,-0.97 2.1,-1.46 3.55,-1.46 0.77,0 1.46,0.16 2.06,0.47 0.6,0.31 1.07,0.72 1.42,1.23 0.35,0.51 0.61,1.04 0.78,1.61 0.17,0.57 0.26,1.14 0.26,1.71l0 0.4 -7.95 0c0.08,1.04 0.5,1.87 1.25,2.49 0.75,0.62 1.71,0.93 2.87,0.93 1.12,0 2.16,-0.3 3.1,-0.9l0 1.28c-0.79,0.61 -1.92,0.92 -3.38,0.92zm-3.82 -5.91l6.47 0c-0.04,-0.75 -0.32,-1.42 -0.84,-2.02 -0.49,-0.61 -1.26,-0.92 -2.28,-0.92 -0.96,0 -1.75,0.29 -2.36,0.88 -0.6,0.6 -0.93,1.29 -0.98,2.06zm18.12 -2.74l0 8.41 -1.44 0 0 -8.41 -1.92 0 0 -1.26 1.92 0 0 -1.62c0,-0.89 0.24,-1.6 0.72,-2.11 0.48,-0.51 1.16,-0.77 2.04,-0.77 0.81,0 1.5,0.13 2.04,0.38l0 1.32c-0.64,-0.27 -1.2,-0.4 -1.68,-0.4 -1.12,0 -1.68,0.62 -1.68,1.86l0 1.34 3.36 0 0 1.26 -3.36 0zm6.39 0c0.97,-1 2.23,-1.5 3.77,-1.5 1.54,0 2.79,0.5 3.77,1.5 0.97,0.97 1.46,2.17 1.46,3.58 0,1.42 -0.49,2.61 -1.46,3.58 -0.99,0.99 -2.24,1.48 -3.77,1.48 -1.52,0 -2.78,-0.49 -3.77,-1.48 -0.97,-0.97 -1.46,-2.17 -1.46,-3.58 0,-1.41 0.49,-2.61 1.46,-3.58zm7.51 3.58c0,-1.07 -0.35,-1.97 -1.06,-2.7 -0.71,-0.72 -1.6,-1.08 -2.68,-1.08 -1.08,0 -1.98,0.36 -2.68,1.08 -0.71,0.73 -1.06,1.63 -1.06,2.7 0,1.06 0.35,1.95 1.06,2.68 0.71,0.72 1.6,1.08 2.68,1.08 1.08,0 1.98,-0.36 2.68,-1.08 0.71,-0.73 1.06,-1.63 1.06,-2.68zm4.93 -3.58c0.97,-1 2.23,-1.5 3.77,-1.5 1.54,0 2.79,0.5 3.77,1.5 0.97,0.97 1.46,2.17 1.46,3.58 0,1.42 -0.49,2.61 -1.46,3.58 -0.99,0.99 -2.24,1.48 -3.77,1.48 -1.52,0 -2.78,-0.49 -3.77,-1.48 -0.97,-0.97 -1.46,-2.17 -1.46,-3.58 0,-1.41 0.49,-2.61 1.46,-3.58zm7.51 3.58c0,-1.07 -0.35,-1.97 -1.06,-2.7 -0.71,-0.72 -1.6,-1.08 -2.68,-1.08 -1.08,0 -1.98,0.36 -2.68,1.08 -0.71,0.73 -1.06,1.63 -1.06,2.7 0,1.06 0.35,1.95 1.06,2.68 0.71,0.72 1.6,1.08 2.68,1.08 1.08,0 1.98,-0.36 2.68,-1.08 0.71,-0.73 1.06,-1.63 1.06,-2.68zm12.08 -3.3l0 -5.89 1.44 0 0 14.02 -1.44 0 0 -1.54c-0.91,1.19 -2.16,1.78 -3.75,1.78 -1.43,0 -2.6,-0.49 -3.5,-1.48 -0.91,-0.99 -1.36,-2.18 -1.36,-3.58 0,-1.41 0.45,-2.62 1.36,-3.6 0.91,-0.99 2.08,-1.48 3.5,-1.48 1.59,0 2.84,0.59 3.75,1.78zm0 4.89l0 -3.18c-0.28,-0.64 -0.73,-1.17 -1.36,-1.57 -0.63,-0.41 -1.31,-0.61 -2.04,-0.61 -1.08,0 -1.97,0.37 -2.66,1.1 -0.71,0.73 -1.06,1.63 -1.06,2.68 0,1.06 0.35,1.95 1.06,2.68 0.71,0.72 1.6,1.08 2.66,1.08 0.72,0 1.4,-0.2 2.02,-0.61 0.63,-0.41 1.09,-0.93 1.38,-1.57zm-148.63 20.03c0.97,-1 2.23,-1.5 3.77,-1.5 1.54,0 2.79,0.5 3.77,1.5 0.97,0.97 1.46,2.17 1.46,3.58 0,1.42 -0.49,2.61 -1.46,3.58 -0.99,0.99 -2.24,1.48 -3.77,1.48 -1.52,0 -2.78,-0.49 -3.77,-1.48 -0.97,-0.97 -1.46,-2.17 -1.46,-3.58 0,-1.41 0.49,-2.61 1.46,-3.58zm7.51 3.58c0,-1.07 -0.35,-1.97 -1.06,-2.7 -0.71,-0.72 -1.6,-1.08 -2.68,-1.08 -1.08,0 -1.98,0.36 -2.68,1.08 -0.71,0.73 -1.06,1.63 -1.06,2.7 0,1.06 0.35,1.95 1.06,2.68 0.71,0.72 1.6,1.08 2.68,1.08 1.08,0 1.98,-0.36 2.68,-1.08 0.71,-0.73 1.06,-1.63 1.06,-2.68zm5.61 4.83l-1.44 0 0 -9.67 1.44 0 0 1.84c0.36,-0.63 0.89,-1.13 1.6,-1.51 0.71,-0.38 1.45,-0.57 2.24,-0.57l0 1.46c-0.44,0 -0.84,0.06 -1.2,0.18 -0.61,0.16 -1.16,0.44 -1.62,0.83 -0.47,0.39 -0.81,0.84 -1.02,1.33l0 6.11zm12.68 0l-1.44 0 0 -9.67 1.44 0 0 1.84c0.36,-0.63 0.89,-1.13 1.6,-1.51 0.71,-0.38 1.45,-0.57 2.24,-0.57l0 1.46c-0.44,0 -0.84,0.06 -1.2,0.18 -0.61,0.16 -1.16,0.44 -1.62,0.83 -0.47,0.39 -0.81,0.84 -1.02,1.33l0 6.11zm10.57 0.24c-1.51,0 -2.78,-0.47 -3.8,-1.42 -1.01,-0.93 -1.52,-2.15 -1.52,-3.65 0,-1.44 0.45,-2.65 1.36,-3.62 0.92,-0.97 2.1,-1.46 3.55,-1.46 0.77,0 1.46,0.16 2.06,0.47 0.6,0.31 1.07,0.72 1.42,1.23 0.35,0.51 0.61,1.04 0.78,1.61 0.17,0.57 0.26,1.14 0.26,1.71l0 0.4 -7.95 0c0.08,1.04 0.5,1.87 1.25,2.49 0.75,0.62 1.71,0.93 2.87,0.93 1.12,0 2.16,-0.3 3.1,-0.9l0 1.28c-0.79,0.61 -1.92,0.92 -3.38,0.92zm-3.82 -5.91l6.47 0c-0.04,-0.75 -0.32,-1.42 -0.84,-2.02 -0.49,-0.61 -1.26,-0.92 -2.28,-0.92 -0.96,0 -1.75,0.29 -2.36,0.88 -0.6,0.6 -0.93,1.29 -0.98,2.06zm18.54 -2.46l0 -5.89 1.44 0 0 14.02 -1.44 0 0 -1.54c-0.91,1.19 -2.16,1.78 -3.75,1.78 -1.43,0 -2.6,-0.49 -3.5,-1.48 -0.91,-0.99 -1.36,-2.18 -1.36,-3.58 0,-1.41 0.45,-2.62 1.36,-3.6 0.91,-0.99 2.08,-1.48 3.5,-1.48 1.59,0 2.84,0.59 3.75,1.78zm0 4.89l0 -3.18c-0.28,-0.64 -0.73,-1.17 -1.36,-1.57 -0.63,-0.41 -1.31,-0.61 -2.04,-0.61 -1.08,0 -1.97,0.37 -2.66,1.1 -0.71,0.73 -1.06,1.63 -1.06,2.68 0,1.06 0.35,1.95 1.06,2.68 0.71,0.72 1.6,1.08 2.66,1.08 0.72,0 1.4,-0.2 2.02,-0.61 0.63,-0.41 1.09,-0.93 1.38,-1.57zm12.24 0.1l0 -6.53 1.44 0 0 9.67 -1.44 0 0 -1.48c-1.03,1.15 -2.32,1.72 -3.87,1.72 -1.19,0 -2.1,-0.35 -2.73,-1.05 -0.63,-0.7 -0.95,-1.69 -0.95,-2.97l0 -5.89 1.44 0 0 5.57c0,1.99 0.91,2.98 2.74,2.98 0.67,0 1.31,-0.2 1.92,-0.6 0.65,-0.43 1.13,-0.9 1.44,-1.42zm9.29 3.38c-1.48,0 -2.71,-0.48 -3.68,-1.44 -0.97,-0.97 -1.46,-2.19 -1.46,-3.65 0,-1.44 0.49,-2.64 1.48,-3.6 0.97,-0.97 2.2,-1.46 3.68,-1.46 1.12,0 2.1,0.23 2.92,0.7l0 1.34c-0.87,-0.49 -1.78,-0.74 -2.72,-0.74 -1.12,0 -2.05,0.36 -2.78,1.08 -0.73,0.69 -1.1,1.6 -1.1,2.7 0,1.08 0.37,1.98 1.1,2.7 0.75,0.71 1.68,1.06 2.78,1.06 1.07,0 2.04,-0.28 2.9,-0.84l0 1.32c-0.91,0.55 -1.95,0.82 -3.12,0.82zm10.67 0c-1.51,0 -2.78,-0.47 -3.8,-1.42 -1.01,-0.93 -1.52,-2.15 -1.52,-3.65 0,-1.44 0.45,-2.65 1.36,-3.62 0.92,-0.97 2.1,-1.46 3.55,-1.46 0.77,0 1.46,0.16 2.06,0.47 0.6,0.31 1.07,0.72 1.42,1.23 0.35,0.51 0.61,1.04 0.78,1.61 0.17,0.57 0.26,1.14 0.26,1.71l0 0.4 -7.95 0c0.08,1.04 0.5,1.87 1.25,2.49 0.75,0.62 1.71,0.93 2.87,0.93 1.12,0 2.16,-0.3 3.1,-0.9l0 1.28c-0.79,0.61 -1.92,0.92 -3.38,0.92zm-3.82 -5.91l6.47 0c-0.04,-0.75 -0.32,-1.42 -0.84,-2.02 -0.49,-0.61 -1.26,-0.92 -2.28,-0.92 -0.96,0 -1.75,0.29 -2.36,0.88 -0.6,0.6 -0.93,1.29 -0.98,2.06zm17.36 5.67l-1.44 0 0 -9.67 1.44 0 0 1.44c0.8,-1.12 1.96,-1.68 3.48,-1.68 0.79,0 1.45,0.17 1.99,0.5 0.54,0.33 0.91,0.8 1.11,1.4 0.37,-0.57 0.88,-1.04 1.53,-1.38 0.65,-0.35 1.38,-0.52 2.19,-0.52 1.08,0 1.92,0.34 2.52,1.01 0.6,0.67 0.9,1.63 0.9,2.87l0 6.03 -1.44 0 0 -5.71c0,-1.9 -0.8,-2.84 -2.4,-2.84 -0.59,0 -1.17,0.2 -1.75,0.61 -0.58,0.41 -1.02,0.9 -1.31,1.47 0,0.13 0,0.29 0.01,0.46 0.01,0.17 0.01,0.31 0.02,0.4 0.01,0.09 0.01,0.17 0.01,0.22l0 5.39 -1.44 0 0 -5.71c0,-1.9 -0.8,-2.84 -2.4,-2.84 -0.56,0 -1.13,0.2 -1.72,0.6 -0.56,0.37 -0.99,0.84 -1.3,1.4l0 6.55zm21.59 0.24c-1.51,0 -2.78,-0.47 -3.8,-1.42 -1.01,-0.93 -1.52,-2.15 -1.52,-3.65 0,-1.44 0.45,-2.65 1.36,-3.62 0.92,-0.97 2.1,-1.46 3.55,-1.46 0.77,0 1.46,0.16 2.06,0.47 0.6,0.31 1.07,0.72 1.42,1.23 0.35,0.51 0.61,1.04 0.78,1.61 0.17,0.57 0.26,1.14 0.26,1.71l0 0.4 -7.95 0c0.08,1.04 0.5,1.87 1.25,2.49 0.75,0.62 1.71,0.93 2.87,0.93 1.12,0 2.16,-0.3 3.1,-0.9l0 1.28c-0.79,0.61 -1.92,0.92 -3.38,0.92zm-3.82 -5.91l6.47 0c-0.04,-0.75 -0.32,-1.42 -0.84,-2.02 -0.49,-0.61 -1.26,-0.92 -2.28,-0.92 -0.96,0 -1.75,0.29 -2.36,0.88 -0.6,0.6 -0.93,1.29 -0.98,2.06zm13.9 4.61c0.67,0 1.3,-0.15 1.9,-0.46 0.6,-0.31 1.09,-0.69 1.46,-1.16l0 -1.34c-0.99,-0.64 -2.04,-0.96 -3.14,-0.96 -0.88,0 -1.58,0.17 -2.09,0.52 -0.51,0.35 -0.77,0.82 -0.77,1.42 0,0.63 0.25,1.11 0.74,1.46 0.49,0.35 1.13,0.52 1.9,0.52zm-0.4 1.3c-1.03,0 -1.9,-0.28 -2.62,-0.84 -0.71,-0.59 -1.06,-1.38 -1.06,-2.36 0,-0.97 0.37,-1.76 1.12,-2.34 0.75,-0.57 1.7,-0.86 2.84,-0.86 1.25,0 2.42,0.31 3.48,0.94l0 -0.96c0,-1.62 -1.06,-2.42 -3.18,-2.42 -1.13,0 -2.19,0.33 -3.16,0.98l0 -1.4c0.95,-0.59 2.1,-0.88 3.46,-0.88 1.32,0 2.37,0.31 3.15,0.93 0.78,0.62 1.17,1.51 1.17,2.65l0 3.99c0,0.37 0.08,0.67 0.25,0.88 0.17,0.21 0.39,0.32 0.67,0.32 0.21,0 0.4,-0.04 0.56,-0.12l0 1.12c-0.21,0.15 -0.53,0.22 -0.96,0.22 -0.48,0 -0.88,-0.13 -1.21,-0.39 -0.33,-0.26 -0.53,-0.64 -0.61,-1.15 -0.97,1.13 -2.28,1.7 -3.9,1.7zm11.25 0c-0.67,0 -1.2,-0.19 -1.61,-0.58 -0.41,-0.39 -0.61,-0.99 -0.61,-1.8l0 -11.88 1.44 0 0 11.53c0,0.95 0.42,1.42 1.26,1.42 0.33,0 0.65,-0.09 0.94,-0.26l0 1.28c-0.35,0.19 -0.82,0.28 -1.42,0.28zm6.91 0c-0.77,0 -1.53,-0.1 -2.27,-0.29 -0.74,-0.19 -1.32,-0.43 -1.73,-0.71l0 -1.48c1.18,0.79 2.5,1.18 3.97,1.18 0.83,0 1.48,-0.14 1.95,-0.41 0.47,-0.27 0.71,-0.65 0.71,-1.13 0,-0.41 -0.23,-0.75 -0.68,-1.02 -0.13,-0.11 -0.47,-0.23 -1.02,-0.36 -0.16,-0.05 -0.38,-0.11 -0.66,-0.16 -0.36,-0.09 -0.58,-0.15 -0.66,-0.16 -1.21,-0.31 -2.08,-0.67 -2.6,-1.09 -0.52,-0.42 -0.78,-1.03 -0.78,-1.83 0,-0.84 0.34,-1.5 1.02,-1.97 0.68,-0.47 1.63,-0.71 2.86,-0.71 1.46,0 2.63,0.29 3.53,0.86l0 1.42c-1.09,-0.65 -2.25,-0.98 -3.46,-0.98 -0.81,0 -1.43,0.13 -1.85,0.38 -0.42,0.25 -0.63,0.6 -0.63,1.04 0,0.48 0.25,0.84 0.74,1.08 0.09,0.03 0.21,0.07 0.35,0.13 0.14,0.06 0.28,0.11 0.43,0.15l0.44 0.12c0.32,0.11 0.64,0.18 0.96,0.22 1.2,0.29 2.09,0.65 2.65,1.08 0.57,0.43 0.85,1.03 0.85,1.82 0,0.88 -0.39,1.57 -1.16,2.06 -0.77,0.51 -1.76,0.76 -2.94,0.76z"/>
  <path class="fil4" d="M655.09 530.33l-8.14 0 0 -23.08 8.14 0c3.69,0 6.71,1.08 9.07,3.23 2.35,2.15 3.53,4.92 3.53,8.31 0,3.41 -1.18,6.19 -3.53,8.34 -2.33,2.13 -5.35,3.2 -9.07,3.2zm-4.52 -19.75l0 16.42 4.19 0c2.9,0 5.15,-0.74 6.76,-2.21 1.63,-1.49 2.44,-3.49 2.44,-6 0,-2.51 -0.81,-4.51 -2.44,-6 -1.6,-1.47 -3.86,-2.21 -6.76,-2.21l-4.19 0zm23.74 19.75l-3.86 0 10.09 -23.21 3.49 0 10.09 23.21 -3.89 0 -2.51 -5.74 -10.95 0 -2.47 5.74zm7.95 -18.63l-4.22 9.69 8.44 0 -4.22 -9.69zm25.68 18.63l-3.63 0 0 -10.45 -8.94 -12.63 4.22 0 6.59 9.33 6.59 -9.33 4.09 0 -8.94 12.53 0 10.55zm26.31 0.43c-2.48,0 -4.65,-0.53 -6.5,-1.58l0 -3.4c1.89,1.17 4,1.75 6.33,1.75 1.65,0 3.04,-0.42 4.19,-1.25 1.14,-0.86 1.71,-1.99 1.71,-3.4 0,-1.34 -0.53,-2.44 -1.6,-3.3 -1.07,-0.86 -2.47,-1.29 -4.2,-1.29 -1.78,0 -3.63,0.33 -5.54,0.99l1.52 -12.03 11.87 0 0 3.17 -9.23 0 -0.66 5.31c0.9,-0.24 1.87,-0.36 2.9,-0.36 2.48,0 4.54,0.69 6.17,2.08 1.63,1.39 2.44,3.2 2.44,5.44 0,2.42 -0.9,4.33 -2.7,5.74 -1.8,1.43 -4.03,2.14 -6.69,2.14z"/>
  <path class="fil4" d="M591.76 554.04l0 -5.89 1.44 0 0 14.02 -1.44 0 0 -1.54c-0.91,1.19 -2.16,1.78 -3.75,1.78 -1.43,0 -2.6,-0.49 -3.5,-1.48 -0.91,-0.99 -1.36,-2.18 -1.36,-3.58 0,-1.41 0.45,-2.62 1.36,-3.6 0.91,-0.99 2.08,-1.48 3.5,-1.48 1.59,0 2.84,0.59 3.75,1.78zm0 4.89l0 -3.18c-0.28,-0.64 -0.73,-1.17 -1.36,-1.57 -0.63,-0.41 -1.31,-0.61 -2.04,-0.61 -1.08,0 -1.97,0.37 -2.66,1.1 -0.71,0.73 -1.06,1.63 -1.06,2.68 0,1.06 0.35,1.95 1.06,2.68 0.71,0.72 1.6,1.08 2.66,1.08 0.72,0 1.4,-0.2 2.02,-0.61 0.63,-0.41 1.09,-0.93 1.38,-1.57zm6.29 3.24l-1.44 0 0 -9.67 1.44 0 0 1.84c0.36,-0.63 0.89,-1.13 1.6,-1.51 0.71,-0.38 1.45,-0.57 2.24,-0.57l0 1.46c-0.44,0 -0.84,0.06 -1.2,0.18 -0.61,0.16 -1.16,0.44 -1.62,0.83 -0.47,0.39 -0.81,0.84 -1.02,1.33l0 6.11zm10.57 0.24c-1.51,0 -2.78,-0.47 -3.8,-1.42 -1.01,-0.93 -1.52,-2.15 -1.52,-3.65 0,-1.44 0.45,-2.65 1.36,-3.62 0.92,-0.97 2.1,-1.46 3.55,-1.46 0.77,0 1.46,0.16 2.06,0.47 0.6,0.31 1.07,0.72 1.42,1.23 0.35,0.51 0.61,1.04 0.78,1.61 0.17,0.57 0.26,1.14 0.26,1.71l0 0.4 -7.95 0c0.08,1.04 0.5,1.87 1.25,2.49 0.75,0.62 1.71,0.93 2.87,0.93 1.12,0 2.16,-0.3 3.1,-0.9l0 1.28c-0.79,0.61 -1.92,0.92 -3.38,0.92zm-3.82 -5.91l6.47 0c-0.04,-0.75 -0.32,-1.42 -0.84,-2.02 -0.49,-0.61 -1.26,-0.92 -2.28,-0.92 -0.96,0 -1.75,0.29 -2.36,0.88 -0.6,0.6 -0.93,1.29 -0.98,2.06zm13.9 4.61c0.67,0 1.3,-0.15 1.9,-0.46 0.6,-0.31 1.09,-0.69 1.46,-1.16l0 -1.34c-0.99,-0.64 -2.04,-0.96 -3.14,-0.96 -0.88,0 -1.58,0.17 -2.09,0.52 -0.51,0.35 -0.77,0.82 -0.77,1.42 0,0.63 0.25,1.11 0.74,1.46 0.49,0.35 1.13,0.52 1.9,0.52zm-0.4 1.3c-1.03,0 -1.9,-0.28 -2.62,-0.84 -0.71,-0.59 -1.06,-1.38 -1.06,-2.36 0,-0.97 0.37,-1.76 1.12,-2.34 0.75,-0.57 1.7,-0.86 2.84,-0.86 1.25,0 2.42,0.31 3.48,0.94l0 -0.96c0,-1.62 -1.06,-2.42 -3.18,-2.42 -1.13,0 -2.19,0.33 -3.16,0.98l0 -1.4c0.95,-0.59 2.1,-0.88 3.46,-0.88 1.32,0 2.37,0.31 3.15,0.93 0.78,0.62 1.17,1.51 1.17,2.65l0 3.99c0,0.37 0.08,0.67 0.25,0.88 0.17,0.21 0.39,0.32 0.67,0.32 0.21,0 0.4,-0.04 0.56,-0.12l0 1.12c-0.21,0.15 -0.53,0.22 -0.96,0.22 -0.48,0 -0.88,-0.13 -1.21,-0.39 -0.33,-0.26 -0.53,-0.64 -0.61,-1.15 -0.97,1.13 -2.28,1.7 -3.9,1.7zm10.47 -0.24l-1.44 0 0 -9.67 1.44 0 0 1.44c0.8,-1.12 1.96,-1.68 3.48,-1.68 0.79,0 1.45,0.17 1.99,0.5 0.54,0.33 0.91,0.8 1.11,1.4 0.37,-0.57 0.88,-1.04 1.53,-1.38 0.65,-0.35 1.38,-0.52 2.19,-0.52 1.08,0 1.92,0.34 2.52,1.01 0.6,0.67 0.9,1.63 0.9,2.87l0 6.03 -1.44 0 0 -5.71c0,-1.9 -0.8,-2.84 -2.4,-2.84 -0.59,0 -1.17,0.2 -1.75,0.61 -0.58,0.41 -1.02,0.9 -1.31,1.47 0,0.13 0,0.29 0.01,0.46 0.01,0.17 0.01,0.31 0.02,0.4 0.01,0.09 0.01,0.17 0.01,0.22l0 5.39 -1.44 0 0 -5.71c0,-1.9 -0.8,-2.84 -2.4,-2.84 -0.56,0 -1.13,0.2 -1.72,0.6 -0.56,0.37 -0.99,0.84 -1.3,1.4l0 6.55zm25.51 -1.06c0.67,0 1.3,-0.15 1.9,-0.46 0.6,-0.31 1.09,-0.69 1.46,-1.16l0 -1.34c-0.99,-0.64 -2.04,-0.96 -3.14,-0.96 -0.88,0 -1.58,0.17 -2.09,0.52 -0.51,0.35 -0.77,0.82 -0.77,1.42 0,0.63 0.25,1.11 0.74,1.46 0.49,0.35 1.13,0.52 1.9,0.52zm-0.4 1.3c-1.03,0 -1.9,-0.28 -2.62,-0.84 -0.71,-0.59 -1.06,-1.38 -1.06,-2.36 0,-0.97 0.37,-1.76 1.12,-2.34 0.75,-0.57 1.7,-0.86 2.84,-0.86 1.25,0 2.42,0.31 3.48,0.94l0 -0.96c0,-1.62 -1.06,-2.42 -3.18,-2.42 -1.13,0 -2.19,0.33 -3.16,0.98l0 -1.4c0.95,-0.59 2.1,-0.88 3.46,-0.88 1.32,0 2.37,0.31 3.15,0.93 0.78,0.62 1.17,1.51 1.17,2.65l0 3.99c0,0.37 0.08,0.67 0.25,0.88 0.17,0.21 0.39,0.32 0.67,0.32 0.21,0 0.4,-0.04 0.56,-0.12l0 1.12c-0.21,0.15 -0.53,0.22 -0.96,0.22 -0.48,0 -0.88,-0.13 -1.21,-0.39 -0.33,-0.26 -0.53,-0.64 -0.61,-1.15 -0.97,1.13 -2.28,1.7 -3.9,1.7zm9.03 -0.24l0 -14.02 1.44 0 0 5.89c0.91,-1.19 2.16,-1.78 3.75,-1.78 1.43,0 2.6,0.49 3.5,1.48 0.91,0.99 1.36,2.19 1.36,3.6 0,1.4 -0.45,2.6 -1.36,3.58 -0.91,0.99 -2.08,1.48 -3.5,1.48 -1.59,0 -2.84,-0.59 -3.75,-1.78l0 1.54 -1.44 0zm1.44 -6.43l0 3.18c0.29,0.64 0.75,1.16 1.38,1.57 0.63,0.41 1.3,0.61 2.02,0.61 1.08,0 1.97,-0.36 2.66,-1.08 0.71,-0.73 1.06,-1.63 1.06,-2.68 0,-1.05 -0.35,-1.95 -1.06,-2.68 -0.69,-0.73 -1.58,-1.1 -2.66,-1.1 -0.73,0 -1.41,0.2 -2.04,0.61 -0.63,0.41 -1.08,0.93 -1.36,1.57zm12.06 -1.98c0.97,-1 2.23,-1.5 3.77,-1.5 1.54,0 2.79,0.5 3.77,1.5 0.97,0.97 1.46,2.17 1.46,3.58 0,1.42 -0.49,2.61 -1.46,3.58 -0.99,0.99 -2.24,1.48 -3.77,1.48 -1.52,0 -2.78,-0.49 -3.77,-1.48 -0.97,-0.97 -1.46,-2.17 -1.46,-3.58 0,-1.41 0.49,-2.61 1.46,-3.58zm7.51 3.58c0,-1.07 -0.35,-1.97 -1.06,-2.7 -0.71,-0.72 -1.6,-1.08 -2.68,-1.08 -1.08,0 -1.98,0.36 -2.68,1.08 -0.71,0.73 -1.06,1.63 -1.06,2.7 0,1.06 0.35,1.95 1.06,2.68 0.71,0.72 1.6,1.08 2.68,1.08 1.08,0 1.98,-0.36 2.68,-1.08 0.71,-0.73 1.06,-1.63 1.06,-2.68zm11.55 1.68l0 -6.53 1.44 0 0 9.67 -1.44 0 0 -1.48c-1.03,1.15 -2.32,1.72 -3.87,1.72 -1.19,0 -2.1,-0.35 -2.73,-1.05 -0.63,-0.7 -0.95,-1.69 -0.95,-2.97l0 -5.89 1.44 0 0 5.57c0,1.99 0.91,2.98 2.74,2.98 0.67,0 1.31,-0.2 1.92,-0.6 0.65,-0.43 1.13,-0.9 1.44,-1.42zm8.69 3.38c-0.89,0 -1.57,-0.26 -2.03,-0.79 -0.46,-0.53 -0.69,-1.26 -0.69,-2.19l0 -5.67 -2.28 0 0 -1.26 2.28 0 0 -2.98 1.44 0 0 2.98 3.38 0 0 1.26 -3.38 0 0 5.23c0,0.77 0.13,1.31 0.38,1.6 0.27,0.31 0.7,0.46 1.3,0.46 0.59,0 1.11,-0.13 1.58,-0.4l0 1.32c-0.41,0.29 -1.07,0.44 -1.98,0.44zm8.87 3.85c-0.72,0 -1.29,-0.12 -1.7,-0.36l0 -1.32c0.43,0.25 0.89,0.38 1.4,0.38 1.14,0 1.7,-0.65 1.7,-1.94l0 -10.51 1.44 0 0 10.73c0,1 -0.25,1.76 -0.76,2.26 -0.51,0.51 -1.2,0.76 -2.08,0.76zm1.4 -16.36c-0.19,-0.2 -0.28,-0.44 -0.28,-0.72 0,-0.28 0.09,-0.52 0.28,-0.72 0.2,-0.2 0.44,-0.3 0.72,-0.3 0.28,0 0.52,0.1 0.72,0.3 0.2,0.2 0.3,0.44 0.3,0.72 0,0.28 -0.1,0.52 -0.3,0.72 -0.2,0.19 -0.44,0.28 -0.72,0.28 -0.28,0 -0.52,-0.09 -0.72,-0.28zm12.5 9.13l0 -6.53 1.44 0 0 9.67 -1.44 0 0 -1.48c-1.03,1.15 -2.32,1.72 -3.87,1.72 -1.19,0 -2.1,-0.35 -2.73,-1.05 -0.63,-0.7 -0.95,-1.69 -0.95,-2.97l0 -5.89 1.44 0 0 5.57c0,1.99 0.91,2.98 2.74,2.98 0.67,0 1.31,-0.2 1.92,-0.6 0.65,-0.43 1.13,-0.9 1.44,-1.42zm6.29 -3.38l0 6.53 -1.44 0 0 -9.67 1.44 0 0 1.48c1.03,-1.15 2.32,-1.72 3.87,-1.72 1.19,0 2.1,0.35 2.73,1.05 0.63,0.7 0.95,1.69 0.95,2.97l0 5.89 -1.44 0 0 -5.57c0,-1.99 -0.91,-2.98 -2.74,-2.98 -0.67,0 -1.31,0.21 -1.94,0.62 -0.64,0.41 -1.11,0.88 -1.42,1.4zm10.77 -7.49l1.44 0 0 8.33 4.61 -3.98 1.96 0 -5.11 4.36 5.83 5.31 -2.06 0 -5.23 -4.77 0 4.77 -1.44 0 0 -14.02zm18.32 5.61l0 8.41 -1.44 0 0 -8.41 -1.92 0 0 -1.26 1.92 0 0 -1.62c0,-0.89 0.24,-1.6 0.72,-2.11 0.48,-0.51 1.16,-0.77 2.04,-0.77 0.81,0 1.5,0.13 2.04,0.38l0 1.32c-0.64,-0.27 -1.2,-0.4 -1.68,-0.4 -1.12,0 -1.68,0.62 -1.68,1.86l0 1.34 3.36 0 0 1.26 -3.36 0zm6.39 0c0.97,-1 2.23,-1.5 3.77,-1.5 1.54,0 2.79,0.5 3.77,1.5 0.97,0.97 1.46,2.17 1.46,3.58 0,1.42 -0.49,2.61 -1.46,3.58 -0.99,0.99 -2.24,1.48 -3.77,1.48 -1.52,0 -2.78,-0.49 -3.77,-1.48 -0.97,-0.97 -1.46,-2.17 -1.46,-3.58 0,-1.41 0.49,-2.61 1.46,-3.58zm7.51 3.58c0,-1.07 -0.35,-1.97 -1.06,-2.7 -0.71,-0.72 -1.6,-1.08 -2.68,-1.08 -1.08,0 -1.98,0.36 -2.68,1.08 -0.71,0.73 -1.06,1.63 -1.06,2.7 0,1.06 0.35,1.95 1.06,2.68 0.71,0.72 1.6,1.08 2.68,1.08 1.08,0 1.98,-0.36 2.68,-1.08 0.71,-0.73 1.06,-1.63 1.06,-2.68zm4.93 -3.58c0.97,-1 2.23,-1.5 3.77,-1.5 1.54,0 2.79,0.5 3.77,1.5 0.97,0.97 1.46,2.17 1.46,3.58 0,1.42 -0.49,2.61 -1.46,3.58 -0.99,0.99 -2.24,1.48 -3.77,1.48 -1.52,0 -2.78,-0.49 -3.77,-1.48 -0.97,-0.97 -1.46,-2.17 -1.46,-3.58 0,-1.41 0.49,-2.61 1.46,-3.58zm7.51 3.58c0,-1.07 -0.35,-1.97 -1.06,-2.7 -0.71,-0.72 -1.6,-1.08 -2.68,-1.08 -1.08,0 -1.98,0.36 -2.68,1.08 -0.71,0.73 -1.06,1.63 -1.06,2.7 0,1.06 0.35,1.95 1.06,2.68 0.71,0.72 1.6,1.08 2.68,1.08 1.08,0 1.98,-0.36 2.68,-1.08 0.71,-0.73 1.06,-1.63 1.06,-2.68zm12.08 -3.3l0 -5.89 1.44 0 0 14.02 -1.44 0 0 -1.54c-0.91,1.19 -2.16,1.78 -3.75,1.78 -1.43,0 -2.6,-0.49 -3.5,-1.48 -0.91,-0.99 -1.36,-2.18 -1.36,-3.58 0,-1.41 0.45,-2.62 1.36,-3.6 0.91,-0.99 2.08,-1.48 3.5,-1.48 1.59,0 2.84,0.59 3.75,1.78zm0 4.89l0 -3.18c-0.28,-0.64 -0.73,-1.17 -1.36,-1.57 -0.63,-0.41 -1.31,-0.61 -2.04,-0.61 -1.08,0 -1.97,0.37 -2.66,1.1 -0.71,0.73 -1.06,1.63 -1.06,2.68 0,1.06 0.35,1.95 1.06,2.68 0.71,0.72 1.6,1.08 2.66,1.08 0.72,0 1.4,-0.2 2.02,-0.61 0.63,-0.41 1.09,-0.93 1.38,-1.57zm4.61 6.29l-1.16 0 1.6 -5.11 1.68 0 -2.12 5.11zm-205.6 22.15l0 -14.02 1.44 0 0 5.89c0.91,-1.19 2.16,-1.78 3.75,-1.78 1.43,0 2.6,0.49 3.5,1.48 0.91,0.99 1.36,2.19 1.36,3.6 0,1.4 -0.45,2.6 -1.36,3.58 -0.91,0.99 -2.08,1.48 -3.5,1.48 -1.59,0 -2.84,-0.59 -3.75,-1.78l0 1.54 -1.44 0zm1.44 -6.43l0 3.18c0.29,0.64 0.75,1.16 1.38,1.57 0.63,0.41 1.3,0.61 2.02,0.61 1.08,0 1.97,-0.36 2.66,-1.08 0.71,-0.73 1.06,-1.63 1.06,-2.68 0,-1.05 -0.35,-1.95 -1.06,-2.68 -0.69,-0.73 -1.58,-1.1 -2.66,-1.1 -0.73,0 -1.41,0.2 -2.04,0.61 -0.63,0.41 -1.08,0.93 -1.36,1.57zm18.68 3.28l0 -6.53 1.44 0 0 9.67 -1.44 0 0 -1.48c-1.03,1.15 -2.32,1.72 -3.87,1.72 -1.19,0 -2.1,-0.35 -2.73,-1.05 -0.63,-0.7 -0.95,-1.69 -0.95,-2.97l0 -5.89 1.44 0 0 5.57c0,1.99 0.91,2.98 2.74,2.98 0.67,0 1.31,-0.2 1.92,-0.6 0.65,-0.43 1.13,-0.9 1.44,-1.42zm8.69 3.38c-0.89,0 -1.57,-0.26 -2.03,-0.79 -0.46,-0.53 -0.69,-1.26 -0.69,-2.19l0 -5.67 -2.28 0 0 -1.26 2.28 0 0 -2.98 1.44 0 0 2.98 3.38 0 0 1.26 -3.38 0 0 5.23c0,0.77 0.13,1.31 0.38,1.6 0.27,0.31 0.7,0.46 1.3,0.46 0.59,0 1.11,-0.13 1.58,-0.4l0 1.32c-0.41,0.29 -1.07,0.44 -1.98,0.44zm10.05 -14.26l1.44 0 0 8.33 4.61 -3.98 1.96 0 -5.11 4.36 5.83 5.31 -2.06 0 -5.23 -4.77 0 4.77 -1.44 0 0 -14.02zm15.46 14.26c-1.51,0 -2.78,-0.47 -3.8,-1.42 -1.01,-0.93 -1.52,-2.15 -1.52,-3.65 0,-1.44 0.45,-2.65 1.36,-3.62 0.92,-0.97 2.1,-1.46 3.55,-1.46 0.77,0 1.46,0.16 2.06,0.47 0.6,0.31 1.07,0.72 1.42,1.23 0.35,0.51 0.61,1.04 0.78,1.61 0.17,0.57 0.26,1.14 0.26,1.71l0 0.4 -7.95 0c0.08,1.04 0.5,1.87 1.25,2.49 0.75,0.62 1.71,0.93 2.87,0.93 1.12,0 2.16,-0.3 3.1,-0.9l0 1.28c-0.79,0.61 -1.92,0.92 -3.38,0.92zm-3.82 -5.91l6.47 0c-0.04,-0.75 -0.32,-1.42 -0.84,-2.02 -0.49,-0.61 -1.26,-0.92 -2.28,-0.92 -0.96,0 -1.75,0.29 -2.36,0.88 -0.6,0.6 -0.93,1.29 -0.98,2.06zm15.26 5.91c-1.51,0 -2.78,-0.47 -3.8,-1.42 -1.01,-0.93 -1.52,-2.15 -1.52,-3.65 0,-1.44 0.45,-2.65 1.36,-3.62 0.92,-0.97 2.1,-1.46 3.55,-1.46 0.77,0 1.46,0.16 2.06,0.47 0.6,0.31 1.07,0.72 1.42,1.23 0.35,0.51 0.61,1.04 0.78,1.61 0.17,0.57 0.26,1.14 0.26,1.71l0 0.4 -7.95 0c0.08,1.04 0.5,1.87 1.25,2.49 0.75,0.62 1.71,0.93 2.87,0.93 1.12,0 2.16,-0.3 3.1,-0.9l0 1.28c-0.79,0.61 -1.92,0.92 -3.38,0.92zm-3.82 -5.91l6.47 0c-0.04,-0.75 -0.32,-1.42 -0.84,-2.02 -0.49,-0.61 -1.26,-0.92 -2.28,-0.92 -0.96,0 -1.75,0.29 -2.36,0.88 -0.6,0.6 -0.93,1.29 -0.98,2.06zm12.08 4.12l0 5.55 -1.44 0 0 -13.68 1.44 0 0 1.54c0.91,-1.19 2.16,-1.78 3.75,-1.78 1.43,0 2.6,0.49 3.5,1.48 0.91,0.99 1.36,2.18 1.36,3.58 0,1.41 -0.45,2.62 -1.36,3.6 -0.91,0.99 -2.08,1.48 -3.5,1.48 -1.59,0 -2.84,-0.59 -3.75,-1.78zm0 -4.89l0 3.18c0.28,0.64 0.73,1.16 1.36,1.57 0.63,0.41 1.31,0.61 2.04,0.61 1.08,0 1.97,-0.36 2.66,-1.08 0.71,-0.75 1.06,-1.65 1.06,-2.7 0,-1.05 -0.35,-1.95 -1.06,-2.68 -0.69,-0.72 -1.58,-1.08 -2.66,-1.08 -0.72,0 -1.4,0.2 -2.02,0.61 -0.63,0.41 -1.09,0.93 -1.38,1.57zm18.24 6.43l-1.44 0 0 -9.67 1.44 0 0 9.67zm-1.44 -12.28c-0.19,-0.2 -0.28,-0.44 -0.28,-0.72 0,-0.28 0.09,-0.52 0.28,-0.72 0.2,-0.2 0.44,-0.3 0.72,-0.3 0.28,0 0.52,0.1 0.72,0.3 0.2,0.2 0.3,0.44 0.3,0.72 0,0.28 -0.1,0.52 -0.3,0.72 -0.2,0.19 -0.44,0.28 -0.72,0.28 -0.28,0 -0.52,-0.09 -0.72,-0.28zm8.95 12.52c-0.89,0 -1.57,-0.26 -2.03,-0.79 -0.46,-0.53 -0.69,-1.26 -0.69,-2.19l0 -5.67 -2.28 0 0 -1.26 2.28 0 0 -2.98 1.44 0 0 2.98 3.38 0 0 1.26 -3.38 0 0 5.23c0,0.77 0.13,1.31 0.38,1.6 0.27,0.31 0.7,0.46 1.3,0.46 0.59,0 1.11,-0.13 1.58,-0.4l0 1.32c-0.41,0.29 -1.07,0.44 -1.98,0.44zm13.9 0c-0.89,0 -1.57,-0.26 -2.03,-0.79 -0.46,-0.53 -0.69,-1.26 -0.69,-2.19l0 -5.67 -2.28 0 0 -1.26 2.28 0 0 -2.98 1.44 0 0 2.98 3.38 0 0 1.26 -3.38 0 0 5.23c0,0.77 0.13,1.31 0.38,1.6 0.27,0.31 0.7,0.46 1.3,0.46 0.59,0 1.11,-0.13 1.58,-0.4l0 1.32c-0.41,0.29 -1.07,0.44 -1.98,0.44zm5.53 -8.65c0.97,-1 2.23,-1.5 3.77,-1.5 1.54,0 2.79,0.5 3.77,1.5 0.97,0.97 1.46,2.17 1.46,3.58 0,1.42 -0.49,2.61 -1.46,3.58 -0.99,0.99 -2.24,1.48 -3.77,1.48 -1.52,0 -2.78,-0.49 -3.77,-1.48 -0.97,-0.97 -1.46,-2.17 -1.46,-3.58 0,-1.41 0.49,-2.61 1.46,-3.58zm7.51 3.58c0,-1.07 -0.35,-1.97 -1.06,-2.7 -0.71,-0.72 -1.6,-1.08 -2.68,-1.08 -1.08,0 -1.98,0.36 -2.68,1.08 -0.71,0.73 -1.06,1.63 -1.06,2.7 0,1.06 0.35,1.95 1.06,2.68 0.71,0.72 1.6,1.08 2.68,1.08 1.08,0 1.98,-0.36 2.68,-1.08 0.71,-0.73 1.06,-1.63 1.06,-2.68zm12.08 4.21l0 -1.02c-0.87,1.15 -2.12,1.72 -3.75,1.72 -1.43,0 -2.6,-0.48 -3.5,-1.44 -0.91,-0.99 -1.36,-2.17 -1.36,-3.54 0,-1.38 0.45,-2.56 1.36,-3.55 0.89,-0.97 2.06,-1.46 3.5,-1.46 1.66,0 2.9,0.57 3.75,1.72l0 -1.48 1.44 0 0 9.05c0,1.52 -0.5,2.68 -1.5,3.48 -0.97,0.82 -2.22,1.22 -3.74,1.22 -1.47,0 -2.72,-0.29 -3.75,-0.88l0 -1.4c1.09,0.65 2.3,0.98 3.6,0.98 1.2,0 2.16,-0.29 2.87,-0.86 0.71,-0.57 1.07,-1.42 1.07,-2.54zm0 -2.72l0 -3.14c-0.27,-0.63 -0.71,-1.14 -1.34,-1.53 -0.63,-0.39 -1.31,-0.59 -2.06,-0.59 -1.07,0 -1.96,0.35 -2.66,1.06 -0.71,0.71 -1.06,1.59 -1.06,2.64 0,1.05 0.35,1.94 1.06,2.64 0.69,0.69 1.58,1.04 2.66,1.04 0.75,0 1.43,-0.2 2.06,-0.59 0.63,-0.39 1.07,-0.9 1.34,-1.53zm9.45 3.58c-1.51,0 -2.78,-0.47 -3.8,-1.42 -1.01,-0.93 -1.52,-2.15 -1.52,-3.65 0,-1.44 0.45,-2.65 1.36,-3.62 0.92,-0.97 2.1,-1.46 3.55,-1.46 0.77,0 1.46,0.16 2.06,0.47 0.6,0.31 1.07,0.72 1.42,1.23 0.35,0.51 0.61,1.04 0.78,1.61 0.17,0.57 0.26,1.14 0.26,1.71l0 0.4 -7.95 0c0.08,1.04 0.5,1.87 1.25,2.49 0.75,0.62 1.71,0.93 2.87,0.93 1.12,0 2.16,-0.3 3.1,-0.9l0 1.28c-0.79,0.61 -1.92,0.92 -3.38,0.92zm-3.82 -5.91l6.47 0c-0.04,-0.75 -0.32,-1.42 -0.84,-2.02 -0.49,-0.61 -1.26,-0.92 -2.28,-0.92 -0.96,0 -1.75,0.29 -2.36,0.88 -0.6,0.6 -0.93,1.29 -0.98,2.06zm14.48 5.91c-0.89,0 -1.57,-0.26 -2.03,-0.79 -0.46,-0.53 -0.69,-1.26 -0.69,-2.19l0 -5.67 -2.28 0 0 -1.26 2.28 0 0 -2.98 1.44 0 0 2.98 3.38 0 0 1.26 -3.38 0 0 5.23c0,0.77 0.13,1.31 0.38,1.6 0.27,0.31 0.7,0.46 1.3,0.46 0.59,0 1.11,-0.13 1.58,-0.4l0 1.32c-0.41,0.29 -1.07,0.44 -1.98,0.44zm6.21 -6.77l0 6.53 -1.44 0 0 -14.02 1.44 0 0 5.83c1.03,-1.15 2.32,-1.72 3.87,-1.72 1.19,0 2.1,0.35 2.73,1.05 0.63,0.7 0.95,1.69 0.95,2.97l0 5.89 -1.44 0 0 -5.57c0,-1.99 -0.91,-2.98 -2.74,-2.98 -0.67,0 -1.31,0.21 -1.94,0.62 -0.64,0.41 -1.11,0.88 -1.42,1.4zm15.4 6.77c-1.51,0 -2.78,-0.47 -3.8,-1.42 -1.01,-0.93 -1.52,-2.15 -1.52,-3.65 0,-1.44 0.45,-2.65 1.36,-3.62 0.92,-0.97 2.1,-1.46 3.55,-1.46 0.77,0 1.46,0.16 2.06,0.47 0.6,0.31 1.07,0.72 1.42,1.23 0.35,0.51 0.61,1.04 0.78,1.61 0.17,0.57 0.26,1.14 0.26,1.71l0 0.4 -7.95 0c0.08,1.04 0.5,1.87 1.25,2.49 0.75,0.62 1.71,0.93 2.87,0.93 1.12,0 2.16,-0.3 3.1,-0.9l0 1.28c-0.79,0.61 -1.92,0.92 -3.38,0.92zm-3.82 -5.91l6.47 0c-0.04,-0.75 -0.32,-1.42 -0.84,-2.02 -0.49,-0.61 -1.26,-0.92 -2.28,-0.92 -0.96,0 -1.75,0.29 -2.36,0.88 -0.6,0.6 -0.93,1.29 -0.98,2.06zm12.08 5.67l-1.44 0 0 -9.67 1.44 0 0 1.84c0.36,-0.63 0.89,-1.13 1.6,-1.51 0.71,-0.38 1.45,-0.57 2.24,-0.57l0 1.46c-0.44,0 -0.84,0.06 -1.2,0.18 -0.61,0.16 -1.16,0.44 -1.62,0.83 -0.47,0.39 -0.81,0.84 -1.02,1.33l0 6.11z"/>
  <path class="fil4" d="M160.17 530.53l-8.14 0 0 -23.08 8.14 0c3.69,0 6.71,1.08 9.07,3.23 2.35,2.15 3.53,4.92 3.53,8.31 0,3.41 -1.18,6.19 -3.53,8.34 -2.33,2.13 -5.35,3.2 -9.07,3.2zm-4.52 -19.75l0 16.42 4.19 0c2.9,0 5.15,-0.74 6.76,-2.21 1.63,-1.49 2.44,-3.49 2.44,-6 0,-2.51 -0.81,-4.51 -2.44,-6 -1.6,-1.47 -3.86,-2.21 -6.76,-2.21l-4.19 0zm23.74 19.75l-3.86 0 10.09 -23.21 3.49 0 10.09 23.21 -3.89 0 -2.51 -5.74 -10.95 0 -2.47 5.74zm7.95 -18.63l-4.22 9.69 8.44 0 -4.22 -9.69zm25.68 18.63l-3.63 0 0 -10.45 -8.94 -12.63 4.22 0 6.59 9.33 6.59 -9.33 4.09 0 -8.94 12.53 0 10.55zm24.89 0l-3.89 0 9.99 -19.82 -11.64 0 0 -3.26 15.76 0 0 2.8 -10.22 20.28z"/>
  <g id="_1923272566640">
   <path class="fil4" d="M114.9 557.75l0 6.53 -1.44 0 0 -14.02 1.44 0 0 5.83c1.03,-1.15 2.32,-1.72 3.87,-1.72 1.19,0 2.1,0.35 2.73,1.05 0.63,0.7 0.95,1.69 0.95,2.97l0 5.89 -1.44 0 0 -5.57c0,-1.99 -0.91,-2.98 -2.74,-2.98 -0.67,0 -1.31,0.21 -1.94,0.62 -0.64,0.41 -1.11,0.88 -1.42,1.4zm14.04 5.47c0.67,0 1.3,-0.15 1.9,-0.46 0.6,-0.31 1.09,-0.69 1.46,-1.16l0 -1.34c-0.99,-0.64 -2.04,-0.96 -3.14,-0.96 -0.88,0 -1.58,0.17 -2.09,0.52 -0.51,0.35 -0.77,0.82 -0.77,1.42 0,0.63 0.25,1.11 0.74,1.46 0.49,0.35 1.13,0.52 1.9,0.52zm-0.4 1.3c-1.03,0 -1.9,-0.28 -2.62,-0.84 -0.71,-0.59 -1.06,-1.38 -1.06,-2.36 0,-0.97 0.37,-1.76 1.12,-2.34 0.75,-0.57 1.7,-0.86 2.84,-0.86 1.25,0 2.42,0.31 3.48,0.94l0 -0.96c0,-1.62 -1.06,-2.42 -3.18,-2.42 -1.13,0 -2.19,0.33 -3.16,0.98l0 -1.4c0.95,-0.59 2.1,-0.88 3.46,-0.88 1.32,0 2.37,0.31 3.15,0.93 0.78,0.62 1.17,1.51 1.17,2.65l0 3.99c0,0.37 0.08,0.67 0.25,0.88 0.17,0.21 0.39,0.32 0.67,0.32 0.21,0 0.4,-0.04 0.56,-0.12l0 1.12c-0.21,0.15 -0.53,0.22 -0.96,0.22 -0.48,0 -0.88,-0.13 -1.21,-0.39 -0.33,-0.26 -0.53,-0.64 -0.61,-1.15 -0.97,1.13 -2.28,1.7 -3.9,1.7zm13.66 -0.18l-1.32 0 -4.45 -9.73 1.62 0 3.53 7.79 3.5 -7.79 1.56 0 -4.45 9.73zm11.35 0.18c-1.51,0 -2.78,-0.47 -3.8,-1.42 -1.01,-0.93 -1.52,-2.15 -1.52,-3.65 0,-1.44 0.45,-2.65 1.36,-3.62 0.92,-0.97 2.1,-1.46 3.55,-1.46 0.77,0 1.46,0.16 2.06,0.47 0.6,0.31 1.07,0.72 1.42,1.23 0.35,0.51 0.61,1.04 0.78,1.61 0.17,0.57 0.26,1.14 0.26,1.71l0 0.4 -7.95 0c0.08,1.04 0.5,1.87 1.25,2.49 0.75,0.62 1.71,0.93 2.87,0.93 1.12,0 2.16,-0.3 3.1,-0.9l0 1.28c-0.79,0.61 -1.92,0.92 -3.38,0.92zm-3.82 -5.91l6.47 0c-0.04,-0.75 -0.32,-1.42 -0.84,-2.02 -0.49,-0.61 -1.26,-0.92 -2.28,-0.92 -0.96,0 -1.75,0.29 -2.36,0.88 -0.6,0.6 -0.93,1.29 -0.98,2.06zm19.18 4.61c0.67,0 1.3,-0.15 1.9,-0.46 0.6,-0.31 1.09,-0.69 1.46,-1.16l0 -1.34c-0.99,-0.64 -2.04,-0.96 -3.14,-0.96 -0.88,0 -1.58,0.17 -2.09,0.52 -0.51,0.35 -0.77,0.82 -0.77,1.42 0,0.63 0.25,1.11 0.74,1.46 0.49,0.35 1.13,0.52 1.9,0.52zm-0.4 1.3c-1.03,0 -1.9,-0.28 -2.62,-0.84 -0.71,-0.59 -1.06,-1.38 -1.06,-2.36 0,-0.97 0.37,-1.76 1.12,-2.34 0.75,-0.57 1.7,-0.86 2.84,-0.86 1.25,0 2.42,0.31 3.48,0.94l0 -0.96c0,-1.62 -1.06,-2.42 -3.18,-2.42 -1.13,0 -2.19,0.33 -3.16,0.98l0 -1.4c0.95,-0.59 2.1,-0.88 3.46,-0.88 1.32,0 2.37,0.31 3.15,0.93 0.78,0.62 1.17,1.51 1.17,2.65l0 3.99c0,0.37 0.08,0.67 0.25,0.88 0.17,0.21 0.39,0.32 0.67,0.32 0.21,0 0.4,-0.04 0.56,-0.12l0 1.12c-0.21,0.15 -0.53,0.22 -0.96,0.22 -0.48,0 -0.88,-0.13 -1.21,-0.39 -0.33,-0.26 -0.53,-0.64 -0.61,-1.15 -0.97,1.13 -2.28,1.7 -3.9,1.7zm14.32 -0.24l0 -14.02 1.44 0 0 5.89c0.91,-1.19 2.16,-1.78 3.75,-1.78 1.43,0 2.6,0.49 3.5,1.48 0.91,0.99 1.36,2.19 1.36,3.6 0,1.4 -0.45,2.6 -1.36,3.58 -0.91,0.99 -2.08,1.48 -3.5,1.48 -1.59,0 -2.84,-0.59 -3.75,-1.78l0 1.54 -1.44 0zm1.44 -6.43l0 3.18c0.29,0.64 0.75,1.16 1.38,1.57 0.63,0.41 1.3,0.61 2.02,0.61 1.08,0 1.97,-0.36 2.66,-1.08 0.71,-0.73 1.06,-1.63 1.06,-2.68 0,-1.05 -0.35,-1.95 -1.06,-2.68 -0.69,-0.73 -1.58,-1.1 -2.66,-1.1 -0.73,0 -1.41,0.2 -2.04,0.61 -0.63,0.41 -1.08,0.93 -1.36,1.57zm12.74 6.43l-1.44 0 0 -9.67 1.44 0 0 1.84c0.36,-0.63 0.89,-1.13 1.6,-1.51 0.71,-0.38 1.45,-0.57 2.24,-0.57l0 1.46c-0.44,0 -0.84,0.06 -1.2,0.18 -0.61,0.16 -1.16,0.44 -1.62,0.83 -0.47,0.39 -0.81,0.84 -1.02,1.33l0 6.11zm10.57 0.24c-1.51,0 -2.78,-0.47 -3.8,-1.42 -1.01,-0.93 -1.52,-2.15 -1.52,-3.65 0,-1.44 0.45,-2.65 1.36,-3.62 0.92,-0.97 2.1,-1.46 3.55,-1.46 0.77,0 1.46,0.16 2.06,0.47 0.6,0.31 1.07,0.72 1.42,1.23 0.35,0.51 0.61,1.04 0.78,1.61 0.17,0.57 0.26,1.14 0.26,1.71l0 0.4 -7.95 0c0.08,1.04 0.5,1.87 1.25,2.49 0.75,0.62 1.71,0.93 2.87,0.93 1.12,0 2.16,-0.3 3.1,-0.9l0 1.28c-0.79,0.61 -1.92,0.92 -3.38,0.92zm-3.82 -5.91l6.47 0c-0.04,-0.75 -0.32,-1.42 -0.84,-2.02 -0.49,-0.61 -1.26,-0.92 -2.28,-0.92 -0.96,0 -1.75,0.29 -2.36,0.88 -0.6,0.6 -0.93,1.29 -0.98,2.06zm13.9 4.61c0.67,0 1.3,-0.15 1.9,-0.46 0.6,-0.31 1.09,-0.69 1.46,-1.16l0 -1.34c-0.99,-0.64 -2.04,-0.96 -3.14,-0.96 -0.88,0 -1.58,0.17 -2.09,0.52 -0.51,0.35 -0.77,0.82 -0.77,1.42 0,0.63 0.25,1.11 0.74,1.46 0.49,0.35 1.13,0.52 1.9,0.52zm-0.4 1.3c-1.03,0 -1.9,-0.28 -2.62,-0.84 -0.71,-0.59 -1.06,-1.38 -1.06,-2.36 0,-0.97 0.37,-1.76 1.12,-2.34 0.75,-0.57 1.7,-0.86 2.84,-0.86 1.25,0 2.42,0.31 3.48,0.94l0 -0.96c0,-1.62 -1.06,-2.42 -3.18,-2.42 -1.13,0 -2.19,0.33 -3.16,0.98l0 -1.4c0.95,-0.59 2.1,-0.88 3.46,-0.88 1.32,0 2.37,0.31 3.15,0.93 0.78,0.62 1.17,1.51 1.17,2.65l0 3.99c0,0.37 0.08,0.67 0.25,0.88 0.17,0.21 0.39,0.32 0.67,0.32 0.21,0 0.4,-0.04 0.56,-0.12l0 1.12c-0.21,0.15 -0.53,0.22 -0.96,0.22 -0.48,0 -0.88,-0.13 -1.21,-0.39 -0.33,-0.26 -0.53,-0.64 -0.61,-1.15 -0.97,1.13 -2.28,1.7 -3.9,1.7zm9.03 -14.26l1.44 0 0 8.33 4.61 -3.98 1.96 0 -5.11 4.36 5.83 5.31 -2.06 0 -5.23 -4.77 0 4.77 -1.44 0 0 -14.02zm18.74 5.89l0 -5.89 1.44 0 0 14.02 -1.44 0 0 -1.54c-0.91,1.19 -2.16,1.78 -3.75,1.78 -1.43,0 -2.6,-0.49 -3.5,-1.48 -0.91,-0.99 -1.36,-2.18 -1.36,-3.58 0,-1.41 0.45,-2.62 1.36,-3.6 0.91,-0.99 2.08,-1.48 3.5,-1.48 1.59,0 2.84,0.59 3.75,1.78zm0 4.89l0 -3.18c-0.28,-0.64 -0.73,-1.17 -1.36,-1.57 -0.63,-0.41 -1.31,-0.61 -2.04,-0.61 -1.08,0 -1.97,0.37 -2.66,1.1 -0.71,0.73 -1.06,1.63 -1.06,2.68 0,1.06 0.35,1.95 1.06,2.68 0.71,0.72 1.6,1.08 2.66,1.08 0.72,0 1.4,-0.2 2.02,-0.61 0.63,-0.41 1.09,-0.93 1.38,-1.57zm5.61 -5.17c0.97,-1 2.23,-1.5 3.77,-1.5 1.54,0 2.79,0.5 3.77,1.5 0.97,0.97 1.46,2.17 1.46,3.58 0,1.42 -0.49,2.61 -1.46,3.58 -0.99,0.99 -2.24,1.48 -3.77,1.48 -1.52,0 -2.78,-0.49 -3.77,-1.48 -0.97,-0.97 -1.46,-2.17 -1.46,-3.58 0,-1.41 0.49,-2.61 1.46,-3.58zm7.51 3.58c0,-1.07 -0.35,-1.97 -1.06,-2.7 -0.71,-0.72 -1.6,-1.08 -2.68,-1.08 -1.08,0 -1.98,0.36 -2.68,1.08 -0.71,0.73 -1.06,1.63 -1.06,2.7 0,1.06 0.35,1.95 1.06,2.68 0.71,0.72 1.6,1.08 2.68,1.08 1.08,0 1.98,-0.36 2.68,-1.08 0.71,-0.73 1.06,-1.63 1.06,-2.68zm7.95 4.89l-1.26 0 -3.46 -9.73 1.48 0 2.7 7.53 2.64 -7.57 1.22 0 2.66 7.57 2.68 -7.53 1.46 0 -3.46 9.73 -1.26 0 -2.72 -7.59 -2.68 7.59zm14.06 -6.59l0 6.53 -1.44 0 0 -9.67 1.44 0 0 1.48c1.03,-1.15 2.32,-1.72 3.87,-1.72 1.19,0 2.1,0.35 2.73,1.05 0.63,0.7 0.95,1.69 0.95,2.97l0 5.89 -1.44 0 0 -5.57c0,-1.99 -0.91,-2.98 -2.74,-2.98 -0.67,0 -1.31,0.21 -1.94,0.62 -0.64,0.41 -1.11,0.88 -1.42,1.4zm-244.57 30.66c0.67,0 1.3,-0.15 1.9,-0.46 0.6,-0.31 1.09,-0.69 1.46,-1.16l0 -1.34c-0.99,-0.64 -2.04,-0.96 -3.14,-0.96 -0.88,0 -1.58,0.17 -2.09,0.52 -0.51,0.35 -0.77,0.82 -0.77,1.42 0,0.63 0.25,1.11 0.74,1.46 0.49,0.35 1.13,0.52 1.9,0.52zm-0.4 1.3c-1.03,0 -1.9,-0.28 -2.62,-0.84 -0.71,-0.59 -1.06,-1.38 -1.06,-2.36 0,-0.97 0.37,-1.76 1.12,-2.34 0.75,-0.57 1.7,-0.86 2.84,-0.86 1.25,0 2.42,0.31 3.48,0.94l0 -0.96c0,-1.62 -1.06,-2.42 -3.18,-2.42 -1.13,0 -2.19,0.33 -3.16,0.98l0 -1.4c0.95,-0.59 2.1,-0.88 3.46,-0.88 1.32,0 2.37,0.31 3.15,0.93 0.78,0.62 1.17,1.51 1.17,2.65l0 3.99c0,0.37 0.08,0.67 0.25,0.88 0.17,0.21 0.39,0.32 0.67,0.32 0.21,0 0.4,-0.04 0.56,-0.12l0 1.12c-0.21,0.15 -0.53,0.22 -0.96,0.22 -0.48,0 -0.88,-0.13 -1.21,-0.39 -0.33,-0.26 -0.53,-0.64 -0.61,-1.15 -0.97,1.13 -2.28,1.7 -3.9,1.7zm10.47 -6.77l0 6.53 -1.44 0 0 -9.67 1.44 0 0 1.48c1.03,-1.15 2.32,-1.72 3.87,-1.72 1.19,0 2.1,0.35 2.73,1.05 0.63,0.7 0.95,1.69 0.95,2.97l0 5.89 -1.44 0 0 -5.57c0,-1.99 -0.91,-2.98 -2.74,-2.98 -0.67,0 -1.31,0.21 -1.94,0.62 -0.64,0.41 -1.11,0.88 -1.42,1.4zm18.68 -1.6l0 -5.89 1.44 0 0 14.02 -1.44 0 0 -1.54c-0.91,1.19 -2.16,1.78 -3.75,1.78 -1.43,0 -2.6,-0.49 -3.5,-1.48 -0.91,-0.99 -1.36,-2.18 -1.36,-3.58 0,-1.41 0.45,-2.62 1.36,-3.6 0.91,-0.99 2.08,-1.48 3.5,-1.48 1.59,0 2.84,0.59 3.75,1.78zm0 4.89l0 -3.18c-0.28,-0.64 -0.73,-1.17 -1.36,-1.57 -0.63,-0.41 -1.31,-0.61 -2.04,-0.61 -1.08,0 -1.97,0.37 -2.66,1.1 -0.71,0.73 -1.06,1.63 -1.06,2.68 0,1.06 0.35,1.95 1.06,2.68 0.71,0.72 1.6,1.08 2.66,1.08 0.72,0 1.4,-0.2 2.02,-0.61 0.63,-0.41 1.09,-0.93 1.38,-1.57zm10.89 -5.17c0.97,-1 2.23,-1.5 3.77,-1.5 1.54,0 2.79,0.5 3.77,1.5 0.97,0.97 1.46,2.17 1.46,3.58 0,1.42 -0.49,2.61 -1.46,3.58 -0.99,0.99 -2.24,1.48 -3.77,1.48 -1.52,0 -2.78,-0.49 -3.77,-1.48 -0.97,-0.97 -1.46,-2.17 -1.46,-3.58 0,-1.41 0.49,-2.61 1.46,-3.58zm7.51 3.58c0,-1.07 -0.35,-1.97 -1.06,-2.7 -0.71,-0.72 -1.6,-1.08 -2.68,-1.08 -1.08,0 -1.98,0.36 -2.68,1.08 -0.71,0.73 -1.06,1.63 -1.06,2.7 0,1.06 0.35,1.95 1.06,2.68 0.71,0.72 1.6,1.08 2.68,1.08 1.08,0 1.98,-0.36 2.68,-1.08 0.71,-0.73 1.06,-1.63 1.06,-2.68zm8.79 4.89l-1.32 0 -4.45 -9.73 1.62 0 3.53 7.79 3.5 -7.79 1.56 0 -4.45 9.73zm11.35 0.18c-1.51,0 -2.78,-0.47 -3.8,-1.42 -1.01,-0.93 -1.52,-2.15 -1.52,-3.65 0,-1.44 0.45,-2.65 1.36,-3.62 0.92,-0.97 2.1,-1.46 3.55,-1.46 0.77,0 1.46,0.16 2.06,0.47 0.6,0.31 1.07,0.72 1.42,1.23 0.35,0.51 0.61,1.04 0.78,1.61 0.17,0.57 0.26,1.14 0.26,1.71l0 0.4 -7.95 0c0.08,1.04 0.5,1.87 1.25,2.49 0.75,0.62 1.71,0.93 2.87,0.93 1.12,0 2.16,-0.3 3.1,-0.9l0 1.28c-0.79,0.61 -1.92,0.92 -3.38,0.92zm-3.82 -5.91l6.47 0c-0.04,-0.75 -0.32,-1.42 -0.84,-2.02 -0.49,-0.61 -1.26,-0.92 -2.28,-0.92 -0.96,0 -1.75,0.29 -2.36,0.88 -0.6,0.6 -0.93,1.29 -0.98,2.06zm12.08 5.67l-1.44 0 0 -9.67 1.44 0 0 1.84c0.36,-0.63 0.89,-1.13 1.6,-1.51 0.71,-0.38 1.45,-0.57 2.24,-0.57l0 1.46c-0.44,0 -0.84,0.06 -1.2,0.18 -0.61,0.16 -1.16,0.44 -1.62,0.83 -0.47,0.39 -0.81,0.84 -1.02,1.33l0 6.11zm10.57 0.24c-1.51,0 -2.78,-0.47 -3.8,-1.42 -1.01,-0.93 -1.52,-2.15 -1.52,-3.65 0,-1.44 0.45,-2.65 1.36,-3.62 0.92,-0.97 2.1,-1.46 3.55,-1.46 0.77,0 1.46,0.16 2.06,0.47 0.6,0.31 1.07,0.72 1.42,1.23 0.35,0.51 0.61,1.04 0.78,1.61 0.17,0.57 0.26,1.14 0.26,1.71l0 0.4 -7.95 0c0.08,1.04 0.5,1.87 1.25,2.49 0.75,0.62 1.71,0.93 2.87,0.93 1.12,0 2.16,-0.3 3.1,-0.9l0 1.28c-0.79,0.61 -1.92,0.92 -3.38,0.92zm-3.82 -5.91l6.47 0c-0.04,-0.75 -0.32,-1.42 -0.84,-2.02 -0.49,-0.61 -1.26,-0.92 -2.28,-0.92 -0.96,0 -1.75,0.29 -2.36,0.88 -0.6,0.6 -0.93,1.29 -0.98,2.06zm13.9 4.61c0.67,0 1.3,-0.15 1.9,-0.46 0.6,-0.31 1.09,-0.69 1.46,-1.16l0 -1.34c-0.99,-0.64 -2.04,-0.96 -3.14,-0.96 -0.88,0 -1.58,0.17 -2.09,0.52 -0.51,0.35 -0.77,0.82 -0.77,1.42 0,0.63 0.25,1.11 0.74,1.46 0.49,0.35 1.13,0.52 1.9,0.52zm-0.4 1.3c-1.03,0 -1.9,-0.28 -2.62,-0.84 -0.71,-0.59 -1.06,-1.38 -1.06,-2.36 0,-0.97 0.37,-1.76 1.12,-2.34 0.75,-0.57 1.7,-0.86 2.84,-0.86 1.25,0 2.42,0.31 3.48,0.94l0 -0.96c0,-1.62 -1.06,-2.42 -3.18,-2.42 -1.13,0 -2.19,0.33 -3.16,0.98l0 -1.4c0.95,-0.59 2.1,-0.88 3.46,-0.88 1.32,0 2.37,0.31 3.15,0.93 0.78,0.62 1.17,1.51 1.17,2.65l0 3.99c0,0.37 0.08,0.67 0.25,0.88 0.17,0.21 0.39,0.32 0.67,0.32 0.21,0 0.4,-0.04 0.56,-0.12l0 1.12c-0.21,0.15 -0.53,0.22 -0.96,0.22 -0.48,0 -0.88,-0.13 -1.21,-0.39 -0.33,-0.26 -0.53,-0.64 -0.61,-1.15 -0.97,1.13 -2.28,1.7 -3.9,1.7zm12.88 0c-0.89,0 -1.57,-0.26 -2.03,-0.79 -0.46,-0.53 -0.69,-1.26 -0.69,-2.19l0 -5.67 -2.28 0 0 -1.26 2.28 0 0 -2.98 1.44 0 0 2.98 3.38 0 0 1.26 -3.38 0 0 5.23c0,0.77 0.13,1.31 0.38,1.6 0.27,0.31 0.7,0.46 1.3,0.46 0.59,0 1.11,-0.13 1.58,-0.4l0 1.32c-0.41,0.29 -1.07,0.44 -1.98,0.44zm13.34 0c-0.77,0 -1.53,-0.1 -2.27,-0.29 -0.74,-0.19 -1.32,-0.43 -1.73,-0.71l0 -1.48c1.18,0.79 2.5,1.18 3.97,1.18 0.83,0 1.48,-0.14 1.95,-0.41 0.47,-0.27 0.71,-0.65 0.71,-1.13 0,-0.41 -0.23,-0.75 -0.68,-1.02 -0.13,-0.11 -0.47,-0.23 -1.02,-0.36 -0.16,-0.05 -0.38,-0.11 -0.66,-0.16 -0.36,-0.09 -0.58,-0.15 -0.66,-0.16 -1.21,-0.31 -2.08,-0.67 -2.6,-1.09 -0.52,-0.42 -0.78,-1.03 -0.78,-1.83 0,-0.84 0.34,-1.5 1.02,-1.97 0.68,-0.47 1.63,-0.71 2.86,-0.71 1.46,0 2.63,0.29 3.53,0.86l0 1.42c-1.09,-0.65 -2.25,-0.98 -3.46,-0.98 -0.81,0 -1.43,0.13 -1.85,0.38 -0.42,0.25 -0.63,0.6 -0.63,1.04 0,0.48 0.25,0.84 0.74,1.08 0.09,0.03 0.21,0.07 0.35,0.13 0.14,0.06 0.28,0.11 0.43,0.15l0.44 0.12c0.32,0.11 0.64,0.18 0.96,0.22 1.2,0.29 2.09,0.65 2.65,1.08 0.57,0.43 0.85,1.03 0.85,1.82 0,0.88 -0.39,1.57 -1.16,2.06 -0.77,0.51 -1.76,0.76 -2.94,0.76zm7.67 -8.65c0.97,-1 2.23,-1.5 3.77,-1.5 1.54,0 2.79,0.5 3.77,1.5 0.97,0.97 1.46,2.17 1.46,3.58 0,1.42 -0.49,2.61 -1.46,3.58 -0.99,0.99 -2.24,1.48 -3.77,1.48 -1.52,0 -2.78,-0.49 -3.77,-1.48 -0.97,-0.97 -1.46,-2.17 -1.46,-3.58 0,-1.41 0.49,-2.61 1.46,-3.58zm7.51 3.58c0,-1.07 -0.35,-1.97 -1.06,-2.7 -0.71,-0.72 -1.6,-1.08 -2.68,-1.08 -1.08,0 -1.98,0.36 -2.68,1.08 -0.71,0.73 -1.06,1.63 -1.06,2.7 0,1.06 0.35,1.95 1.06,2.68 0.71,0.72 1.6,1.08 2.68,1.08 1.08,0 1.98,-0.36 2.68,-1.08 0.71,-0.73 1.06,-1.63 1.06,-2.68zm5.61 4.83l-1.44 0 0 -9.67 1.44 0 0 1.44c0.8,-1.12 1.96,-1.68 3.48,-1.68 0.79,0 1.45,0.17 1.99,0.5 0.54,0.33 0.91,0.8 1.11,1.4 0.37,-0.57 0.88,-1.04 1.53,-1.38 0.65,-0.35 1.38,-0.52 2.19,-0.52 1.08,0 1.92,0.34 2.52,1.01 0.6,0.67 0.9,1.63 0.9,2.87l0 6.03 -1.44 0 0 -5.71c0,-1.9 -0.8,-2.84 -2.4,-2.84 -0.59,0 -1.17,0.2 -1.75,0.61 -0.58,0.41 -1.02,0.9 -1.31,1.47 0,0.13 0,0.29 0.01,0.46 0.01,0.17 0.01,0.31 0.02,0.4 0.01,0.09 0.01,0.17 0.01,0.22l0 5.39 -1.44 0 0 -5.71c0,-1.9 -0.8,-2.84 -2.4,-2.84 -0.56,0 -1.13,0.2 -1.72,0.6 -0.56,0.37 -0.99,0.84 -1.3,1.4l0 6.55zm21.59 0.24c-1.51,0 -2.78,-0.47 -3.8,-1.42 -1.01,-0.93 -1.52,-2.15 -1.52,-3.65 0,-1.44 0.45,-2.65 1.36,-3.62 0.92,-0.97 2.1,-1.46 3.55,-1.46 0.77,0 1.46,0.16 2.06,0.47 0.6,0.31 1.07,0.72 1.42,1.23 0.35,0.51 0.61,1.04 0.78,1.61 0.17,0.57 0.26,1.14 0.26,1.71l0 0.4 -7.95 0c0.08,1.04 0.5,1.87 1.25,2.49 0.75,0.62 1.71,0.93 2.87,0.93 1.12,0 2.16,-0.3 3.1,-0.9l0 1.28c-0.79,0.61 -1.92,0.92 -3.38,0.92zm-3.82 -5.91l6.47 0c-0.04,-0.75 -0.32,-1.42 -0.84,-2.02 -0.49,-0.61 -1.26,-0.92 -2.28,-0.92 -0.96,0 -1.75,0.29 -2.36,0.88 -0.6,0.6 -0.93,1.29 -0.98,2.06zm16.6 -3.28l-1.28 0 0 -5.07 1.28 0 0 5.07zm3.7 0l-1.28 0 0 -5.07 1.28 0 0 5.07zm5.01 0.54l0 8.41 -1.44 0 0 -8.41 -1.92 0 0 -1.26 1.92 0 0 -1.62c0,-0.89 0.24,-1.6 0.72,-2.11 0.48,-0.51 1.16,-0.77 2.04,-0.77 0.81,0 1.5,0.13 2.04,0.38l0 1.32c-0.64,-0.27 -1.2,-0.4 -1.68,-0.4 -1.12,0 -1.68,0.62 -1.68,1.86l0 1.34 3.36 0 0 1.26 -3.36 0zm6.39 0c0.97,-1 2.23,-1.5 3.77,-1.5 1.54,0 2.79,0.5 3.77,1.5 0.97,0.97 1.46,2.17 1.46,3.58 0,1.42 -0.49,2.61 -1.46,3.58 -0.99,0.99 -2.24,1.48 -3.77,1.48 -1.52,0 -2.78,-0.49 -3.77,-1.48 -0.97,-0.97 -1.46,-2.17 -1.46,-3.58 0,-1.41 0.49,-2.61 1.46,-3.58zm7.51 3.58c0,-1.07 -0.35,-1.97 -1.06,-2.7 -0.71,-0.72 -1.6,-1.08 -2.68,-1.08 -1.08,0 -1.98,0.36 -2.68,1.08 -0.71,0.73 -1.06,1.63 -1.06,2.7 0,1.06 0.35,1.95 1.06,2.68 0.71,0.72 1.6,1.08 2.68,1.08 1.08,0 1.98,-0.36 2.68,-1.08 0.71,-0.73 1.06,-1.63 1.06,-2.68zm5.61 4.83l-1.44 0 0 -9.67 1.44 0 0 1.84c0.36,-0.63 0.89,-1.13 1.6,-1.51 0.71,-0.38 1.45,-0.57 2.24,-0.57l0 1.46c-0.44,0 -0.84,0.06 -1.2,0.18 -0.61,0.16 -1.16,0.44 -1.62,0.83 -0.47,0.39 -0.81,0.84 -1.02,1.33l0 6.11zm5.95 0l0 -14.02 1.44 0 0 5.89c0.91,-1.19 2.16,-1.78 3.75,-1.78 1.43,0 2.6,0.49 3.5,1.48 0.91,0.99 1.36,2.19 1.36,3.6 0,1.4 -0.45,2.6 -1.36,3.58 -0.91,0.99 -2.08,1.48 -3.5,1.48 -1.59,0 -2.84,-0.59 -3.75,-1.78l0 1.54 -1.44 0zm1.44 -6.43l0 3.18c0.29,0.64 0.75,1.16 1.38,1.57 0.63,0.41 1.3,0.61 2.02,0.61 1.08,0 1.97,-0.36 2.66,-1.08 0.71,-0.73 1.06,-1.63 1.06,-2.68 0,-1.05 -0.35,-1.95 -1.06,-2.68 -0.69,-0.73 -1.58,-1.1 -2.66,-1.1 -0.73,0 -1.41,0.2 -2.04,0.61 -0.63,0.41 -1.08,0.93 -1.36,1.57zm12.96 6.43l-1.44 0 0 -9.67 1.44 0 0 9.67zm-1.44 -12.28c-0.19,-0.2 -0.28,-0.44 -0.28,-0.72 0,-0.28 0.09,-0.52 0.28,-0.72 0.2,-0.2 0.44,-0.3 0.72,-0.3 0.28,0 0.52,0.1 0.72,0.3 0.2,0.2 0.3,0.44 0.3,0.72 0,0.28 -0.1,0.52 -0.3,0.72 -0.2,0.19 -0.44,0.28 -0.72,0.28 -0.28,0 -0.52,-0.09 -0.72,-0.28zm13.02 4.14l0 -5.89 1.44 0 0 14.02 -1.44 0 0 -1.54c-0.91,1.19 -2.16,1.78 -3.75,1.78 -1.43,0 -2.6,-0.49 -3.5,-1.48 -0.91,-0.99 -1.36,-2.18 -1.36,-3.58 0,-1.41 0.45,-2.62 1.36,-3.6 0.91,-0.99 2.08,-1.48 3.5,-1.48 1.59,0 2.84,0.59 3.75,1.78zm0 4.89l0 -3.18c-0.28,-0.64 -0.73,-1.17 -1.36,-1.57 -0.63,-0.41 -1.31,-0.61 -2.04,-0.61 -1.08,0 -1.97,0.37 -2.66,1.1 -0.71,0.73 -1.06,1.63 -1.06,2.68 0,1.06 0.35,1.95 1.06,2.68 0.71,0.72 1.6,1.08 2.66,1.08 0.72,0 1.4,-0.2 2.02,-0.61 0.63,-0.41 1.09,-0.93 1.38,-1.57zm12.76 -4.89l0 -5.89 1.44 0 0 14.02 -1.44 0 0 -1.54c-0.91,1.19 -2.16,1.78 -3.75,1.78 -1.43,0 -2.6,-0.49 -3.5,-1.48 -0.91,-0.99 -1.36,-2.18 -1.36,-3.58 0,-1.41 0.45,-2.62 1.36,-3.6 0.91,-0.99 2.08,-1.48 3.5,-1.48 1.59,0 2.84,0.59 3.75,1.78zm0 4.89l0 -3.18c-0.28,-0.64 -0.73,-1.17 -1.36,-1.57 -0.63,-0.41 -1.31,-0.61 -2.04,-0.61 -1.08,0 -1.97,0.37 -2.66,1.1 -0.71,0.73 -1.06,1.63 -1.06,2.68 0,1.06 0.35,1.95 1.06,2.68 0.71,0.72 1.6,1.08 2.66,1.08 0.72,0 1.4,-0.2 2.02,-0.61 0.63,-0.41 1.09,-0.93 1.38,-1.57zm9.47 3.48c-1.51,0 -2.78,-0.47 -3.8,-1.42 -1.01,-0.93 -1.52,-2.15 -1.52,-3.65 0,-1.44 0.45,-2.65 1.36,-3.62 0.92,-0.97 2.1,-1.46 3.55,-1.46 0.77,0 1.46,0.16 2.06,0.47 0.6,0.31 1.07,0.72 1.42,1.23 0.35,0.51 0.61,1.04 0.78,1.61 0.17,0.57 0.26,1.14 0.26,1.71l0 0.4 -7.95 0c0.08,1.04 0.5,1.87 1.25,2.49 0.75,0.62 1.71,0.93 2.87,0.93 1.12,0 2.16,-0.3 3.1,-0.9l0 1.28c-0.79,0.61 -1.92,0.92 -3.38,0.92zm-3.82 -5.91l6.47 0c-0.04,-0.75 -0.32,-1.42 -0.84,-2.02 -0.49,-0.61 -1.26,-0.92 -2.28,-0.92 -0.96,0 -1.75,0.29 -2.36,0.88 -0.6,0.6 -0.93,1.29 -0.98,2.06zm12.08 -0.86l0 6.53 -1.44 0 0 -9.67 1.44 0 0 1.48c1.03,-1.15 2.32,-1.72 3.87,-1.72 1.19,0 2.1,0.35 2.73,1.05 0.63,0.7 0.95,1.69 0.95,2.97l0 5.89 -1.44 0 0 -5.57c0,-1.99 -0.91,-2.98 -2.74,-2.98 -0.67,0 -1.31,0.21 -1.94,0.62 -0.64,0.41 -1.11,0.88 -1.42,1.4zm11.46 -2.42l-1.28 0 0 -5.07 1.28 0 0 5.07zm3.7 0l-1.28 0 0 -5.07 1.28 0 0 5.07zm10.29 0.54l0 8.41 -1.44 0 0 -8.41 -1.92 0 0 -1.26 1.92 0 0 -1.62c0,-0.89 0.24,-1.6 0.72,-2.11 0.48,-0.51 1.16,-0.77 2.04,-0.77 0.81,0 1.5,0.13 2.04,0.38l0 1.32c-0.64,-0.27 -1.2,-0.4 -1.68,-0.4 -1.12,0 -1.68,0.62 -1.68,1.86l0 1.34 3.36 0 0 1.26 -3.36 0zm6.39 0c0.97,-1 2.23,-1.5 3.77,-1.5 1.54,0 2.79,0.5 3.77,1.5 0.97,0.97 1.46,2.17 1.46,3.58 0,1.42 -0.49,2.61 -1.46,3.58 -0.99,0.99 -2.24,1.48 -3.77,1.48 -1.52,0 -2.78,-0.49 -3.77,-1.48 -0.97,-0.97 -1.46,-2.17 -1.46,-3.58 0,-1.41 0.49,-2.61 1.46,-3.58zm7.51 3.58c0,-1.07 -0.35,-1.97 -1.06,-2.7 -0.71,-0.72 -1.6,-1.08 -2.68,-1.08 -1.08,0 -1.98,0.36 -2.68,1.08 -0.71,0.73 -1.06,1.63 -1.06,2.7 0,1.06 0.35,1.95 1.06,2.68 0.71,0.72 1.6,1.08 2.68,1.08 1.08,0 1.98,-0.36 2.68,-1.08 0.71,-0.73 1.06,-1.63 1.06,-2.68z"/>
   <path class="fil4" d="M347.64 581.06c0.97,-1 2.23,-1.5 3.77,-1.5 1.54,0 2.79,0.5 3.77,1.5 0.97,0.97 1.46,2.17 1.46,3.58 0,1.42 -0.49,2.61 -1.46,3.58 -0.99,0.99 -2.24,1.48 -3.77,1.48 -1.52,0 -2.78,-0.49 -3.77,-1.48 -0.97,-0.97 -1.46,-2.17 -1.46,-3.58 0,-1.41 0.49,-2.61 1.46,-3.58zm7.51 3.58c0,-1.07 -0.35,-1.97 -1.06,-2.7 -0.71,-0.72 -1.6,-1.08 -2.68,-1.08 -1.08,0 -1.98,0.36 -2.68,1.08 -0.71,0.73 -1.06,1.63 -1.06,2.7 0,1.06 0.35,1.95 1.06,2.68 0.71,0.72 1.6,1.08 2.68,1.08 1.08,0 1.98,-0.36 2.68,-1.08 0.71,-0.73 1.06,-1.63 1.06,-2.68zm12.08 -3.3l0 -5.89 1.44 0 0 14.02 -1.44 0 0 -1.54c-0.91,1.19 -2.16,1.78 -3.75,1.78 -1.43,0 -2.6,-0.49 -3.5,-1.48 -0.91,-0.99 -1.36,-2.18 -1.36,-3.58 0,-1.41 0.45,-2.62 1.36,-3.6 0.91,-0.99 2.08,-1.48 3.5,-1.48 1.59,0 2.84,0.59 3.75,1.78zm0 4.89l0 -3.18c-0.28,-0.64 -0.73,-1.17 -1.36,-1.57 -0.63,-0.41 -1.31,-0.61 -2.04,-0.61 -1.08,0 -1.97,0.37 -2.66,1.1 -0.71,0.73 -1.06,1.63 -1.06,2.68 0,1.06 0.35,1.95 1.06,2.68 0.71,0.72 1.6,1.08 2.66,1.08 0.72,0 1.4,-0.2 2.02,-0.61 0.63,-0.41 1.09,-0.93 1.38,-1.57z"/>
  </g>
  <path class="fil4" d="M42.55 151.93l0 -3.33 18.89 0 0 3.33 -7.65 0 0 19.75 -3.63 0 0 -19.75 -7.62 0zm26.48 19.75l-3.63 0 0 -23.08 3.63 0 0 9.1 12.03 0 0 -9.1 3.63 0 0 23.08 -3.63 0 0 -10.65 -12.03 0 0 10.65zm38.25 0l-16.85 0 0 -23.08 16.42 0 0 3.33 -12.79 0 0 5.77 10.42 0 0 3.33 -10.42 0 0 7.32 13.22 0 0 3.33zm29.71 0l-16.85 0 0 -23.08 16.42 0 0 3.33 -12.79 0 0 5.77 10.42 0 0 3.33 -10.42 0 0 7.32 13.22 0 0 3.33zm7.85 0l-3.56 0 0 -23.08 3.16 0 13.02 16.72 0 -16.72 3.56 0 0 23.08 -3.07 0 -13.12 -16.78 0 16.78zm30.07 0l-8.14 0 0 -23.08 8.14 0c3.69,0 6.71,1.08 9.07,3.23 2.35,2.15 3.53,4.92 3.53,8.31 0,3.41 -1.18,6.19 -3.53,8.34 -2.33,2.13 -5.35,3.2 -9.07,3.2zm-4.52 -19.75l0 16.42 4.19 0c2.9,0 5.15,-0.74 6.76,-2.21 1.63,-1.49 2.44,-3.49 2.44,-6 0,-2.51 -0.81,-4.51 -2.44,-6 -1.6,-1.47 -3.86,-2.21 -6.76,-2.21l-4.19 0zm-151.91 55.82c1.56,1.63 3.47,2.44 5.74,2.44 2.26,0 4.18,-0.81 5.74,-2.44 1.56,-1.67 2.34,-3.71 2.34,-6.13 0,-2.44 -0.78,-4.47 -2.34,-6.1 -1.56,-1.65 -3.47,-2.47 -5.74,-2.47 -2.26,0 -4.18,0.82 -5.74,2.47 -1.54,1.61 -2.31,3.64 -2.31,6.1 0,2.46 0.77,4.51 2.31,6.13zm14.18 2.41c-2.24,2.29 -5.06,3.43 -8.44,3.43 -3.39,0 -6.2,-1.14 -8.44,-3.43 -2.22,-2.33 -3.33,-5.18 -3.33,-8.54 0,-3.38 1.11,-6.22 3.33,-8.51 2.24,-2.31 5.06,-3.46 8.44,-3.46 3.38,0 6.2,1.15 8.44,3.46 2.24,2.29 3.36,5.12 3.36,8.51 0,3.38 -1.12,6.23 -3.36,8.54zm11.9 3l-3.63 0 0 -23.08 16.39 0 0 3.33 -12.76 0 0 6.03 10.12 0 0 3.33 -10.12 0 0 10.39zm23.77 -19.75l0 -3.33 18.89 0 0 3.33 -7.65 0 0 19.75 -3.63 0 0 -19.75 -7.62 0zm26.48 19.75l-3.63 0 0 -23.08 3.63 0 0 9.1 12.03 0 0 -9.1 3.63 0 0 23.08 -3.63 0 0 -10.65 -12.03 0 0 10.65zm38.25 0l-16.85 0 0 -23.08 16.42 0 0 3.33 -12.79 0 0 5.77 10.42 0 0 3.33 -10.42 0 0 7.32 13.22 0 0 3.33zm21 0l-8.14 0 0 -23.08 8.14 0c3.69,0 6.71,1.08 9.07,3.23 2.35,2.15 3.53,4.92 3.53,8.31 0,3.41 -1.18,6.19 -3.53,8.34 -2.33,2.13 -5.35,3.2 -9.07,3.2zm-4.52 -19.75l0 16.42 4.19 0c2.9,0 5.15,-0.74 6.76,-2.21 1.63,-1.49 2.44,-3.49 2.44,-6 0,-2.51 -0.81,-4.51 -2.44,-6 -1.6,-1.47 -3.86,-2.21 -6.76,-2.21l-4.19 0zm25.82 19.75l-3.63 0 0 -23.08 3.63 0 0 23.08zm22.78 0l-16.85 0 0 -23.08 16.42 0 0 3.33 -12.79 0 0 5.77 10.42 0 0 3.33 -10.42 0 0 7.32 13.22 0 0 3.33zm2.51 -19.75l0 -3.33 18.89 0 0 3.33 -7.65 0 0 19.75 -3.63 0 0 -19.75 -7.62 0z"/>
  <path class="fil4" d="M45.38 245.02l0 -14.02 1.44 0 0 5.89c0.91,-1.19 2.16,-1.78 3.75,-1.78 1.43,0 2.6,0.49 3.5,1.48 0.91,0.99 1.36,2.19 1.36,3.6 0,1.4 -0.45,2.6 -1.36,3.58 -0.91,0.99 -2.08,1.48 -3.5,1.48 -1.59,0 -2.84,-0.59 -3.75,-1.78l0 1.54 -1.44 0zm1.44 -6.43l0 3.18c0.29,0.64 0.75,1.16 1.38,1.57 0.63,0.41 1.3,0.61 2.02,0.61 1.08,0 1.97,-0.36 2.66,-1.08 0.71,-0.73 1.06,-1.63 1.06,-2.68 0,-1.05 -0.35,-1.95 -1.06,-2.68 -0.69,-0.73 -1.58,-1.1 -2.66,-1.1 -0.73,0 -1.41,0.2 -2.04,0.61 -0.63,0.41 -1.08,0.93 -1.36,1.57zm13.52 6.67c-0.67,0 -1.2,-0.19 -1.61,-0.58 -0.41,-0.39 -0.61,-0.99 -0.61,-1.8l0 -11.88 1.44 0 0 11.53c0,0.95 0.42,1.42 1.26,1.42 0.33,0 0.65,-0.09 0.94,-0.26l0 1.28c-0.35,0.19 -0.82,0.28 -1.42,0.28zm6.89 -1.3c0.67,0 1.3,-0.15 1.9,-0.46 0.6,-0.31 1.09,-0.69 1.46,-1.16l0 -1.34c-0.99,-0.64 -2.04,-0.96 -3.14,-0.96 -0.88,0 -1.58,0.17 -2.09,0.52 -0.51,0.35 -0.77,0.82 -0.77,1.42 0,0.63 0.25,1.11 0.74,1.46 0.49,0.35 1.13,0.52 1.9,0.52zm-0.4 1.3c-1.03,0 -1.9,-0.28 -2.62,-0.84 -0.71,-0.59 -1.06,-1.38 -1.06,-2.36 0,-0.97 0.37,-1.76 1.12,-2.34 0.75,-0.57 1.7,-0.86 2.84,-0.86 1.25,0 2.42,0.31 3.48,0.94l0 -0.96c0,-1.62 -1.06,-2.42 -3.18,-2.42 -1.13,0 -2.19,0.33 -3.16,0.98l0 -1.4c0.95,-0.59 2.1,-0.88 3.46,-0.88 1.32,0 2.37,0.31 3.15,0.93 0.78,0.62 1.17,1.51 1.17,2.65l0 3.99c0,0.37 0.08,0.67 0.25,0.88 0.17,0.21 0.39,0.32 0.67,0.32 0.21,0 0.4,-0.04 0.56,-0.12l0 1.12c-0.21,0.15 -0.53,0.22 -0.96,0.22 -0.48,0 -0.88,-0.13 -1.21,-0.39 -0.33,-0.26 -0.53,-0.64 -0.61,-1.15 -0.97,1.13 -2.28,1.7 -3.9,1.7zm10.47 -0.24l-1.44 0 0 -9.67 1.44 0 0 1.44c0.8,-1.12 1.96,-1.68 3.48,-1.68 0.79,0 1.45,0.17 1.99,0.5 0.54,0.33 0.91,0.8 1.11,1.4 0.37,-0.57 0.88,-1.04 1.53,-1.38 0.65,-0.35 1.38,-0.52 2.19,-0.52 1.08,0 1.92,0.34 2.52,1.01 0.6,0.67 0.9,1.63 0.9,2.87l0 6.03 -1.44 0 0 -5.71c0,-1.9 -0.8,-2.84 -2.4,-2.84 -0.59,0 -1.17,0.2 -1.75,0.61 -0.58,0.41 -1.02,0.9 -1.31,1.47 0,0.13 0,0.29 0.01,0.46 0.01,0.17 0.01,0.31 0.02,0.4 0.01,0.09 0.01,0.17 0.01,0.22l0 5.39 -1.44 0 0 -5.71c0,-1.9 -0.8,-2.84 -2.4,-2.84 -0.56,0 -1.13,0.2 -1.72,0.6 -0.56,0.37 -0.99,0.84 -1.3,1.4l0 6.55zm21.59 0.24c-1.51,0 -2.78,-0.47 -3.8,-1.42 -1.01,-0.93 -1.52,-2.15 -1.52,-3.65 0,-1.44 0.45,-2.65 1.36,-3.62 0.92,-0.97 2.1,-1.46 3.55,-1.46 0.77,0 1.46,0.16 2.06,0.47 0.6,0.31 1.07,0.72 1.42,1.23 0.35,0.51 0.61,1.04 0.78,1.61 0.17,0.57 0.26,1.14 0.26,1.71l0 0.4 -7.95 0c0.08,1.04 0.5,1.87 1.25,2.49 0.75,0.62 1.71,0.93 2.87,0.93 1.12,0 2.16,-0.3 3.1,-0.9l0 1.28c-0.79,0.61 -1.92,0.92 -3.38,0.92zm-3.82 -5.91l6.47 0c-0.04,-0.75 -0.32,-1.42 -0.84,-2.02 -0.49,-0.61 -1.26,-0.92 -2.28,-0.92 -0.96,0 -1.75,0.29 -2.36,0.88 -0.6,0.6 -0.93,1.29 -0.98,2.06zm16.46 9.75c-0.69,0 -1.21,-0.09 -1.54,-0.28l0 -1.34c0.41,0.21 0.85,0.32 1.32,0.32 0.59,0 1.09,-0.24 1.52,-0.73 0.43,-0.49 0.87,-1.29 1.34,-2.41l-4.31 -9.31 1.6 0 3.43 7.61 3.32 -7.61 1.56 0 -4.79 10.75c-0.87,2 -2.02,3 -3.46,3zm11.33 -12.5c0.97,-1 2.23,-1.5 3.77,-1.5 1.54,0 2.79,0.5 3.77,1.5 0.97,0.97 1.46,2.17 1.46,3.58 0,1.42 -0.49,2.61 -1.46,3.58 -0.99,0.99 -2.24,1.48 -3.77,1.48 -1.52,0 -2.78,-0.49 -3.77,-1.48 -0.97,-0.97 -1.46,-2.17 -1.46,-3.58 0,-1.41 0.49,-2.61 1.46,-3.58zm7.51 3.58c0,-1.07 -0.35,-1.97 -1.06,-2.7 -0.71,-0.72 -1.6,-1.08 -2.68,-1.08 -1.08,0 -1.98,0.36 -2.68,1.08 -0.71,0.73 -1.06,1.63 -1.06,2.7 0,1.06 0.35,1.95 1.06,2.68 0.71,0.72 1.6,1.08 2.68,1.08 1.08,0 1.98,-0.36 2.68,-1.08 0.71,-0.73 1.06,-1.63 1.06,-2.68zm11.55 1.68l0 -6.53 1.44 0 0 9.67 -1.44 0 0 -1.48c-1.03,1.15 -2.32,1.72 -3.87,1.72 -1.19,0 -2.1,-0.35 -2.73,-1.05 -0.63,-0.7 -0.95,-1.69 -0.95,-2.97l0 -5.89 1.44 0 0 5.57c0,1.99 0.91,2.98 2.74,2.98 0.67,0 1.31,-0.2 1.92,-0.6 0.65,-0.43 1.13,-0.9 1.44,-1.42zm6.29 3.14l-1.44 0 0 -9.67 1.44 0 0 1.84c0.36,-0.63 0.89,-1.13 1.6,-1.51 0.71,-0.38 1.45,-0.57 2.24,-0.57l0 1.46c-0.44,0 -0.84,0.06 -1.2,0.18 -0.61,0.16 -1.16,0.44 -1.62,0.83 -0.47,0.39 -0.81,0.84 -1.02,1.33l0 6.11zm9.23 0.24c-0.77,0 -1.53,-0.1 -2.27,-0.29 -0.74,-0.19 -1.32,-0.43 -1.73,-0.71l0 -1.48c1.18,0.79 2.5,1.18 3.97,1.18 0.83,0 1.48,-0.14 1.95,-0.41 0.47,-0.27 0.71,-0.65 0.71,-1.13 0,-0.41 -0.23,-0.75 -0.68,-1.02 -0.13,-0.11 -0.47,-0.23 -1.02,-0.36 -0.16,-0.05 -0.38,-0.11 -0.66,-0.16 -0.36,-0.09 -0.58,-0.15 -0.66,-0.16 -1.21,-0.31 -2.08,-0.67 -2.6,-1.09 -0.52,-0.42 -0.78,-1.03 -0.78,-1.83 0,-0.84 0.34,-1.5 1.02,-1.97 0.68,-0.47 1.63,-0.71 2.86,-0.71 1.46,0 2.63,0.29 3.53,0.86l0 1.42c-1.09,-0.65 -2.25,-0.98 -3.46,-0.98 -0.81,0 -1.43,0.13 -1.85,0.38 -0.42,0.25 -0.63,0.6 -0.63,1.04 0,0.48 0.25,0.84 0.74,1.08 0.09,0.03 0.21,0.07 0.35,0.13 0.14,0.06 0.28,0.11 0.43,0.15l0.44 0.12c0.32,0.11 0.64,0.18 0.96,0.22 1.2,0.29 2.09,0.65 2.65,1.08 0.57,0.43 0.85,1.03 0.85,1.82 0,0.88 -0.39,1.57 -1.16,2.06 -0.77,0.51 -1.76,0.76 -2.94,0.76zm11.54 0c-1.51,0 -2.78,-0.47 -3.8,-1.42 -1.01,-0.93 -1.52,-2.15 -1.52,-3.65 0,-1.44 0.45,-2.65 1.36,-3.62 0.92,-0.97 2.1,-1.46 3.55,-1.46 0.77,0 1.46,0.16 2.06,0.47 0.6,0.31 1.07,0.72 1.42,1.23 0.35,0.51 0.61,1.04 0.78,1.61 0.17,0.57 0.26,1.14 0.26,1.71l0 0.4 -7.95 0c0.08,1.04 0.5,1.87 1.25,2.49 0.75,0.62 1.71,0.93 2.87,0.93 1.12,0 2.16,-0.3 3.1,-0.9l0 1.28c-0.79,0.61 -1.92,0.92 -3.38,0.92zm-3.82 -5.91l6.47 0c-0.04,-0.75 -0.32,-1.42 -0.84,-2.02 -0.49,-0.61 -1.26,-0.92 -2.28,-0.92 -0.96,0 -1.75,0.29 -2.36,0.88 -0.6,0.6 -0.93,1.29 -0.98,2.06zm12.86 5.91c-0.67,0 -1.2,-0.19 -1.61,-0.58 -0.41,-0.39 -0.61,-0.99 -0.61,-1.8l0 -11.88 1.44 0 0 11.53c0,0.95 0.42,1.42 1.26,1.42 0.33,0 0.65,-0.09 0.94,-0.26l0 1.28c-0.35,0.19 -0.82,0.28 -1.42,0.28zm5.83 -8.65l0 8.41 -1.44 0 0 -8.41 -1.92 0 0 -1.26 1.92 0 0 -1.62c0,-0.89 0.24,-1.6 0.72,-2.11 0.48,-0.51 1.16,-0.77 2.04,-0.77 0.81,0 1.5,0.13 2.04,0.38l0 1.32c-0.64,-0.27 -1.2,-0.4 -1.68,-0.4 -1.12,0 -1.68,0.62 -1.68,1.86l0 1.34 3.36 0 0 1.26 -3.36 0zm-131.53 32.54c0.67,0 1.3,-0.15 1.9,-0.46 0.6,-0.31 1.09,-0.69 1.46,-1.16l0 -1.34c-0.99,-0.64 -2.04,-0.96 -3.14,-0.96 -0.88,0 -1.58,0.17 -2.09,0.52 -0.51,0.35 -0.77,0.82 -0.77,1.42 0,0.63 0.25,1.11 0.74,1.46 0.49,0.35 1.13,0.52 1.9,0.52zm-0.4 1.3c-1.03,0 -1.9,-0.28 -2.62,-0.84 -0.71,-0.59 -1.06,-1.38 -1.06,-2.36 0,-0.97 0.37,-1.76 1.12,-2.34 0.75,-0.57 1.7,-0.86 2.84,-0.86 1.25,0 2.42,0.31 3.48,0.94l0 -0.96c0,-1.62 -1.06,-2.42 -3.18,-2.42 -1.13,0 -2.19,0.33 -3.16,0.98l0 -1.4c0.95,-0.59 2.1,-0.88 3.46,-0.88 1.32,0 2.37,0.31 3.15,0.93 0.78,0.62 1.17,1.51 1.17,2.65l0 3.99c0,0.37 0.08,0.67 0.25,0.88 0.17,0.21 0.39,0.32 0.67,0.32 0.21,0 0.4,-0.04 0.56,-0.12l0 1.12c-0.21,0.15 -0.53,0.22 -0.96,0.22 -0.48,0 -0.88,-0.13 -1.21,-0.39 -0.33,-0.26 -0.53,-0.64 -0.61,-1.15 -0.97,1.13 -2.28,1.7 -3.9,1.7zm10.47 -6.77l0 6.53 -1.44 0 0 -9.67 1.44 0 0 1.48c1.03,-1.15 2.32,-1.72 3.87,-1.72 1.19,0 2.1,0.35 2.73,1.05 0.63,0.7 0.95,1.69 0.95,2.97l0 5.89 -1.44 0 0 -5.57c0,-1.99 -0.91,-2.98 -2.74,-2.98 -0.67,0 -1.31,0.21 -1.94,0.62 -0.64,0.41 -1.11,0.88 -1.42,1.4zm18.68 -1.6l0 -5.89 1.44 0 0 14.02 -1.44 0 0 -1.54c-0.91,1.19 -2.16,1.78 -3.75,1.78 -1.43,0 -2.6,-0.49 -3.5,-1.48 -0.91,-0.99 -1.36,-2.18 -1.36,-3.58 0,-1.41 0.45,-2.62 1.36,-3.6 0.91,-0.99 2.08,-1.48 3.5,-1.48 1.59,0 2.84,0.59 3.75,1.78zm0 4.89l0 -3.18c-0.28,-0.64 -0.73,-1.17 -1.36,-1.57 -0.63,-0.41 -1.31,-0.61 -2.04,-0.61 -1.08,0 -1.97,0.37 -2.66,1.1 -0.71,0.73 -1.06,1.63 -1.06,2.68 0,1.06 0.35,1.95 1.06,2.68 0.71,0.72 1.6,1.08 2.66,1.08 0.72,0 1.4,-0.2 2.02,-0.61 0.63,-0.41 1.09,-0.93 1.38,-1.57zm13.42 3.48c-0.77,0 -1.53,-0.1 -2.27,-0.29 -0.74,-0.19 -1.32,-0.43 -1.73,-0.71l0 -1.48c1.18,0.79 2.5,1.18 3.97,1.18 0.83,0 1.48,-0.14 1.95,-0.41 0.47,-0.27 0.71,-0.65 0.71,-1.13 0,-0.41 -0.23,-0.75 -0.68,-1.02 -0.13,-0.11 -0.47,-0.23 -1.02,-0.36 -0.16,-0.05 -0.38,-0.11 -0.66,-0.16 -0.36,-0.09 -0.58,-0.15 -0.66,-0.16 -1.21,-0.31 -2.08,-0.67 -2.6,-1.09 -0.52,-0.42 -0.78,-1.03 -0.78,-1.83 0,-0.84 0.34,-1.5 1.02,-1.97 0.68,-0.47 1.63,-0.71 2.86,-0.71 1.46,0 2.63,0.29 3.53,0.86l0 1.42c-1.09,-0.65 -2.25,-0.98 -3.46,-0.98 -0.81,0 -1.43,0.13 -1.85,0.38 -0.42,0.25 -0.63,0.6 -0.63,1.04 0,0.48 0.25,0.84 0.74,1.08 0.09,0.03 0.21,0.07 0.35,0.13 0.14,0.06 0.28,0.11 0.43,0.15l0.44 0.12c0.32,0.11 0.64,0.18 0.96,0.22 1.2,0.29 2.09,0.65 2.65,1.08 0.57,0.43 0.85,1.03 0.85,1.82 0,0.88 -0.39,1.57 -1.16,2.06 -0.77,0.51 -1.76,0.76 -2.94,0.76zm10.75 0c-0.89,0 -1.57,-0.26 -2.03,-0.79 -0.46,-0.53 -0.69,-1.26 -0.69,-2.19l0 -5.67 -2.28 0 0 -1.26 2.28 0 0 -2.98 1.44 0 0 2.98 3.38 0 0 1.26 -3.38 0 0 5.23c0,0.77 0.13,1.31 0.38,1.6 0.27,0.31 0.7,0.46 1.3,0.46 0.59,0 1.11,-0.13 1.58,-0.4l0 1.32c-0.41,0.29 -1.07,0.44 -1.98,0.44zm8.03 -1.3c0.67,0 1.3,-0.15 1.9,-0.46 0.6,-0.31 1.09,-0.69 1.46,-1.16l0 -1.34c-0.99,-0.64 -2.04,-0.96 -3.14,-0.96 -0.88,0 -1.58,0.17 -2.09,0.52 -0.51,0.35 -0.77,0.82 -0.77,1.42 0,0.63 0.25,1.11 0.74,1.46 0.49,0.35 1.13,0.52 1.9,0.52zm-0.4 1.3c-1.03,0 -1.9,-0.28 -2.62,-0.84 -0.71,-0.59 -1.06,-1.38 -1.06,-2.36 0,-0.97 0.37,-1.76 1.12,-2.34 0.75,-0.57 1.7,-0.86 2.84,-0.86 1.25,0 2.42,0.31 3.48,0.94l0 -0.96c0,-1.62 -1.06,-2.42 -3.18,-2.42 -1.13,0 -2.19,0.33 -3.16,0.98l0 -1.4c0.95,-0.59 2.1,-0.88 3.46,-0.88 1.32,0 2.37,0.31 3.15,0.93 0.78,0.62 1.17,1.51 1.17,2.65l0 3.99c0,0.37 0.08,0.67 0.25,0.88 0.17,0.21 0.39,0.32 0.67,0.32 0.21,0 0.4,-0.04 0.56,-0.12l0 1.12c-0.21,0.15 -0.53,0.22 -0.96,0.22 -0.48,0 -0.88,-0.13 -1.21,-0.39 -0.33,-0.26 -0.53,-0.64 -0.61,-1.15 -0.97,1.13 -2.28,1.7 -3.9,1.7zm10.47 -0.24l-1.44 0 0 -9.67 1.44 0 0 1.84c0.36,-0.63 0.89,-1.13 1.6,-1.51 0.71,-0.38 1.45,-0.57 2.24,-0.57l0 1.46c-0.44,0 -0.84,0.06 -1.2,0.18 -0.61,0.16 -1.16,0.44 -1.62,0.83 -0.47,0.39 -0.81,0.84 -1.02,1.33l0 6.11zm9.79 0.24c-0.89,0 -1.57,-0.26 -2.03,-0.79 -0.46,-0.53 -0.69,-1.26 -0.69,-2.19l0 -5.67 -2.28 0 0 -1.26 2.28 0 0 -2.98 1.44 0 0 2.98 3.38 0 0 1.26 -3.38 0 0 5.23c0,0.77 0.13,1.31 0.38,1.6 0.27,0.31 0.7,0.46 1.3,0.46 0.59,0 1.11,-0.13 1.58,-0.4l0 1.32c-0.41,0.29 -1.07,0.44 -1.98,0.44zm10.81 -8.65c0.97,-1 2.23,-1.5 3.77,-1.5 1.54,0 2.79,0.5 3.77,1.5 0.97,0.97 1.46,2.17 1.46,3.58 0,1.42 -0.49,2.61 -1.46,3.58 -0.99,0.99 -2.24,1.48 -3.77,1.48 -1.52,0 -2.78,-0.49 -3.77,-1.48 -0.97,-0.97 -1.46,-2.17 -1.46,-3.58 0,-1.41 0.49,-2.61 1.46,-3.58zm7.51 3.58c0,-1.07 -0.35,-1.97 -1.06,-2.7 -0.71,-0.72 -1.6,-1.08 -2.68,-1.08 -1.08,0 -1.98,0.36 -2.68,1.08 -0.71,0.73 -1.06,1.63 -1.06,2.7 0,1.06 0.35,1.95 1.06,2.68 0.71,0.72 1.6,1.08 2.68,1.08 1.08,0 1.98,-0.36 2.68,-1.08 0.71,-0.73 1.06,-1.63 1.06,-2.68zm8.79 4.89l-1.32 0 -4.45 -9.73 1.62 0 3.53 7.79 3.5 -7.79 1.56 0 -4.45 9.73zm11.35 0.18c-1.51,0 -2.78,-0.47 -3.8,-1.42 -1.01,-0.93 -1.52,-2.15 -1.52,-3.65 0,-1.44 0.45,-2.65 1.36,-3.62 0.92,-0.97 2.1,-1.46 3.55,-1.46 0.77,0 1.46,0.16 2.06,0.47 0.6,0.31 1.07,0.72 1.42,1.23 0.35,0.51 0.61,1.04 0.78,1.61 0.17,0.57 0.26,1.14 0.26,1.71l0 0.4 -7.95 0c0.08,1.04 0.5,1.87 1.25,2.49 0.75,0.62 1.71,0.93 2.87,0.93 1.12,0 2.16,-0.3 3.1,-0.9l0 1.28c-0.79,0.61 -1.92,0.92 -3.38,0.92zm-3.82 -5.91l6.47 0c-0.04,-0.75 -0.32,-1.42 -0.84,-2.02 -0.49,-0.61 -1.26,-0.92 -2.28,-0.92 -0.96,0 -1.75,0.29 -2.36,0.88 -0.6,0.6 -0.93,1.29 -0.98,2.06zm12.08 5.67l-1.44 0 0 -9.67 1.44 0 0 1.84c0.36,-0.63 0.89,-1.13 1.6,-1.51 0.71,-0.38 1.45,-0.57 2.24,-0.57l0 1.46c-0.44,0 -0.84,0.06 -1.2,0.18 -0.61,0.16 -1.16,0.44 -1.62,0.83 -0.47,0.39 -0.81,0.84 -1.02,1.33l0 6.11z"/>
  <polygon class="fil5" points="-0,0 896.41,0 896.41,602.48 -0,602.48 "/>
 </g>
</svg>
