<svg width="84" height="84" fill="none" xmlns="http://www.w3.org/2000/svg"><path d="M42 84c23.196 0 42-18.804 42-42S65.196 0 42 0 0 18.804 0 42s18.804 42 42 42z" fill="#fff" fill-opacity=".2"/><g clip-path="url(#clip0_370_304)"><path d="M42.08 7C61.824 7.175 77.136 23.026 77 42.098 76.86 61.593 61.192 77.1 41.981 77 22.442 76.898 6.907 61.212 7 41.871 7.095 22.303 22.871 7.063 42.08 7zm-.056 44.612c-3.528.086-6.834.834-9.68 2.995-2.376 1.804-3.727 4.2-3.946 7.209-.046.644.138.707.708.5 1.448-.525 2.903-1.04 4.382-1.465 4.053-1.165 8.161-1.631 12.374-.99 3.095.472 6.073 1.33 8.986 2.436.672.254.835.11.772-.582-.269-2.892-1.543-5.238-3.824-7.015-2.874-2.24-6.232-2.999-9.773-3.09v.002zM29.386 39.965c2.584-.002 4.706-2.102 4.715-4.667.01-2.58-2.08-4.674-4.685-4.697-2.628-.024-4.784 2.11-4.76 4.709.025 2.571 2.145 4.657 4.73 4.655zm25.235-9.364c-2.61.004-4.693 2.067-4.7 4.658-.006 2.631 2.093 4.716 4.74 4.706 2.58-.009 4.684-2.128 4.669-4.7a4.683 4.683 0 00-4.71-4.665zm7.1-4.444c.316-.124 1.019.223 1.178-.296.165-.533.071-1.226-.135-1.764-.145-.377-.726-.13-1.108-.14-3.375-.11-6.195-1.238-7.967-4.298-.176-.305-.34-.412-.674-.225a3.078 3.078 0 01-.793.312c-.715.17-.8.465-.406 1.104 2.25 3.645 5.618 5.192 9.906 5.307zm-37.143-2.205c-1.195.01-1.812.449-1.85 1.318-.003.057.002.116-.01.17-.124.527.099.718.62.725 4.033.056 7.516-1.141 9.924-4.548 1.288-1.822 1.139-1.366-.714-2.178-.384-.168-.495.001-.652.27-1.749 2.996-4.522 4.11-7.318 4.242v.001z" fill="#E03C4A"/></g><defs><clipPath id="clip0_370_304"><path fill="#fff" transform="translate(7 7)" d="M0 0h70v70H0z"/></clipPath></defs></svg>