<svg width="84" height="84" fill="none" xmlns="http://www.w3.org/2000/svg"><path d="M42 84c23.196 0 42-18.804 42-42S65.196 0 42 0 0 18.804 0 42s18.804 42 42 42z" fill="#fff" fill-opacity=".2"/><g clip-path="url(#clip0_370_309)" fill="#E03C4A"><path d="M40.65 76.915c.643-.125 1.095-.189 1.533-.302 2.67-.69 3.616-3.793 1.767-5.831-.276-.304-.306-.494-.144-.878.594-1.412.374-2.732-.66-3.874-.237-.26-.313-.423-.138-.77.453-.898.465-1.86.104-2.786-.178-.456-.079-.516.36-.58 1.44-.211 2.88-.437 4.304-.733 1.983-.413 3.2-2.243 2.808-4.118-.418-1.992-2.156-3.17-4.181-2.824-4.991.85-9.98 1.707-14.972 2.557-.74.126-1.464.102-2.174-.21-.735-.326-1.497-.588-2.238-.897-1.545-.645-2.056-1.443-2.085-3.104-.027-1.566.152-3.142-.189-4.693-.725-3.3-3.535-5.624-6.944-5.76-.973-.037-1.416.396-1.418 1.427-.007 2.638-.04 5.276.013 7.914.029 1.434-.337 2.695-1.145 3.865-.768 1.112-1.476 2.26-1.705 3.632-.178 1.067-.048 2.126.086 3.186.01.081.009.164.015.288-8.148-10.712-9.815-28.372.745-41.88 10.833-13.86 29.909-17.578 45.062-8.852 15.046 8.664 21.53 27.203 15.034 43.27-6.814 16.86-22.972 22.748-33.838 21.952zm7.318-49.71c-.14.253-.253.434-.345.625-1.21 2.486-1.152 4.933.38 7.25 1.75 2.645 5.06 3.165 7.365 1.19 1.709-1.463 2.35-3.39 2.253-5.598-.041-.95-.35-1.838-.74-2.82.636.208 1.142.392 1.66.538.673.19 1.303-.127 1.482-.713.191-.624-.1-1.201-.754-1.467a8.228 8.228 0 00-.8-.274c-3.485-1.01-7.039-1.316-10.652-1.064-1.101.077-1.637.432-1.64 1.177-.005.774.553 1.156 1.79 1.156zm-9.444 2.883c.003-1.508-.451-2.94-1.299-4.093-2.02-2.749-5.607-2.946-7.88-.431-2.295 2.535-2.165 6.942.273 9.336 1.903 1.868 4.639 1.998 6.666.274 1.557-1.325 2.206-3.076 2.24-5.086zm-1.46 16.022c-.673.031-1.349.042-2.02.1-.797.072-1.266.859-.954 1.568.245.558.703.71 1.28.685 2.69-.117 5.335.173 7.929.903a20.11 20.11 0 014.884 2.11c.642.382 1.295.22 1.642-.346.344-.56.16-1.204-.471-1.623a9.733 9.733 0 00-.617-.367c-3.624-2.034-7.552-2.894-11.673-3.031zm-3.939-26.577c-2.793-.012-5.54.15-8.208.976-.812.252-1.162.818-.957 1.508.186.629.82.915 1.592.687 3.117-.916 6.298-.957 9.5-.72.41.03.824.053 1.232.112.826.119 1.437-.235 1.534-.913.108-.754-.336-1.294-1.206-1.379-1.168-.115-2.34-.183-3.487-.27v-.001z"/><path d="M18.715 44.596c2.09.307 3.865 2.45 3.91 4.71.023 1.22.013 2.442.005 3.663-.01 1.454.446 2.76 1.587 3.645 1.94 1.505 4.17 2.486 6.642 2.509 1.435.013 2.876-.408 4.31-.65 3.9-.658 7.798-1.326 11.698-1.984.707-.119 1.304.31 1.44 1.003.13.659-.24 1.273-.947 1.403-2.03.373-4.067.707-6.102 1.048-3.45.578-6.901 1.145-10.35 1.728-.764.13-1.198.718-1.072 1.378.126.66.71.997 1.496.865 2.613-.442 5.227-.883 7.841-1.323a4.59 4.59 0 01.52-.055c.677-.03 1.209.36 1.348.985.124.558-.159 1.106-.78 1.347-.897.348-1.866.392-2.805.56-1.988.36-3.98.688-5.971 1.034-.603.105-.917.505-.944 1.085-.025.526.251.913.753 1.11.275.109.554.05.835.002 2.677-.46 5.355-.915 8.033-1.367.537-.09 1.054-.066 1.412.432.29.405.344.838.116 1.292-.213.427-.594.636-1.038.712-2.612.451-5.226.89-7.838 1.334a7.646 7.646 0 00-.575.114c-.65.163-1.05.701-.956 1.274.109.65.694 1.07 1.397.96 1.117-.174 2.23-.37 3.344-.562 1.627-.28 3.253-.574 4.882-.842.953-.158 1.609.268 1.702 1.062.081.697-.46 1.243-1.344 1.39-4.608.767-9.224 1.487-13.818 2.327-3.373.616-6.257-.08-8.556-2.721-1.268-1.456-1.743-3.22-1.983-5.085a545.66 545.66 0 00-1.11-8.147c-.145-1.014.047-1.944.5-2.839.078-.154.15-.318.258-.452 1.83-2.287 2.364-4.914 2.181-7.785-.108-1.714-.02-3.439-.02-5.166v.005zm36.61-12.915c-.02.757-.38 1.847-1.283 2.704-1.09 1.034-2.603 1.014-3.688-.027-1.647-1.583-1.678-4.706-.065-6.331 1.054-1.061 2.476-1.13 3.636-.178.916.75 1.408 1.936 1.4 3.832zM36.24 30.122c-.032 1.13-.345 2.197-1.17 3.06-1.16 1.214-2.835 1.19-3.97-.041-1.482-1.605-1.48-4.509.002-6.108 1.179-1.271 2.914-1.258 4.057.047.75.855 1.057 1.88 1.08 3.042h.002z"/></g><defs><clipPath id="clip0_370_309"><path fill="#fff" transform="translate(7 7)" d="M0 0h70v70H0z"/></clipPath></defs></svg>