<?xml version="1.0" encoding="UTF-8"?>
<!DOCTYPE svg PUBLIC "-//W3C//DTD SVG 1.1//EN" "http://www.w3.org/Graphics/SVG/1.1/DTD/svg11.dtd">
<!-- Creator: CorelDRAW 2019 (64-Bit) -->
<svg xmlns="http://www.w3.org/2000/svg" xml:space="preserve" width="159.544mm" height="87.3122mm" version="1.1" style="shape-rendering:geometricPrecision; text-rendering:geometricPrecision; image-rendering:optimizeQuality; fill-rule:evenodd; clip-rule:evenodd"
viewBox="0 0 2605.14 1425.69"
 xmlns:xlink="http://www.w3.org/1999/xlink">
 <defs>
  <style type="text/css">
   <![CDATA[
    .fil0 {fill:none}
    .fil5 {fill:none;fill-rule:nonzero}
    .fil2 {fill:#095540}
    .fil4 {fill:#C4D34C}
    .fil3 {fill:#FAF9F4}
    .fil1 {fill:#FEFEFE;fill-rule:nonzero}
   ]]>
  </style>
 </defs>
 <g id="Слой_x0020_1">
  <metadata id="CorelCorpID_0Corel-Layer"/>
  <rect class="fil0" x="0" y="0" width="2605.14" height="1425.69"/>
  <g id="_2957037979280">
   <path class="fil1" d="M1296.6 1049.55c89.79,0 171.09,-36.29 229.93,-94.97 58.85,-58.66 95.24,-139.73 95.24,-229.26 0,-89.54 -36.39,-170.6 -95.22,-229.26 -58.85,-58.66 -140.14,-94.97 -229.93,-94.97 -89.79,0 -171.09,36.29 -229.93,94.97 -58.85,58.66 -95.24,139.73 -95.24,229.26 0,89.54 36.39,170.58 95.24,229.26 58.85,58.66 140.14,94.97 229.93,94.97l-0.02 0zm232.23 -92.65c-59.44,59.26 -141.54,95.91 -232.23,95.91 -90.68,0 -172.79,-36.67 -232.23,-95.91 -59.44,-59.26 -96.2,-141.14 -96.2,-231.56 0,-90.42 36.77,-172.3 96.2,-231.56 59.42,-59.26 141.54,-95.93 232.23,-95.93 90.69,0 172.79,36.65 232.23,95.91 59.44,59.26 96.2,141.14 96.2,231.56 0,90.42 -36.77,172.3 -96.2,231.56l0 0.02z"/>
   <path class="fil2" d="M1102.68 1062.41c38.8,0 70.25,-31.47 70.25,-70.31 0,-38.82 -31.45,-70.31 -70.25,-70.31 -38.8,0 -70.25,31.47 -70.25,70.31 0,38.82 31.45,70.31 70.25,70.31z"/>
   <path class="fil2" d="M1490.74 1067.44c38.8,0 70.25,-31.49 70.25,-70.31 0,-38.82 -31.45,-70.31 -70.25,-70.31 -38.8,0 -70.25,31.47 -70.25,70.31 0,38.82 31.45,70.31 70.25,70.31z"/>
   <path class="fil2" d="M993.97 679.11c38.8,0 70.25,-31.49 70.25,-70.31 0,-38.82 -31.45,-70.31 -70.25,-70.31 -38.8,0 -70.25,31.47 -70.25,70.31 0,38.82 31.45,70.31 70.25,70.31z"/>
   <path class="fil2" d="M1594.44 677.43c38.8,0 70.25,-31.47 70.25,-70.31 0,-38.82 -31.45,-70.31 -70.25,-70.31 -38.8,0 -70.25,31.47 -70.25,70.31 0,38.82 31.45,70.31 70.25,70.31z"/>
   <path class="fil2" d="M1302.56 488.8c39.07,0 70.76,-31.58 70.76,-70.54 0,-38.97 -31.69,-70.54 -70.76,-70.54 -39.07,0 -70.76,31.58 -70.76,70.54 0,38.97 31.67,70.54 70.76,70.54z"/>
   <path class="fil3" d="M1574.61 531.98l-21.2 11.61 18.6 8.78 2.61 -20.39zm-42.91 401.64l20.39 12.98 -19.14 7.53 -1.25 -20.52zm-372.09 84.52l20.46 -2.19 -12.04 20.95 -8.42 -18.76zm-183.98 -349.44l8.24 18.85 -23.61 -5.2 15.39 -13.65 -0.02 0zm250.1 -249.89l0.42 -24.15 16.44 12.37 -16.84 11.79 -0.02 -0z"/>
   <path class="fil4" d="M1272.36 380.81l60.42 0c2.72,0 5.05,1.01 6.92,3.01 1.85,1.99 2.7,4.4 2.5,7.12l-4.13 55.98c-0.36,4.94 -4.45,8.75 -9.42,8.75l-22.52 0 0 -30.13c0,-1.96 -1.61,-3.57 -3.57,-3.57l0 0c-1.96,0 -3.57,1.61 -3.57,3.57l0 30.13 -22.52 0c-4.96,0 -9.03,-3.8 -9.42,-8.75l-4.13 -55.98c-0.2,-2.72 0.65,-5.12 2.5,-7.12 1.85,-1.99 4.2,-3.01 6.92,-3.01l0.01 0zm18.54 12.66l23.36 0c2.84,0 5.16,2.32 5.16,5.16l0 5.7c0,2.84 -2.32,5.16 -5.16,5.16l-6.75 0 3.89 -7.48c0.6,-1.14 0.2,-2.53 -0.89,-3.19l-0.24 -0.15c-1.09,-0.67 -2.52,-0.38 -3.24,0.67l-7.15 10.14 -8.96 0c-2.84,0 -5.16,-2.32 -5.16,-5.16l0 -5.7c0,-2.84 2.32,-5.16 5.16,-5.16l-0.02 0z"/>
   <path class="fil4" d="M1594.44 549.27c31.96,0 57.87,25.91 57.87,57.87 0,31.96 -25.91,57.87 -57.87,57.87 -31.96,0 -57.87,-25.91 -57.87,-57.87 0,-31.96 25.91,-57.87 57.87,-57.87zm13.92 55.7l-13.92 8.56 -13.92 -8.56c-2.84,-1.74 -6.59,-0.85 -8.33,1.99l-2.41 3.93c-1.74,2.84 -0.85,6.59 1.99,8.33l6.72 4.13 -6.72 4.13c-2.84,1.74 -3.73,5.49 -1.99,8.33l2.41 3.93c1.74,2.84 5.49,3.73 8.33,1.99l13.92 -8.56 13.92 8.56c2.84,1.74 6.59,0.85 8.33,-1.99l2.41 -3.93c1.74,-2.84 0.85,-6.59 -1.99,-8.33l-6.72 -4.13 6.72 -4.13c2.84,-1.74 3.73,-5.49 1.99,-8.33l-2.41 -3.93c-1.74,-2.84 -5.49,-3.73 -8.33,-1.99zm-35.51 -25.1c3.11,0 5.63,2.52 5.63,5.63 0,3.11 -2.52,5.63 -5.63,5.63 -3.11,0 -5.63,-2.52 -5.63,-5.63 0,-3.11 2.52,-5.63 5.63,-5.63zm43.18 0c3.11,0 5.63,2.52 5.63,5.63 0,3.11 -2.52,5.63 -5.63,5.63 -3.11,0 -5.63,-2.52 -5.63,-5.63 0,-3.11 2.52,-5.63 5.63,-5.63z"/>
   <path class="fil4" d="M1490.74 939.27c31.96,0 57.87,25.91 57.87,57.87 0,31.96 -25.91,57.87 -57.87,57.87 -31.96,0 -57.87,-25.91 -57.87,-57.87 0,-31.96 25.91,-57.87 57.87,-57.87zm-20.22 81.77c-0.74,0.76 -1.96,0.76 -2.72,0.02 -0.76,-0.74 -0.76,-1.96 -0.02,-2.72l12.46 -12.73c-0.43,-6.68 -3.31,-11.81 -3.33,-11.82 -0.51,-0.92 -0.18,-2.1 0.74,-2.61 0.92,-0.51 2.1,-0.18 2.61,0.74 0,0.02 2.39,4.26 3.4,10.18l10.72 -10.95c2.59,-8.78 -2.14,-15.5 -2.16,-15.52 -0.6,-0.87 -0.38,-2.06 0.51,-2.66 0.87,-0.6 2.06,-0.38 2.66,0.51 0.02,0.02 3.78,5.36 3.59,12.98l10.18 -10.41c0.74,-0.76 1.96,-0.76 2.72,-0.02 0.76,0.74 0.76,1.96 0.02,2.72l-9.85 10.05c7.98,-0.53 12.95,4.11 12.96,4.13 0.78,0.72 0.83,1.94 0.11,2.72 -0.72,0.78 -1.94,0.83 -2.72,0.11 -0.02,-0.02 -5.92,-5.54 -15.26,-1.94l-10.65 10.88c6.14,0.71 9.61,2.77 9.63,2.77 0.92,0.53 1.23,1.7 0.71,2.63 -0.53,0.92 -1.7,1.23 -2.63,0.71 -0.02,0 -3.98,-2.35 -11.23,-2.5l-12.48 12.75 0.01 0zm47.82 -34.17c2.3,1.59 3.8,4.27 3.77,7.28 -0.05,4.83 -4,8.71 -8.84,8.67 -0.9,-0.02 -1.76,-0.15 -2.57,-0.42 1.77,1.61 2.88,3.96 2.86,6.55 -0.05,4.83 -4,8.71 -8.84,8.67 -1.68,-0.02 -3.24,-0.51 -4.56,-1.34 1.14,1.5 1.83,3.37 1.79,5.41 -0.05,4.83 -4,8.71 -8.84,8.67 -2.99,-0.04 -5.61,-1.56 -7.17,-3.86 -8.84,-5.69 -16.39,4.09 -23.14,-2.17 -6.37,-5.9 2.14,-15.68 -2.25,-23.23 -1.03,-0.87 -1.38,-1.47 -2.08,-2.53 -0.69,-1.25 -1.07,-2.68 -1.07,-4.18 0,-4.83 3.91,-8.76 8.75,-8.76 2.03,0 3.91,0.69 5.39,1.85 -0.81,-1.34 -1.3,-2.9 -1.3,-4.58 0,-4.83 3.93,-8.76 8.76,-8.76 2.59,0 4.92,1.12 6.52,2.91 -0.25,-0.81 -0.38,-1.68 -0.38,-2.57 0,-4.83 3.91,-8.76 8.76,-8.76 3.01,0 5.67,1.52 7.24,3.84 2.23,-3.4 6.07,-5.65 10.43,-5.65 6.92,0 12.6,5.58 12.55,12.6 -0.04,4.36 -2.33,8.18 -5.76,10.38l-0.04 -0.02zm-27.59 -30.02c6.03,0 11.73,1.32 16.86,3.69 1.27,-0.31 2.59,-0.49 3.95,-0.49l0.02 0.02 0.15 0c4.45,0.04 8.51,1.86 11.44,4.78 2.95,2.93 4.78,6.99 4.78,11.51l0 0.16c-0.02,1.36 -0.2,2.66 -0.51,3.91 2.32,5.09 3.6,10.74 3.6,16.69 0,11.12 -4.51,21.2 -11.81,28.48 -7.3,7.3 -17.36,11.81 -28.48,11.81 -8.4,0 -16.2,-2.57 -22.67,-6.97 -2.61,0 -5.22,-0.78 -7.91,-3.3 -2.97,-2.75 -3.78,-5.76 -3.75,-8.91 -3.78,-6.14 -5.97,-13.36 -5.97,-21.11 0,-11.12 4.51,-21.2 11.81,-28.48 7.3,-7.3 17.36,-11.81 28.48,-11.81l0.02 0zm11.77 5.96c-3.69,-1.27 -7.64,-1.96 -11.77,-1.96 -16.53,0 -30.49,11.06 -34.86,26.2 0.4,-0.56 0.85,-1.09 1.34,-1.58 2.28,-2.28 5.43,-3.69 8.91,-3.69l0.29 0c0.27,-3.04 1.61,-5.76 3.64,-7.8 2.28,-2.28 5.43,-3.69 8.91,-3.69 1,0 1.96,0.13 2.9,0.34 0.62,-1.94 1.68,-3.66 3.1,-5.07 2.28,-2.28 5.43,-3.69 8.91,-3.69 2.12,0 4.11,0.53 5.88,1.47 0.4,0.22 0.78,0.43 1.14,0.69 0.51,-0.43 1.03,-0.85 1.59,-1.21l0.02 0zm-48.22 27.25c-0.04,0.09 -0.07,0.18 -0.09,0.27 0.04,-0.09 0.07,-0.18 0.09,-0.27zm-0.54 1.94c-0.02,0.11 -0.04,0.2 -0.05,0.31 0.02,-0.11 0.04,-0.2 0.05,-0.31zm0.76 7.24c0.25,4.29 1.23,8.38 2.84,12.15 0.54,-2.84 1.03,-5.76 0.07,-7.91 -0.89,-0.83 -1.34,-1.5 -1.96,-2.46l0 0 -0.24 -0.36 -0.16 -0.29c-0.2,-0.38 -0.4,-0.76 -0.56,-1.14l0 0.02zm19.7 30.2c4.36,2.23 9.23,3.6 14.4,3.91 -0.49,-0.18 -0.94,-0.4 -1.39,-0.63 -1.5,-0.81 -2.84,-1.94 -3.91,-3.28 -2.86,-1.54 -5.92,-0.78 -8.8,-0.05l-0.29 0.07 -0 -0.02zm25.71 2.79c15.59,-4.07 27.11,-18.25 27.11,-35.11 0,-4.06 -0.67,-7.97 -1.9,-11.62 -0.38,0.56 -0.8,1.1 -1.25,1.61 0.25,0.38 0.47,0.76 0.67,1.16 0.9,1.76 1.41,3.75 1.39,5.87l0.02 0 -0.02 0.04c-0.04,3.48 -1.47,6.63 -3.77,8.87 -1.41,1.39 -3.17,2.44 -5.11,3.04 0.2,0.92 0.31,1.88 0.31,2.86l0.02 0 -0.02 0.04c-0.04,3.48 -1.47,6.63 -3.77,8.87 -2.06,2.01 -4.8,3.33 -7.84,3.57l0 0.31c-0.04,3.48 -1.47,6.63 -3.77,8.87 -0.63,0.62 -1.32,1.16 -2.06,1.65l-0.02 -0.02z"/>
   <path class="fil4" d="M1102.68 934.23c31.96,0 57.87,25.91 57.87,57.87 0,13.8 -4.83,26.47 -12.89,36.41 -1.07,-0.89 -2.01,-2.03 -3.01,-3.21 -3.02,-3.6 -6.27,-7.46 -13.18,-7.59 -6.63,-0.13 -9.18,3.57 -11.81,7.39 -2.17,3.15 -4.42,6.41 -10.07,6.32 -5.81,-0.11 -8.35,-3.48 -10.76,-6.68 -2.77,-3.71 -5.41,-7.24 -11.59,-7.24 -6.99,0 -11.01,4.09 -14.88,8.02 -2.5,2.55 -4.92,5.02 -7.89,5.74 -1.36,0.33 -2.66,0.51 -3.89,0.56 -9.78,-10.36 -15.79,-24.33 -15.79,-39.71 0,-31.96 25.91,-57.87 57.87,-57.87l0.02 -0.02zm42.31 97.34c-10.56,11.32 -25.6,18.4 -42.31,18.4 -14.74,0 -28.17,-5.5 -38.4,-14.57 0.38,-0.07 0.76,-0.16 1.14,-0.25 4.07,-1 6.9,-3.86 9.81,-6.81 3.28,-3.33 6.7,-6.83 12.02,-6.83 4.18,0 6.23,2.73 8.4,5.61 2.97,3.96 6.1,8.15 13.89,8.29 7.79,0.13 10.65,-4.02 13.42,-8.04 2.01,-2.91 3.96,-5.74 8.45,-5.67 5.07,0.09 7.7,3.22 10.18,6.17 1.1,1.32 2.19,2.61 3.42,3.68l-0.02 0.01zm-72.73 -16.59c-0.62,0.92 -1.86,1.18 -2.77,0.56 -0.92,-0.62 -1.18,-1.86 -0.56,-2.77l5.74 -8.62c0.62,-0.92 1.86,-1.18 2.77,-0.56 0.92,0.62 1.18,1.86 0.56,2.77l-5.74 8.62zm57.92 -8.82c-0.74,-0.81 -0.69,-2.08 0.13,-2.82 0.81,-0.74 2.08,-0.69 2.82,0.13l7.17 7.84c0.74,0.81 0.69,2.08 -0.13,2.82 -0.81,0.74 -2.08,0.69 -2.82,-0.13l-7.17 -7.84zm9.45 -19.48c-0.6,0.92 -1.83,1.2 -2.77,0.6 -0.92,-0.6 -1.2,-1.83 -0.6,-2.75l5.74 -8.94c0.6,-0.92 1.83,-1.2 2.75,-0.6 0.92,0.6 1.2,1.83 0.6,2.77l-5.74 8.94 0.02 -0.02zm-19.63 -29.79c-0.8,-0.76 -0.83,-2.03 -0.07,-2.82 0.76,-0.8 2.03,-0.83 2.82,-0.07l7.41 7.06c0.8,0.76 0.83,2.03 0.07,2.82 -0.76,0.8 -2.03,0.83 -2.82,0.07l-7.41 -7.06zm-23.97 -1.07c-0.58,0.94 -1.81,1.23 -2.75,0.65 -0.94,-0.58 -1.23,-1.81 -0.65,-2.75l5.74 -9.27c0.58,-0.94 1.81,-1.23 2.75,-0.65 0.94,0.58 1.23,1.81 0.65,2.75l-5.74 9.27zm-22.76 3.58c-0.54,-0.96 -0.22,-2.17 0.74,-2.73 0.96,-0.54 2.19,-0.22 2.73,0.74l5.2 9.05c0.54,0.96 0.22,2.19 -0.74,2.73 -0.96,0.54 -2.17,0.22 -2.73,-0.74l-5.2 -9.05zm-12.22 14.65c0.58,-0.94 1.81,-1.23 2.75,-0.67 0.94,0.58 1.25,1.81 0.67,2.75l-5.2 8.51c-0.58,0.94 -1.81,1.23 -2.75,0.67 -0.94,-0.58 -1.23,-1.81 -0.67,-2.75l5.2 -8.51zm42.24 3.48c7.62,0 13.8,6.17 13.8,13.8 0,7.62 -6.17,13.8 -13.8,13.8 -7.62,0 -13.8,-6.17 -13.8,-13.8 0,-7.62 6.17,-13.8 13.8,-13.8z"/>
   <path class="fil4" d="M993.97 550.94c31.96,0 57.87,25.91 57.87,57.87 0,31.96 -25.91,57.87 -57.87,57.87 -31.96,0 -57.87,-25.91 -57.87,-57.87 0,-31.96 25.91,-57.87 57.87,-57.87zm-9.38 42.1c-0.16,3.28 -1.58,6.25 -3.75,8.42 -2.32,2.32 -5.54,3.77 -9.07,3.77 -3.55,0 -6.75,-1.43 -9.07,-3.77 -2.17,-2.17 -3.59,-5.14 -3.75,-8.42l4.02 0c0.34,4.56 4.15,8.17 8.82,8.17 4.65,0 8.47,-3.6 8.82,-8.17l4.02 0 -0.04 0zm-2.01 -14.12c-5.58,4.65 -13.13,7.53 -21.4,7.53l-0.15 0 0.45 -4c6.66,-0.07 12.77,-2.21 17.44,-5.7l3.66 2.19 0 -0.02zm20.75 14.12c0.16,3.28 1.58,6.25 3.75,8.42 2.32,2.32 5.54,3.77 9.07,3.77 3.55,0 6.75,-1.43 9.07,-3.77 2.17,-2.17 3.59,-5.14 3.75,-8.42l-4.02 0c-0.34,4.56 -4.15,8.17 -8.82,8.17 -4.65,0 -8.47,-3.6 -8.82,-8.17l-4.02 0 0.04 0zm2.01 -14.12c5.58,4.65 13.13,7.53 21.4,7.53l0.15 0 -0.45 -4c-6.66,-0.07 -12.77,-2.21 -17.44,-5.7l-3.66 2.19 -0 -0.02zm-26.18 42.39l29.6 0c6.14,0 11.15,5.02 11.15,11.15l0 0c0,6.14 -5.02,11.15 -11.15,11.15l-29.6 0c-6.14,0 -11.15,-5.02 -11.15,-11.15l0 0c0,-6.14 5.02,-11.15 11.15,-11.15z"/>
   <path class="fil1" d="M1237.2 224.97l-14.74 0 0 -41.79 14.74 0c6.68,0 12.15,1.96 16.42,5.85 4.26,3.89 6.39,8.91 6.39,15.05 0,6.17 -2.14,11.21 -6.39,15.1 -4.22,3.86 -9.69,5.79 -16.42,5.79zm-8.18 -35.76l0 29.73 7.59 0c5.25,0 9.33,-1.34 12.24,-4 2.95,-2.7 4.42,-6.32 4.42,-10.86 0,-4.54 -1.47,-8.17 -4.42,-10.86 -2.9,-2.66 -6.99,-4 -12.24,-4l-7.59 0zm42.99 35.76l-6.99 0 18.27 -42.03 6.32 0 18.27 42.03 -7.04 0 -4.54 -10.39 -19.83 0 -4.47 10.39 0.02 0zm14.39 -33.73l-7.64 17.55 15.28 0 -7.64 -17.55 -0 0zm46.5 33.73l-6.57 0 0 -18.92 -16.19 -22.87 7.64 0 11.93 16.89 11.93 -16.89 7.41 0 -16.19 22.69 0 19.1 0.04 0zm49.79 0l-6.45 0 0 -34.75 -9.13 4.89 0 -6.39 9.85 -5.56 5.74 0 0 41.79 -0.02 0.02z"/>
   <path class="fil1" d="M1133.1 267.9l0 -10.66 2.61 0 0 25.38 -2.61 0 0 -2.79c-1.65,2.16 -3.91,3.22 -6.79,3.22 -2.59,0 -4.71,-0.89 -6.34,-2.68 -1.65,-1.79 -2.46,-3.95 -2.46,-6.48 0,-2.55 0.81,-4.74 2.46,-6.52 1.65,-1.79 3.77,-2.68 6.34,-2.68 2.88,0 5.14,1.07 6.79,3.22l0 -0.02zm0 8.86l0 -5.76c-0.51,-1.16 -1.32,-2.12 -2.46,-2.84 -1.14,-0.74 -2.37,-1.1 -3.69,-1.1 -1.96,0 -3.57,0.67 -4.82,1.99 -1.29,1.32 -1.92,2.95 -1.92,4.85 0,1.92 0.63,3.53 1.92,4.85 1.29,1.3 2.9,1.96 4.82,1.96 1.3,0 2.53,-0.36 3.66,-1.1 1.14,-0.74 1.97,-1.68 2.5,-2.84l0 -0zm17.15 6.3c-2.73,0 -5.03,-0.85 -6.88,-2.57 -1.83,-1.68 -2.75,-3.89 -2.75,-6.61 0,-2.61 0.81,-4.8 2.46,-6.55 1.67,-1.76 3.8,-2.64 6.43,-2.64 1.39,0 2.64,0.29 3.73,0.85 1.09,0.56 1.94,1.3 2.57,2.23 0.63,0.92 1.1,1.88 1.41,2.91 0.31,1.03 0.47,2.06 0.47,3.1l0 0.72 -14.4 0c0.15,1.88 0.9,3.39 2.26,4.51 1.36,1.12 3.1,1.68 5.2,1.68 2.03,0 3.91,-0.54 5.61,-1.63l0 2.32c-1.43,1.1 -3.48,1.67 -6.12,1.67l0 0.02zm-6.92 -10.7l11.71 0c-0.07,-1.36 -0.58,-2.57 -1.52,-3.66 -0.89,-1.1 -2.28,-1.67 -4.13,-1.67 -1.74,0 -3.17,0.53 -4.27,1.59 -1.09,1.09 -1.68,2.33 -1.77,3.73l-0.02 0zm27.3 10.7c-2.68,0 -4.91,-0.87 -6.66,-2.61 -1.76,-1.76 -2.64,-3.96 -2.64,-6.61 0,-2.61 0.89,-4.78 2.68,-6.52 1.76,-1.76 3.98,-2.64 6.66,-2.64 2.03,0 3.8,0.42 5.29,1.27l0 2.43c-1.58,-0.89 -3.22,-1.34 -4.92,-1.34 -2.03,0 -3.71,0.65 -5.03,1.96 -1.32,1.25 -1.99,2.9 -1.99,4.89 0,1.96 0.67,3.59 1.99,4.89 1.36,1.29 3.04,1.92 5.03,1.92 1.94,0 3.69,-0.51 5.25,-1.52l0 2.39c-1.65,1 -3.53,1.48 -5.65,1.48l0 0.02zm13.96 -0.43l-2.61 0 0 -17.51 2.61 0 0 17.51zm-2.61 -22.23c-0.34,-0.36 -0.51,-0.8 -0.51,-1.3 0,-0.51 0.16,-0.94 0.51,-1.3 0.36,-0.36 0.8,-0.54 1.3,-0.54 0.51,0 0.94,0.18 1.3,0.54 0.36,0.36 0.54,0.8 0.54,1.3 0,0.51 -0.18,0.94 -0.54,1.3 -0.36,0.34 -0.8,0.51 -1.3,0.51 -0.51,0 -0.94,-0.16 -1.3,-0.51zm23.57 7.49l0 -10.66 2.61 0 0 25.38 -2.61 0 0 -2.79c-1.65,2.16 -3.91,3.22 -6.79,3.22 -2.59,0 -4.71,-0.89 -6.34,-2.68 -1.65,-1.79 -2.46,-3.95 -2.46,-6.48 0,-2.55 0.81,-4.74 2.46,-6.52 1.65,-1.79 3.77,-2.68 6.34,-2.68 2.88,0 5.14,1.07 6.79,3.22l0 -0.02zm0 8.86l0 -5.76c-0.51,-1.16 -1.32,-2.12 -2.46,-2.84 -1.14,-0.74 -2.37,-1.1 -3.69,-1.1 -1.96,0 -3.57,0.67 -4.82,1.99 -1.29,1.32 -1.92,2.95 -1.92,4.85 0,1.92 0.63,3.53 1.92,4.85 1.29,1.3 2.9,1.96 4.82,1.96 1.3,0 2.53,-0.36 3.66,-1.1 1.14,-0.74 1.97,-1.68 2.5,-2.84l0 -0zm17.15 6.3c-2.73,0 -5.03,-0.85 -6.88,-2.57 -1.83,-1.68 -2.75,-3.89 -2.75,-6.61 0,-2.61 0.81,-4.8 2.46,-6.55 1.67,-1.76 3.8,-2.64 6.43,-2.64 1.39,0 2.64,0.29 3.73,0.85 1.09,0.56 1.94,1.3 2.57,2.23 0.63,0.92 1.1,1.88 1.41,2.91 0.31,1.03 0.47,2.06 0.47,3.1l0 0.72 -14.4 0c0.15,1.88 0.9,3.39 2.26,4.51 1.36,1.12 3.1,1.68 5.2,1.68 2.03,0 3.91,-0.54 5.61,-1.63l0 2.32c-1.43,1.1 -3.48,1.67 -6.12,1.67l0 0.02zm-6.92 -10.7l11.71 0c-0.07,-1.36 -0.58,-2.57 -1.52,-3.66 -0.89,-1.1 -2.28,-1.67 -4.13,-1.67 -1.74,0 -3.17,0.53 -4.27,1.59 -1.09,1.09 -1.68,2.33 -1.77,3.73l-0.02 0zm35.8 10.7c-1.61,0 -2.84,-0.47 -3.68,-1.43 -0.83,-0.96 -1.25,-2.28 -1.25,-3.96l0 -10.27 -4.13 0 0 -2.28 4.13 0 0 -5.39 2.61 0 0 5.39 6.12 0 0 2.28 -6.12 0 0 9.47c0,1.39 0.24,2.37 0.69,2.9 0.49,0.56 1.27,0.83 2.35,0.83 1.07,0 2.01,-0.24 2.86,-0.72l0 2.39c-0.74,0.53 -1.94,0.8 -3.59,0.8zm10.01 -15.66c1.76,-1.81 4.04,-2.72 6.83,-2.72 2.79,0 5.05,0.9 6.83,2.72 1.76,1.76 2.64,3.93 2.64,6.48 0,2.57 -0.89,4.73 -2.64,6.48 -1.79,1.79 -4.06,2.68 -6.83,2.68 -2.75,0 -5.03,-0.89 -6.83,-2.68 -1.76,-1.76 -2.64,-3.93 -2.64,-6.48 0,-2.55 0.89,-4.73 2.64,-6.48zm13.6 6.48c0,-1.94 -0.63,-3.57 -1.92,-4.89 -1.29,-1.3 -2.9,-1.96 -4.85,-1.96 -1.96,0 -3.59,0.65 -4.85,1.96 -1.29,1.32 -1.92,2.95 -1.92,4.89 0,1.92 0.63,3.53 1.92,4.85 1.29,1.3 2.9,1.96 4.85,1.96 1.96,0 3.59,-0.65 4.85,-1.96 1.29,-1.32 1.92,-2.95 1.92,-4.85zm25.49 9.18c-2.73,0 -5.03,-0.85 -6.88,-2.57 -1.83,-1.68 -2.75,-3.89 -2.75,-6.61 0,-2.61 0.81,-4.8 2.46,-6.55 1.67,-1.76 3.8,-2.64 6.43,-2.64 1.39,0 2.64,0.29 3.73,0.85 1.09,0.56 1.94,1.3 2.57,2.23 0.63,0.92 1.1,1.88 1.41,2.91 0.31,1.03 0.47,2.06 0.47,3.1l0 0.72 -14.4 0c0.15,1.88 0.9,3.39 2.26,4.51 1.36,1.12 3.1,1.68 5.2,1.68 2.03,0 3.91,-0.54 5.61,-1.63l0 2.32c-1.43,1.1 -3.48,1.67 -6.12,1.67l0 0.02zm-6.92 -10.7l11.71 0c-0.07,-1.36 -0.58,-2.57 -1.52,-3.66 -0.89,-1.1 -2.28,-1.67 -4.13,-1.67 -1.74,0 -3.17,0.53 -4.27,1.59 -1.09,1.09 -1.68,2.33 -1.77,3.73l-0.02 0zm25.17 8.35c1.21,0 2.35,-0.27 3.44,-0.83 1.09,-0.56 1.97,-1.25 2.64,-2.1l0 -2.43c-1.79,-1.16 -3.69,-1.74 -5.69,-1.74 -1.59,0 -2.86,0.31 -3.78,0.94 -0.92,0.63 -1.39,1.48 -1.39,2.57 0,1.14 0.45,2.01 1.34,2.64 0.89,0.63 2.05,0.94 3.44,0.94l0 -0zm-0.72 2.35c-1.86,0 -3.44,-0.51 -4.74,-1.52 -1.29,-1.07 -1.92,-2.5 -1.92,-4.27 0,-1.76 0.67,-3.19 2.03,-4.24 1.36,-1.03 3.08,-1.56 5.14,-1.56 2.26,0 4.38,0.56 6.3,1.7l0 -1.74c0,-2.93 -1.92,-4.38 -5.76,-4.38 -2.05,0 -3.96,0.6 -5.72,1.77l0 -2.53c1.72,-1.07 3.8,-1.59 6.27,-1.59 2.39,0 4.29,0.56 5.7,1.68 1.41,1.12 2.12,2.73 2.12,4.8l0 7.22c0,0.67 0.15,1.21 0.45,1.59 0.31,0.38 0.71,0.58 1.21,0.58 0.38,0 0.72,-0.07 1.01,-0.22l0 2.03c-0.38,0.27 -0.96,0.4 -1.74,0.4 -0.87,0 -1.59,-0.24 -2.19,-0.71 -0.6,-0.47 -0.96,-1.16 -1.1,-2.08 -1.76,2.05 -4.13,3.08 -7.06,3.08l0 -0.02zm23.32 0c-1.61,0 -2.84,-0.47 -3.68,-1.43 -0.83,-0.96 -1.25,-2.28 -1.25,-3.96l0 -10.27 -4.13 0 0 -2.28 4.13 0 0 -5.39 2.61 0 0 5.39 6.12 0 0 2.28 -6.12 0 0 9.47c0,1.39 0.24,2.37 0.69,2.9 0.49,0.56 1.27,0.83 2.35,0.83 1.07,0 2.01,-0.24 2.86,-0.72l0 2.39c-0.74,0.53 -1.94,0.8 -3.59,0.8zm20.8 -12.26l0 11.82 -2.61 0 0 -25.38 2.61 0 0 10.56c1.86,-2.08 4.2,-3.11 7.01,-3.11 2.16,0 3.8,0.63 4.94,1.9 1.14,1.27 1.72,3.06 1.72,5.38l0 10.66 -2.61 0 0 -10.08c0,-3.6 -1.65,-5.39 -4.96,-5.39 -1.21,0 -2.37,0.38 -3.51,1.12 -1.16,0.74 -2.01,1.59 -2.57,2.53l-0.02 -0zm27.88 12.26c-2.73,0 -5.03,-0.85 -6.88,-2.57 -1.83,-1.68 -2.75,-3.89 -2.75,-6.61 0,-2.61 0.81,-4.8 2.46,-6.55 1.67,-1.76 3.8,-2.64 6.43,-2.64 1.39,0 2.64,0.29 3.73,0.85 1.09,0.56 1.94,1.3 2.57,2.23 0.63,0.92 1.1,1.88 1.41,2.91 0.31,1.03 0.47,2.06 0.47,3.1l0 0.72 -14.4 0c0.15,1.88 0.9,3.39 2.26,4.51 1.36,1.12 3.1,1.68 5.2,1.68 2.03,0 3.91,-0.54 5.61,-1.63l0 2.32c-1.43,1.1 -3.48,1.67 -6.12,1.67l0 0.02zm-6.92 -10.7l11.71 0c-0.07,-1.36 -0.58,-2.57 -1.52,-3.66 -0.89,-1.1 -2.28,-1.67 -4.13,-1.67 -1.74,0 -3.17,0.53 -4.27,1.59 -1.09,1.09 -1.68,2.33 -1.77,3.73l-0.02 0zm25.17 8.35c1.21,0 2.35,-0.27 3.44,-0.83 1.09,-0.56 1.97,-1.25 2.64,-2.1l0 -2.43c-1.79,-1.16 -3.69,-1.74 -5.69,-1.74 -1.59,0 -2.86,0.31 -3.78,0.94 -0.92,0.63 -1.39,1.48 -1.39,2.57 0,1.14 0.45,2.01 1.34,2.64 0.89,0.63 2.05,0.94 3.44,0.94l0 -0zm-0.72 2.35c-1.86,0 -3.44,-0.51 -4.74,-1.52 -1.29,-1.07 -1.92,-2.5 -1.92,-4.27 0,-1.76 0.67,-3.19 2.03,-4.24 1.36,-1.03 3.08,-1.56 5.14,-1.56 2.26,0 4.38,0.56 6.3,1.7l0 -1.74c0,-2.93 -1.92,-4.38 -5.76,-4.38 -2.05,0 -3.96,0.6 -5.72,1.77l0 -2.53c1.72,-1.07 3.8,-1.59 6.27,-1.59 2.39,0 4.29,0.56 5.7,1.68 1.41,1.12 2.12,2.73 2.12,4.8l0 7.22c0,0.67 0.15,1.21 0.45,1.59 0.31,0.38 0.71,0.58 1.21,0.58 0.38,0 0.72,-0.07 1.01,-0.22l0 2.03c-0.38,0.27 -0.96,0.4 -1.74,0.4 -0.87,0 -1.59,-0.24 -2.19,-0.71 -0.6,-0.47 -0.96,-1.16 -1.1,-2.08 -1.76,2.05 -4.13,3.08 -7.06,3.08l0 -0.02zm20.37 0c-1.21,0 -2.17,-0.34 -2.91,-1.05 -0.74,-0.71 -1.1,-1.79 -1.1,-3.26l0 -21.51 2.61 0 0 20.88c0,1.72 0.76,2.57 2.28,2.57 0.6,0 1.18,-0.16 1.7,-0.47l0 2.32c-0.63,0.34 -1.48,0.51 -2.57,0.51l0 0.02zm13.53 0c-1.61,0 -2.84,-0.47 -3.68,-1.43 -0.83,-0.96 -1.25,-2.28 -1.25,-3.96l0 -10.27 -4.13 0 0 -2.28 4.13 0 0 -5.39 2.61 0 0 5.39 6.12 0 0 2.28 -6.12 0 0 9.47c0,1.39 0.24,2.37 0.69,2.9 0.49,0.56 1.27,0.83 2.35,0.83 1.07,0 2.01,-0.24 2.86,-0.72l0 2.39c-0.74,0.53 -1.94,0.8 -3.59,0.8zm11.24 -12.26l0 11.82 -2.61 0 0 -25.38 2.61 0 0 10.56c1.86,-2.08 4.2,-3.11 7.01,-3.11 2.16,0 3.8,0.63 4.94,1.9 1.14,1.27 1.72,3.06 1.72,5.38l0 10.66 -2.61 0 0 -10.08c0,-3.6 -1.65,-5.39 -4.96,-5.39 -1.21,0 -2.37,0.38 -3.51,1.12 -1.16,0.74 -2.01,1.59 -2.57,2.53l-0.02 -0zm20.5 19.21c-1.25,0 -2.19,-0.16 -2.79,-0.51l0 -2.43c0.74,0.38 1.54,0.58 2.39,0.58 1.07,0 1.97,-0.43 2.75,-1.32 0.78,-0.89 1.58,-2.33 2.43,-4.36l-7.8 -16.86 2.9 0 6.21 13.78 6.01 -13.78 2.82 0 -8.67 19.46c-1.58,3.62 -3.66,5.43 -6.27,5.43l0.02 -0z"/>
   <path class="fil1" d="M1810.56 476.39l-14.74 0 0 -41.79 14.74 0c6.68,0 12.15,1.96 16.42,5.85 4.26,3.89 6.39,8.91 6.39,15.05 0,6.17 -2.14,11.21 -6.39,15.1 -4.22,3.86 -9.69,5.79 -16.42,5.79zm-8.18 -35.76l0 29.73 7.59 0c5.25,0 9.33,-1.34 12.24,-4 2.95,-2.7 4.42,-6.32 4.42,-10.86 0,-4.54 -1.47,-8.17 -4.42,-10.86 -2.9,-2.66 -6.99,-4 -12.24,-4l-7.59 0zm42.99 35.76l-6.99 0 18.27 -42.03 6.32 0 18.27 42.03 -7.04 0 -4.54 -10.39 -19.83 0 -4.47 10.39 0.02 0zm14.39 -33.73l-7.64 17.55 15.28 0 -7.64 -17.55 -0 0zm46.5 33.73l-6.57 0 0 -18.92 -16.19 -22.87 7.64 0 11.93 16.89 11.93 -16.89 7.41 0 -16.19 22.69 0 19.1 0.04 0zm47.51 0.78c-4.94,0 -9.09,-1.05 -12.48,-3.17l0 -6.39c3.42,2.46 7.46,3.69 12.11,3.69 2.75,0 5.11,-0.76 7.1,-2.26 1.99,-1.56 2.99,-3.62 2.99,-6.21 0,-2.43 -0.87,-4.38 -2.63,-5.88 -1.76,-1.48 -4.09,-2.25 -7.04,-2.25 -1.92,0 -3.68,0.33 -5.31,0.96l0 -4.47 11.23 -10.86 -16.89 0 0 -5.74 25.6 0 0 4.96 -10.68 10.27c3.35,0.36 6.25,1.72 8.71,4.06 2.43,2.32 3.64,5.29 3.64,8.96 0,4.29 -1.58,7.77 -4.71,10.39 -3.1,2.63 -6.99,3.95 -11.64,3.95z"/>
   <path class="fil1" d="M1774.31 534.48c-1.21,0 -2.17,-0.34 -2.91,-1.05 -0.74,-0.71 -1.1,-1.79 -1.1,-3.26l0 -21.51 2.61 0 0 20.88c0,1.72 0.76,2.57 2.28,2.57 0.6,0 1.18,-0.16 1.7,-0.47l0 2.32c-0.63,0.34 -1.48,0.51 -2.57,0.51l0 0.02zm9.58 -0.43l-2.61 0 0 -17.51 2.61 0 0 17.51zm-2.61 -22.23c-0.34,-0.36 -0.51,-0.8 -0.51,-1.3 0,-0.51 0.16,-0.94 0.51,-1.3 0.36,-0.36 0.8,-0.54 1.3,-0.54 0.51,0 0.94,0.18 1.3,0.54 0.36,0.36 0.54,0.8 0.54,1.3 0,0.51 -0.18,0.94 -0.54,1.3 -0.36,0.34 -0.8,0.51 -1.3,0.51 -0.51,0 -0.94,-0.16 -1.3,-0.51zm11.86 22.23l-2.61 0 0 -17.51 2.61 0 0 2.61c1.45,-2.03 3.55,-3.04 6.3,-3.04 1.43,0 2.63,0.31 3.6,0.9 0.98,0.6 1.65,1.45 2.01,2.53 0.67,-1.03 1.59,-1.88 2.77,-2.5 1.18,-0.63 2.5,-0.94 3.96,-0.94 1.96,0 3.48,0.62 4.56,1.83 1.09,1.21 1.63,2.95 1.63,5.2l0 10.92 -2.61 0 0 -10.34c0,-3.44 -1.45,-5.14 -4.35,-5.14 -1.07,0 -2.12,0.36 -3.17,1.1 -1.05,0.74 -1.85,1.63 -2.37,2.66 0,0.24 0,0.53 0.02,0.83 0.02,0.31 0.02,0.56 0.04,0.72 0.02,0.16 0.02,0.31 0.02,0.4l0 9.76 -2.61 0 0 -10.34c0,-3.44 -1.45,-5.14 -4.35,-5.14 -1.01,0 -2.05,0.36 -3.11,1.09 -1.01,0.67 -1.79,1.52 -2.35,2.53l0 11.86 0 0zm33.71 0l-2.61 0 0 -17.51 2.61 0 0 17.51zm-2.61 -22.23c-0.34,-0.36 -0.51,-0.8 -0.51,-1.3 0,-0.51 0.16,-0.94 0.51,-1.3 0.36,-0.36 0.8,-0.54 1.3,-0.54 0.51,0 0.94,0.18 1.3,0.54 0.36,0.36 0.54,0.8 0.54,1.3 0,0.51 -0.18,0.94 -0.54,1.3 -0.36,0.34 -0.8,0.51 -1.3,0.51 -0.51,0 -0.94,-0.16 -1.3,-0.51zm16.2 22.67c-1.61,0 -2.84,-0.47 -3.68,-1.43 -0.83,-0.96 -1.25,-2.28 -1.25,-3.96l0 -10.27 -4.13 0 0 -2.28 4.13 0 0 -5.39 2.61 0 0 5.39 6.12 0 0 2.28 -6.12 0 0 9.47c0,1.39 0.24,2.37 0.69,2.9 0.49,0.56 1.27,0.83 2.35,0.83 1.07,0 2.01,-0.24 2.86,-0.72l0 2.39c-0.74,0.53 -1.94,0.8 -3.59,0.8zm19.17 6.97c-1.25,0 -2.19,-0.16 -2.79,-0.51l0 -2.43c0.74,0.38 1.54,0.58 2.39,0.58 1.07,0 1.97,-0.43 2.75,-1.32 0.78,-0.89 1.58,-2.33 2.43,-4.36l-7.8 -16.86 2.9 0 6.21 13.78 6.01 -13.78 2.82 0 -8.67 19.46c-1.58,3.62 -3.66,5.43 -6.27,5.43l0.02 -0zm20.52 -22.63c1.76,-1.81 4.04,-2.72 6.83,-2.72 2.79,0 5.05,0.9 6.83,2.72 1.76,1.76 2.64,3.93 2.64,6.48 0,2.57 -0.89,4.73 -2.64,6.48 -1.79,1.79 -4.06,2.68 -6.83,2.68 -2.75,0 -5.03,-0.89 -6.83,-2.68 -1.76,-1.76 -2.64,-3.93 -2.64,-6.48 0,-2.55 0.89,-4.73 2.64,-6.48zm13.6 6.48c0,-1.94 -0.63,-3.57 -1.92,-4.89 -1.29,-1.3 -2.9,-1.96 -4.85,-1.96 -1.96,0 -3.59,0.65 -4.85,1.96 -1.29,1.32 -1.92,2.95 -1.92,4.89 0,1.92 0.63,3.53 1.92,4.85 1.29,1.3 2.9,1.96 4.85,1.96 1.96,0 3.59,-0.65 4.85,-1.96 1.29,-1.32 1.92,-2.95 1.92,-4.85zm20.91 3.04l0 -11.82 2.61 0 0 17.51 -2.61 0 0 -2.68c-1.86,2.08 -4.2,3.11 -7.01,3.11 -2.16,0 -3.8,-0.63 -4.94,-1.9 -1.14,-1.27 -1.72,-3.06 -1.72,-5.38l0 -10.66 2.61 0 0 10.08c0,3.6 1.65,5.39 4.96,5.39 1.21,0 2.37,-0.36 3.48,-1.09 1.18,-0.78 2.05,-1.63 2.61,-2.57l0.02 0zm11.39 5.69l-2.61 0 0 -17.51 2.61 0 0 3.33c0.65,-1.14 1.61,-2.05 2.9,-2.73 1.29,-0.69 2.63,-1.03 4.06,-1.03l0 2.64c-0.8,0 -1.52,0.11 -2.17,0.33 -1.1,0.29 -2.1,0.8 -2.93,1.5 -0.85,0.71 -1.47,1.52 -1.85,2.41l0 11.06zm16.71 0.43c-1.39,0 -2.77,-0.18 -4.11,-0.53 -1.34,-0.34 -2.39,-0.78 -3.13,-1.29l0 -2.68c2.14,1.43 4.53,2.14 7.19,2.14 1.5,0 2.68,-0.25 3.53,-0.74 0.85,-0.49 1.29,-1.18 1.29,-2.05 0,-0.74 -0.42,-1.36 -1.23,-1.85 -0.24,-0.2 -0.85,-0.42 -1.85,-0.65 -0.29,-0.09 -0.69,-0.2 -1.2,-0.29 -0.65,-0.16 -1.05,-0.27 -1.2,-0.29 -2.19,-0.56 -3.77,-1.21 -4.71,-1.97 -0.94,-0.76 -1.41,-1.86 -1.41,-3.31 0,-1.52 0.62,-2.72 1.85,-3.57 1.23,-0.85 2.95,-1.29 5.18,-1.29 2.64,0 4.76,0.53 6.39,1.56l0 2.57c-1.97,-1.18 -4.07,-1.77 -6.27,-1.77 -1.47,0 -2.59,0.24 -3.35,0.69 -0.76,0.45 -1.14,1.09 -1.14,1.88 0,0.87 0.45,1.52 1.34,1.96 0.16,0.05 0.38,0.13 0.63,0.24 0.25,0.11 0.51,0.2 0.78,0.27l0.8 0.22c0.58,0.2 1.16,0.33 1.74,0.4 2.17,0.53 3.78,1.18 4.8,1.96 1.03,0.78 1.54,1.86 1.54,3.3 0,1.59 -0.71,2.84 -2.1,3.73 -1.39,0.92 -3.19,1.38 -5.32,1.38l-0.04 -0zm20.89 0c-2.73,0 -5.03,-0.85 -6.88,-2.57 -1.83,-1.68 -2.75,-3.89 -2.75,-6.61 0,-2.61 0.81,-4.8 2.46,-6.55 1.67,-1.76 3.8,-2.64 6.43,-2.64 1.39,0 2.64,0.29 3.73,0.85 1.09,0.56 1.94,1.3 2.57,2.23 0.63,0.92 1.1,1.88 1.41,2.91 0.31,1.03 0.47,2.06 0.47,3.1l0 0.72 -14.4 0c0.15,1.88 0.9,3.39 2.26,4.51 1.36,1.12 3.1,1.68 5.2,1.68 2.03,0 3.91,-0.54 5.61,-1.63l0 2.32c-1.43,1.1 -3.48,1.67 -6.12,1.67l0 0.02zm-6.92 -10.7l11.71 0c-0.07,-1.36 -0.58,-2.57 -1.52,-3.66 -0.89,-1.1 -2.28,-1.67 -4.13,-1.67 -1.74,0 -3.17,0.53 -4.27,1.59 -1.09,1.09 -1.68,2.33 -1.77,3.73l-0.02 0zm23.28 10.7c-1.21,0 -2.17,-0.34 -2.91,-1.05 -0.74,-0.71 -1.1,-1.79 -1.1,-3.26l0 -21.51 2.61 0 0 20.88c0,1.72 0.76,2.57 2.28,2.57 0.6,0 1.18,-0.16 1.7,-0.47l0 2.32c-0.63,0.34 -1.48,0.51 -2.57,0.51l0 0.02zm10.56 -15.66l0 15.23 -2.61 0 0 -15.23 -3.48 0 0 -2.28 3.48 0 0 -2.93c0,-1.61 0.43,-2.9 1.3,-3.82 0.87,-0.92 2.1,-1.39 3.69,-1.39 1.47,0 2.72,0.24 3.69,0.69l0 2.39c-1.16,-0.49 -2.17,-0.72 -3.04,-0.72 -2.03,0 -3.04,1.12 -3.04,3.37l0 2.43 6.08 0 0 2.28 -6.08 0 0 0zm-240.98 45.61l0 15.23 -2.61 0 0 -15.23 -3.48 0 0 -2.28 3.48 0 0 -2.93c0,-1.61 0.43,-2.9 1.3,-3.82 0.87,-0.92 2.1,-1.39 3.69,-1.39 1.47,0 2.72,0.24 3.69,0.69l0 2.39c-1.16,-0.49 -2.17,-0.72 -3.04,-0.72 -2.03,0 -3.04,1.12 -3.04,3.37l0 2.43 6.08 0 0 2.28 -6.08 0 0 0zm12.8 15.23l-2.61 0 0 -17.51 2.61 0 0 3.33c0.65,-1.14 1.61,-2.05 2.9,-2.73 1.29,-0.69 2.63,-1.03 4.06,-1.03l0 2.64c-0.8,0 -1.52,0.11 -2.17,0.33 -1.1,0.29 -2.1,0.8 -2.93,1.5 -0.85,0.71 -1.47,1.52 -1.85,2.41l0 11.06zm12.15 -15.23c1.76,-1.81 4.04,-2.72 6.83,-2.72 2.79,0 5.05,0.9 6.83,2.72 1.76,1.76 2.64,3.93 2.64,6.48 0,2.57 -0.89,4.73 -2.64,6.48 -1.79,1.79 -4.06,2.68 -6.83,2.68 -2.75,0 -5.03,-0.89 -6.83,-2.68 -1.76,-1.76 -2.64,-3.93 -2.64,-6.48 0,-2.55 0.89,-4.73 2.64,-6.48zm13.6 6.48c0,-1.94 -0.63,-3.57 -1.92,-4.89 -1.29,-1.3 -2.9,-1.96 -4.85,-1.96 -1.96,0 -3.59,0.65 -4.85,1.96 -1.29,1.32 -1.92,2.95 -1.92,4.89 0,1.92 0.63,3.53 1.92,4.85 1.29,1.3 2.9,1.96 4.85,1.96 1.96,0 3.59,-0.65 4.85,-1.96 1.29,-1.32 1.92,-2.95 1.92,-4.85zm10.16 8.75l-2.61 0 0 -17.51 2.61 0 0 2.61c1.45,-2.03 3.55,-3.04 6.3,-3.04 1.43,0 2.63,0.31 3.6,0.9 0.98,0.6 1.65,1.45 2.01,2.53 0.67,-1.03 1.59,-1.88 2.77,-2.5 1.18,-0.63 2.5,-0.94 3.96,-0.94 1.96,0 3.48,0.62 4.56,1.83 1.09,1.21 1.63,2.95 1.63,5.2l0 10.92 -2.61 0 0 -10.34c0,-3.44 -1.45,-5.14 -4.35,-5.14 -1.07,0 -2.12,0.36 -3.17,1.1 -1.05,0.74 -1.85,1.63 -2.37,2.66 0,0.24 0,0.53 0.02,0.83 0.02,0.31 0.02,0.56 0.04,0.72 0.02,0.16 0.02,0.31 0.02,0.4l0 9.76 -2.61 0 0 -10.34c0,-3.44 -1.45,-5.14 -4.35,-5.14 -1.01,0 -2.05,0.36 -3.11,1.09 -1.01,0.67 -1.79,1.52 -2.35,2.53l0 11.86 0 0zm46.22 0.43c-1.39,0 -2.77,-0.18 -4.11,-0.53 -1.34,-0.34 -2.39,-0.78 -3.13,-1.29l0 -2.68c2.14,1.43 4.53,2.14 7.19,2.14 1.5,0 2.68,-0.25 3.53,-0.74 0.85,-0.49 1.29,-1.18 1.29,-2.05 0,-0.74 -0.42,-1.36 -1.23,-1.85 -0.24,-0.2 -0.85,-0.42 -1.85,-0.65 -0.29,-0.09 -0.69,-0.2 -1.2,-0.29 -0.65,-0.16 -1.05,-0.27 -1.2,-0.29 -2.19,-0.56 -3.77,-1.21 -4.71,-1.97 -0.94,-0.76 -1.41,-1.86 -1.41,-3.31 0,-1.52 0.62,-2.72 1.85,-3.57 1.23,-0.85 2.95,-1.29 5.18,-1.29 2.64,0 4.76,0.53 6.39,1.56l0 2.57c-1.97,-1.18 -4.07,-1.77 -6.27,-1.77 -1.47,0 -2.59,0.24 -3.35,0.69 -0.76,0.45 -1.14,1.09 -1.14,1.88 0,0.87 0.45,1.52 1.34,1.96 0.16,0.05 0.38,0.13 0.63,0.24 0.25,0.11 0.51,0.2 0.78,0.27l0.8 0.22c0.58,0.2 1.16,0.33 1.74,0.4 2.17,0.53 3.78,1.18 4.8,1.96 1.03,0.78 1.54,1.86 1.54,3.3 0,1.59 -0.71,2.84 -2.1,3.73 -1.39,0.92 -3.19,1.38 -5.32,1.38l-0.04 -0zm13.89 -15.66c1.76,-1.81 4.04,-2.72 6.83,-2.72 2.79,0 5.05,0.9 6.83,2.72 1.76,1.76 2.64,3.93 2.64,6.48 0,2.57 -0.89,4.73 -2.64,6.48 -1.79,1.79 -4.06,2.68 -6.83,2.68 -2.75,0 -5.03,-0.89 -6.83,-2.68 -1.76,-1.76 -2.64,-3.93 -2.64,-6.48 0,-2.55 0.89,-4.73 2.64,-6.48zm13.6 6.48c0,-1.94 -0.63,-3.57 -1.92,-4.89 -1.29,-1.3 -2.9,-1.96 -4.85,-1.96 -1.96,0 -3.59,0.65 -4.85,1.96 -1.29,1.32 -1.92,2.95 -1.92,4.89 0,1.92 0.63,3.53 1.92,4.85 1.29,1.3 2.9,1.96 4.85,1.96 1.96,0 3.59,-0.65 4.85,-1.96 1.29,-1.32 1.92,-2.95 1.92,-4.85zm10.16 8.75l-2.61 0 0 -17.51 2.61 0 0 2.61c1.45,-2.03 3.55,-3.04 6.3,-3.04 1.43,0 2.63,0.31 3.6,0.9 0.98,0.6 1.65,1.45 2.01,2.53 0.67,-1.03 1.59,-1.88 2.77,-2.5 1.18,-0.63 2.5,-0.94 3.96,-0.94 1.96,0 3.48,0.62 4.56,1.83 1.09,1.21 1.63,2.95 1.63,5.2l0 10.92 -2.61 0 0 -10.34c0,-3.44 -1.45,-5.14 -4.35,-5.14 -1.07,0 -2.12,0.36 -3.17,1.1 -1.05,0.74 -1.85,1.63 -2.37,2.66 0,0.24 0,0.53 0.02,0.83 0.02,0.31 0.02,0.56 0.04,0.72 0.02,0.16 0.02,0.31 0.02,0.4l0 9.76 -2.61 0 0 -10.34c0,-3.44 -1.45,-5.14 -4.35,-5.14 -1.01,0 -2.05,0.36 -3.11,1.09 -1.01,0.67 -1.79,1.52 -2.35,2.53l0 11.86 0 0zm39.09 0.43c-2.73,0 -5.03,-0.85 -6.88,-2.57 -1.83,-1.68 -2.75,-3.89 -2.75,-6.61 0,-2.61 0.81,-4.8 2.46,-6.55 1.67,-1.76 3.8,-2.64 6.43,-2.64 1.39,0 2.64,0.29 3.73,0.85 1.09,0.56 1.94,1.3 2.57,2.23 0.63,0.92 1.1,1.88 1.41,2.91 0.31,1.03 0.47,2.06 0.47,3.1l0 0.72 -14.4 0c0.15,1.88 0.9,3.39 2.26,4.51 1.36,1.12 3.1,1.68 5.2,1.68 2.03,0 3.91,-0.54 5.61,-1.63l0 2.32c-1.43,1.1 -3.48,1.67 -6.12,1.67l0 0.02zm-6.92 -10.7l11.71 0c-0.07,-1.36 -0.58,-2.57 -1.52,-3.66 -0.89,-1.1 -2.28,-1.67 -4.13,-1.67 -1.74,0 -3.17,0.53 -4.27,1.59 -1.09,1.09 -1.68,2.33 -1.77,3.73l-0.02 0zm32.81 -4.96l0 15.23 -2.61 0 0 -15.23 -3.48 0 0 -2.28 3.48 0 0 -2.93c0,-1.61 0.43,-2.9 1.3,-3.82 0.87,-0.92 2.1,-1.39 3.69,-1.39 1.47,0 2.72,0.24 3.69,0.69l0 2.39c-1.16,-0.49 -2.17,-0.72 -3.04,-0.72 -2.03,0 -3.04,1.12 -3.04,3.37l0 2.43 6.08 0 0 2.28 -6.08 0 0 0zm11.57 0c1.76,-1.81 4.04,-2.72 6.83,-2.72 2.79,0 5.05,0.9 6.83,2.72 1.76,1.76 2.64,3.93 2.64,6.48 0,2.57 -0.89,4.73 -2.64,6.48 -1.79,1.79 -4.06,2.68 -6.83,2.68 -2.75,0 -5.03,-0.89 -6.83,-2.68 -1.76,-1.76 -2.64,-3.93 -2.64,-6.48 0,-2.55 0.89,-4.73 2.64,-6.48zm13.6 6.48c0,-1.94 -0.63,-3.57 -1.92,-4.89 -1.29,-1.3 -2.9,-1.96 -4.85,-1.96 -1.96,0 -3.59,0.65 -4.85,1.96 -1.29,1.32 -1.92,2.95 -1.92,4.89 0,1.92 0.63,3.53 1.92,4.85 1.29,1.3 2.9,1.96 4.85,1.96 1.96,0 3.59,-0.65 4.85,-1.96 1.29,-1.32 1.92,-2.95 1.92,-4.85zm8.93 -6.48c1.76,-1.81 4.04,-2.72 6.83,-2.72 2.79,0 5.05,0.9 6.83,2.72 1.76,1.76 2.64,3.93 2.64,6.48 0,2.57 -0.89,4.73 -2.64,6.48 -1.79,1.79 -4.06,2.68 -6.83,2.68 -2.75,0 -5.03,-0.89 -6.83,-2.68 -1.76,-1.76 -2.64,-3.93 -2.64,-6.48 0,-2.55 0.89,-4.73 2.64,-6.48zm13.6 6.48c0,-1.94 -0.63,-3.57 -1.92,-4.89 -1.29,-1.3 -2.9,-1.96 -4.85,-1.96 -1.96,0 -3.59,0.65 -4.85,1.96 -1.29,1.32 -1.92,2.95 -1.92,4.89 0,1.92 0.63,3.53 1.92,4.85 1.29,1.3 2.9,1.96 4.85,1.96 1.96,0 3.59,-0.65 4.85,-1.96 1.29,-1.32 1.92,-2.95 1.92,-4.85zm21.87 -5.97l0 -10.66 2.61 0 0 25.38 -2.61 0 0 -2.79c-1.65,2.16 -3.91,3.22 -6.79,3.22 -2.59,0 -4.71,-0.89 -6.34,-2.68 -1.65,-1.79 -2.46,-3.95 -2.46,-6.48 0,-2.55 0.81,-4.74 2.46,-6.52 1.65,-1.79 3.77,-2.68 6.34,-2.68 2.88,0 5.14,1.07 6.79,3.22l0 -0.02zm0 8.85l0 -5.76c-0.51,-1.16 -1.32,-2.12 -2.46,-2.84 -1.14,-0.74 -2.37,-1.1 -3.69,-1.1 -1.96,0 -3.57,0.67 -4.82,1.99 -1.29,1.32 -1.92,2.95 -1.92,4.85 0,1.92 0.63,3.53 1.92,4.85 1.29,1.3 2.9,1.96 4.82,1.96 1.3,0 2.53,-0.36 3.66,-1.1 1.14,-0.74 1.97,-1.68 2.5,-2.84l0 -0zm-269.12 36.27c1.76,-1.81 4.04,-2.72 6.83,-2.72 2.79,0 5.05,0.9 6.83,2.72 1.76,1.76 2.64,3.93 2.64,6.48 0,2.57 -0.89,4.73 -2.64,6.48 -1.79,1.79 -4.06,2.68 -6.83,2.68 -2.75,0 -5.03,-0.89 -6.83,-2.68 -1.76,-1.76 -2.64,-3.93 -2.64,-6.48 0,-2.55 0.89,-4.73 2.64,-6.48zm13.6 6.48c0,-1.94 -0.63,-3.57 -1.92,-4.89 -1.29,-1.3 -2.9,-1.96 -4.85,-1.96 -1.96,0 -3.59,0.65 -4.85,1.96 -1.29,1.32 -1.92,2.95 -1.92,4.89 0,1.92 0.63,3.53 1.92,4.85 1.29,1.3 2.9,1.96 4.85,1.96 1.96,0 3.59,-0.65 4.85,-1.96 1.29,-1.32 1.92,-2.95 1.92,-4.85zm10.16 8.75l-2.61 0 0 -17.51 2.61 0 0 3.33c0.65,-1.14 1.61,-2.05 2.9,-2.73 1.29,-0.69 2.63,-1.03 4.06,-1.03l0 2.64c-0.8,0 -1.52,0.11 -2.17,0.33 -1.1,0.29 -2.1,0.8 -2.93,1.5 -0.85,0.71 -1.47,1.52 -1.85,2.41l0 11.06zm22.96 0l-2.61 0 0 -17.51 2.61 0 0 3.33c0.65,-1.14 1.61,-2.05 2.9,-2.73 1.29,-0.69 2.63,-1.03 4.06,-1.03l0 2.64c-0.8,0 -1.52,0.11 -2.17,0.33 -1.1,0.29 -2.1,0.8 -2.93,1.5 -0.85,0.71 -1.47,1.52 -1.85,2.41l0 11.06zm19.14 0.43c-2.73,0 -5.03,-0.85 -6.88,-2.57 -1.83,-1.68 -2.75,-3.89 -2.75,-6.61 0,-2.61 0.81,-4.8 2.46,-6.55 1.67,-1.76 3.8,-2.64 6.43,-2.64 1.39,0 2.64,0.29 3.73,0.85 1.09,0.56 1.94,1.3 2.57,2.23 0.63,0.92 1.1,1.88 1.41,2.91 0.31,1.03 0.47,2.06 0.47,3.1l0 0.72 -14.4 0c0.15,1.88 0.9,3.39 2.26,4.51 1.36,1.12 3.1,1.68 5.2,1.68 2.03,0 3.91,-0.54 5.61,-1.63l0 2.32c-1.43,1.1 -3.48,1.67 -6.12,1.67l0 0.02zm-6.92 -10.7l11.71 0c-0.07,-1.36 -0.58,-2.57 -1.52,-3.66 -0.89,-1.1 -2.28,-1.67 -4.13,-1.67 -1.74,0 -3.17,0.53 -4.27,1.59 -1.09,1.09 -1.68,2.33 -1.77,3.73l-0.02 0zm33.57 -4.45l0 -10.66 2.61 0 0 25.38 -2.61 0 0 -2.79c-1.65,2.16 -3.91,3.22 -6.79,3.22 -2.59,0 -4.71,-0.89 -6.34,-2.68 -1.65,-1.79 -2.46,-3.95 -2.46,-6.48 0,-2.55 0.81,-4.74 2.46,-6.52 1.65,-1.79 3.77,-2.68 6.34,-2.68 2.88,0 5.14,1.07 6.79,3.22l0 -0.02zm0 8.85l0 -5.76c-0.51,-1.16 -1.32,-2.12 -2.46,-2.84 -1.14,-0.74 -2.37,-1.1 -3.69,-1.1 -1.96,0 -3.57,0.67 -4.82,1.99 -1.29,1.32 -1.92,2.95 -1.92,4.85 0,1.92 0.63,3.53 1.92,4.85 1.29,1.3 2.9,1.96 4.82,1.96 1.3,0 2.53,-0.36 3.66,-1.1 1.14,-0.74 1.97,-1.68 2.5,-2.84l0 -0zm22.16 0.18l0 -11.82 2.61 0 0 17.51 -2.61 0 0 -2.68c-1.86,2.08 -4.2,3.11 -7.01,3.11 -2.16,0 -3.8,-0.63 -4.94,-1.9 -1.14,-1.27 -1.72,-3.06 -1.72,-5.38l0 -10.66 2.61 0 0 10.08c0,3.6 1.65,5.39 4.96,5.39 1.21,0 2.37,-0.36 3.48,-1.09 1.18,-0.78 2.05,-1.63 2.61,-2.57l0.02 0zm16.82 6.12c-2.68,0 -4.91,-0.87 -6.66,-2.61 -1.76,-1.76 -2.64,-3.96 -2.64,-6.61 0,-2.61 0.89,-4.78 2.68,-6.52 1.76,-1.76 3.98,-2.64 6.66,-2.64 2.03,0 3.8,0.42 5.29,1.27l0 2.43c-1.58,-0.89 -3.22,-1.34 -4.92,-1.34 -2.03,0 -3.71,0.65 -5.03,1.96 -1.32,1.25 -1.99,2.9 -1.99,4.89 0,1.96 0.67,3.59 1.99,4.89 1.36,1.29 3.04,1.92 5.03,1.92 1.94,0 3.69,-0.51 5.25,-1.52l0 2.39c-1.65,1 -3.53,1.48 -5.65,1.48l0 0.02zm19.32 0c-2.73,0 -5.03,-0.85 -6.88,-2.57 -1.83,-1.68 -2.75,-3.89 -2.75,-6.61 0,-2.61 0.81,-4.8 2.46,-6.55 1.67,-1.76 3.8,-2.64 6.43,-2.64 1.39,0 2.64,0.29 3.73,0.85 1.09,0.56 1.94,1.3 2.57,2.23 0.63,0.92 1.1,1.88 1.41,2.91 0.31,1.03 0.47,2.06 0.47,3.1l0 0.72 -14.4 0c0.15,1.88 0.9,3.39 2.26,4.51 1.36,1.12 3.1,1.68 5.2,1.68 2.03,0 3.91,-0.54 5.61,-1.63l0 2.32c-1.43,1.1 -3.48,1.67 -6.12,1.67l0 0.02zm-6.92 -10.7l11.71 0c-0.07,-1.36 -0.58,-2.57 -1.52,-3.66 -0.89,-1.1 -2.28,-1.67 -4.13,-1.67 -1.74,0 -3.17,0.53 -4.27,1.59 -1.09,1.09 -1.68,2.33 -1.77,3.73l-0.02 0zm31.43 10.27l-2.61 0 0 -17.51 2.61 0 0 2.61c1.45,-2.03 3.55,-3.04 6.3,-3.04 1.43,0 2.63,0.31 3.6,0.9 0.98,0.6 1.65,1.45 2.01,2.53 0.67,-1.03 1.59,-1.88 2.77,-2.5 1.18,-0.63 2.5,-0.94 3.96,-0.94 1.96,0 3.48,0.62 4.56,1.83 1.09,1.21 1.63,2.95 1.63,5.2l0 10.92 -2.61 0 0 -10.34c0,-3.44 -1.45,-5.14 -4.35,-5.14 -1.07,0 -2.12,0.36 -3.17,1.1 -1.05,0.74 -1.85,1.63 -2.37,2.66 0,0.24 0,0.53 0.02,0.83 0.02,0.31 0.02,0.56 0.04,0.72 0.02,0.16 0.02,0.31 0.02,0.4l0 9.76 -2.61 0 0 -10.34c0,-3.44 -1.45,-5.14 -4.35,-5.14 -1.01,0 -2.05,0.36 -3.11,1.09 -1.01,0.67 -1.79,1.52 -2.35,2.53l0 11.86 0 0zm39.09 0.43c-2.73,0 -5.03,-0.85 -6.88,-2.57 -1.83,-1.68 -2.75,-3.89 -2.75,-6.61 0,-2.61 0.81,-4.8 2.46,-6.55 1.67,-1.76 3.8,-2.64 6.43,-2.64 1.39,0 2.64,0.29 3.73,0.85 1.09,0.56 1.94,1.3 2.57,2.23 0.63,0.92 1.1,1.88 1.41,2.91 0.31,1.03 0.47,2.06 0.47,3.1l0 0.72 -14.4 0c0.15,1.88 0.9,3.39 2.26,4.51 1.36,1.12 3.1,1.68 5.2,1.68 2.03,0 3.91,-0.54 5.61,-1.63l0 2.32c-1.43,1.1 -3.48,1.67 -6.12,1.67l0 0.02zm-6.92 -10.7l11.71 0c-0.07,-1.36 -0.58,-2.57 -1.52,-3.66 -0.89,-1.1 -2.28,-1.67 -4.13,-1.67 -1.74,0 -3.17,0.53 -4.27,1.59 -1.09,1.09 -1.68,2.33 -1.77,3.73l-0.02 0zm25.17 8.35c1.21,0 2.35,-0.27 3.44,-0.83 1.09,-0.56 1.97,-1.25 2.64,-2.1l0 -2.43c-1.79,-1.16 -3.69,-1.74 -5.69,-1.74 -1.59,0 -2.86,0.31 -3.78,0.94 -0.92,0.63 -1.39,1.48 -1.39,2.57 0,1.14 0.45,2.01 1.34,2.64 0.89,0.63 2.05,0.94 3.44,0.94l0 -0zm-0.72 2.35c-1.86,0 -3.44,-0.51 -4.74,-1.52 -1.29,-1.07 -1.92,-2.5 -1.92,-4.27 0,-1.76 0.67,-3.19 2.03,-4.24 1.36,-1.03 3.08,-1.56 5.14,-1.56 2.26,0 4.38,0.56 6.3,1.7l0 -1.74c0,-2.93 -1.92,-4.38 -5.76,-4.38 -2.05,0 -3.96,0.6 -5.72,1.77l0 -2.53c1.72,-1.07 3.8,-1.59 6.27,-1.59 2.39,0 4.29,0.56 5.7,1.68 1.41,1.12 2.12,2.73 2.12,4.8l0 7.22c0,0.67 0.15,1.21 0.45,1.59 0.31,0.38 0.71,0.58 1.21,0.58 0.38,0 0.72,-0.07 1.01,-0.22l0 2.03c-0.38,0.27 -0.96,0.4 -1.74,0.4 -0.87,0 -1.59,-0.24 -2.19,-0.71 -0.6,-0.47 -0.96,-1.16 -1.1,-2.08 -1.76,2.05 -4.13,3.08 -7.06,3.08l0 -0.02zm20.37 0c-1.21,0 -2.17,-0.34 -2.91,-1.05 -0.74,-0.71 -1.1,-1.79 -1.1,-3.26l0 -21.51 2.61 0 0 20.88c0,1.72 0.76,2.57 2.28,2.57 0.6,0 1.18,-0.16 1.7,-0.47l0 2.32c-0.63,0.34 -1.48,0.51 -2.57,0.51l0 0.02zm12.51 0c-1.39,0 -2.77,-0.18 -4.11,-0.53 -1.34,-0.34 -2.39,-0.78 -3.13,-1.29l0 -2.68c2.14,1.43 4.53,2.14 7.19,2.14 1.5,0 2.68,-0.25 3.53,-0.74 0.85,-0.49 1.29,-1.18 1.29,-2.05 0,-0.74 -0.42,-1.36 -1.23,-1.85 -0.24,-0.2 -0.85,-0.42 -1.85,-0.65 -0.29,-0.09 -0.69,-0.2 -1.2,-0.29 -0.65,-0.16 -1.05,-0.27 -1.2,-0.29 -2.19,-0.56 -3.77,-1.21 -4.71,-1.97 -0.94,-0.76 -1.41,-1.86 -1.41,-3.31 0,-1.52 0.62,-2.72 1.85,-3.57 1.23,-0.85 2.95,-1.29 5.18,-1.29 2.64,0 4.76,0.53 6.39,1.56l0 2.57c-1.97,-1.18 -4.07,-1.77 -6.27,-1.77 -1.47,0 -2.59,0.24 -3.35,0.69 -0.76,0.45 -1.14,1.09 -1.14,1.88 0,0.87 0.45,1.52 1.34,1.96 0.16,0.05 0.38,0.13 0.63,0.24 0.25,0.11 0.51,0.2 0.78,0.27l0.8 0.22c0.58,0.2 1.16,0.33 1.74,0.4 2.17,0.53 3.78,1.18 4.8,1.96 1.03,0.78 1.54,1.86 1.54,3.3 0,1.59 -0.71,2.84 -2.1,3.73 -1.39,0.92 -3.19,1.38 -5.32,1.38l-0.04 -0z"/>
   <path class="fil1" d="M1677.16 1127.65l-14.74 0 0 -41.79 14.74 0c6.68,0 12.15,1.96 16.42,5.85 4.26,3.89 6.39,8.91 6.39,15.05 0,6.17 -2.14,11.21 -6.39,15.1 -4.22,3.86 -9.69,5.79 -16.42,5.79zm-8.18 -35.76l0 29.73 7.59 0c5.25,0 9.33,-1.34 12.24,-4 2.95,-2.7 4.42,-6.32 4.42,-10.86 0,-4.54 -1.47,-8.17 -4.42,-10.86 -2.9,-2.66 -6.99,-4 -12.24,-4l-7.59 0zm42.99 35.76l-6.99 0 18.27 -42.03 6.32 0 18.27 42.03 -7.04 0 -4.54 -10.39 -19.83 0 -4.47 10.39 0.02 0zm14.39 -33.73l-7.64 17.55 15.28 0 -7.64 -17.55 -0 0zm46.5 33.73l-6.57 0 0 -18.92 -16.19 -22.87 7.64 0 11.93 16.89 11.93 -16.89 7.41 0 -16.19 22.69 0 19.1 0.04 0zm47.64 0.78c-4.49,0 -8.42,-0.96 -11.77,-2.86l0 -6.16c3.42,2.12 7.24,3.17 11.46,3.17 2.99,0 5.5,-0.76 7.59,-2.26 2.06,-1.56 3.1,-3.6 3.1,-6.16 0,-2.43 -0.96,-4.42 -2.9,-5.97 -1.94,-1.56 -4.47,-2.33 -7.6,-2.33 -3.22,0 -6.57,0.6 -10.03,1.79l2.75 -21.78 21.49 0 0 5.74 -16.71 0 -1.2 9.61c1.63,-0.43 3.39,-0.65 5.25,-0.65 4.49,0 8.22,1.25 11.17,3.77 2.95,2.52 4.42,5.79 4.42,9.85 0,4.38 -1.63,7.84 -4.89,10.39 -3.26,2.59 -7.3,3.87 -12.11,3.87l-0.02 -0.02z"/>
   <path class="fil1" d="M1562.5 1170.58l0 -10.66 2.61 0 0 25.38 -2.61 0 0 -2.79c-1.65,2.16 -3.91,3.22 -6.79,3.22 -2.59,0 -4.71,-0.89 -6.34,-2.68 -1.65,-1.79 -2.46,-3.95 -2.46,-6.48 0,-2.55 0.81,-4.74 2.46,-6.52 1.65,-1.79 3.77,-2.68 6.34,-2.68 2.88,0 5.14,1.07 6.79,3.22l0 -0.02zm0 8.86l0 -5.76c-0.51,-1.16 -1.32,-2.12 -2.46,-2.84 -1.14,-0.74 -2.37,-1.1 -3.69,-1.1 -1.96,0 -3.57,0.67 -4.82,1.99 -1.29,1.32 -1.92,2.95 -1.92,4.85 0,1.92 0.63,3.53 1.92,4.85 1.29,1.3 2.9,1.96 4.82,1.96 1.3,0 2.53,-0.36 3.66,-1.1 1.14,-0.74 1.97,-1.68 2.5,-2.84l0 -0zm11.39 5.87l-2.61 0 0 -17.51 2.61 0 0 3.33c0.65,-1.14 1.61,-2.05 2.9,-2.73 1.29,-0.69 2.63,-1.03 4.06,-1.03l0 2.64c-0.8,0 -1.52,0.11 -2.17,0.33 -1.1,0.29 -2.1,0.8 -2.93,1.5 -0.85,0.71 -1.47,1.52 -1.85,2.41l0 11.06zm19.14 0.43c-2.73,0 -5.03,-0.85 -6.88,-2.57 -1.83,-1.68 -2.75,-3.89 -2.75,-6.61 0,-2.61 0.81,-4.8 2.46,-6.55 1.67,-1.76 3.8,-2.64 6.43,-2.64 1.39,0 2.64,0.29 3.73,0.85 1.09,0.56 1.94,1.3 2.57,2.23 0.63,0.92 1.1,1.88 1.41,2.91 0.31,1.03 0.47,2.06 0.47,3.1l0 0.72 -14.4 0c0.15,1.88 0.9,3.39 2.26,4.51 1.36,1.12 3.1,1.68 5.2,1.68 2.03,0 3.91,-0.54 5.61,-1.63l0 2.32c-1.43,1.1 -3.48,1.67 -6.12,1.67l0 0.02zm-6.92 -10.7l11.71 0c-0.07,-1.36 -0.58,-2.57 -1.52,-3.66 -0.89,-1.1 -2.28,-1.67 -4.13,-1.67 -1.74,0 -3.17,0.53 -4.27,1.59 -1.09,1.09 -1.68,2.33 -1.77,3.73l-0.02 0zm25.17 8.35c1.21,0 2.35,-0.27 3.44,-0.83 1.09,-0.56 1.97,-1.25 2.64,-2.1l0 -2.43c-1.79,-1.16 -3.69,-1.74 -5.69,-1.74 -1.59,0 -2.86,0.31 -3.78,0.94 -0.92,0.63 -1.39,1.48 -1.39,2.57 0,1.14 0.45,2.01 1.34,2.64 0.89,0.63 2.05,0.94 3.44,0.94l0 -0zm-0.72 2.35c-1.86,0 -3.44,-0.51 -4.74,-1.52 -1.29,-1.07 -1.92,-2.5 -1.92,-4.27 0,-1.76 0.67,-3.19 2.03,-4.24 1.36,-1.03 3.08,-1.56 5.14,-1.56 2.26,0 4.38,0.56 6.3,1.7l0 -1.74c0,-2.93 -1.92,-4.38 -5.76,-4.38 -2.05,0 -3.96,0.6 -5.72,1.77l0 -2.53c1.72,-1.07 3.8,-1.59 6.27,-1.59 2.39,0 4.29,0.56 5.7,1.68 1.41,1.12 2.12,2.73 2.12,4.8l0 7.22c0,0.67 0.15,1.21 0.45,1.59 0.31,0.38 0.71,0.58 1.21,0.58 0.38,0 0.72,-0.07 1.01,-0.22l0 2.03c-0.38,0.27 -0.96,0.4 -1.74,0.4 -0.87,0 -1.59,-0.24 -2.19,-0.71 -0.6,-0.47 -0.96,-1.16 -1.1,-2.08 -1.76,2.05 -4.13,3.08 -7.06,3.08l0 -0.02zm18.96 -0.43l-2.61 0 0 -17.51 2.61 0 0 2.61c1.45,-2.03 3.55,-3.04 6.3,-3.04 1.43,0 2.63,0.31 3.6,0.9 0.98,0.6 1.65,1.45 2.01,2.53 0.67,-1.03 1.59,-1.88 2.77,-2.5 1.18,-0.63 2.5,-0.94 3.96,-0.94 1.96,0 3.48,0.62 4.56,1.83 1.09,1.21 1.63,2.95 1.63,5.2l0 10.92 -2.61 0 0 -10.34c0,-3.44 -1.45,-5.14 -4.35,-5.14 -1.07,0 -2.12,0.36 -3.17,1.1 -1.05,0.74 -1.85,1.63 -2.37,2.66 0,0.24 0,0.53 0.02,0.83 0.02,0.31 0.02,0.56 0.04,0.72 0.02,0.16 0.02,0.31 0.02,0.4l0 9.76 -2.61 0 0 -10.34c0,-3.44 -1.45,-5.14 -4.35,-5.14 -1.01,0 -2.05,0.36 -3.11,1.09 -1.01,0.67 -1.79,1.52 -2.35,2.53l0 11.86 0 0zm46.19 -1.92c1.21,0 2.35,-0.27 3.44,-0.83 1.09,-0.56 1.97,-1.25 2.64,-2.1l0 -2.43c-1.79,-1.16 -3.69,-1.74 -5.69,-1.74 -1.59,0 -2.86,0.31 -3.78,0.94 -0.92,0.63 -1.39,1.48 -1.39,2.57 0,1.14 0.45,2.01 1.34,2.64 0.89,0.63 2.05,0.94 3.44,0.94l0 -0zm-0.72 2.35c-1.86,0 -3.44,-0.51 -4.74,-1.52 -1.29,-1.07 -1.92,-2.5 -1.92,-4.27 0,-1.76 0.67,-3.19 2.03,-4.24 1.36,-1.03 3.08,-1.56 5.14,-1.56 2.26,0 4.38,0.56 6.3,1.7l0 -1.74c0,-2.93 -1.92,-4.38 -5.76,-4.38 -2.05,0 -3.96,0.6 -5.72,1.77l0 -2.53c1.72,-1.07 3.8,-1.59 6.27,-1.59 2.39,0 4.29,0.56 5.7,1.68 1.41,1.12 2.12,2.73 2.12,4.8l0 7.22c0,0.67 0.15,1.21 0.45,1.59 0.31,0.38 0.71,0.58 1.21,0.58 0.38,0 0.72,-0.07 1.01,-0.22l0 2.03c-0.38,0.27 -0.96,0.4 -1.74,0.4 -0.87,0 -1.59,-0.24 -2.19,-0.71 -0.6,-0.47 -0.96,-1.16 -1.1,-2.08 -1.76,2.05 -4.13,3.08 -7.06,3.08l0 -0.02zm16.35 -0.43l0 -25.38 2.61 0 0 10.66c1.65,-2.16 3.91,-3.22 6.79,-3.22 2.59,0 4.71,0.89 6.34,2.68 1.65,1.79 2.46,3.96 2.46,6.52 0,2.53 -0.81,4.71 -2.46,6.48 -1.65,1.79 -3.77,2.68 -6.34,2.68 -2.88,0 -5.14,-1.07 -6.79,-3.22l0 2.79 -2.61 0 0 0.02zm2.61 -11.64l0 5.76c0.53,1.16 1.36,2.1 2.5,2.84 1.14,0.74 2.35,1.1 3.66,1.1 1.96,0 3.57,-0.65 4.82,-1.96 1.29,-1.32 1.92,-2.95 1.92,-4.85 0,-1.9 -0.63,-3.53 -1.92,-4.85 -1.25,-1.32 -2.86,-1.99 -4.82,-1.99 -1.32,0 -2.55,0.36 -3.69,1.1 -1.14,0.74 -1.96,1.68 -2.46,2.84l0 0zm21.84 -3.58c1.76,-1.81 4.04,-2.72 6.83,-2.72 2.79,0 5.05,0.9 6.83,2.72 1.76,1.76 2.64,3.93 2.64,6.48 0,2.57 -0.89,4.73 -2.64,6.48 -1.79,1.79 -4.06,2.68 -6.83,2.68 -2.75,0 -5.03,-0.89 -6.83,-2.68 -1.76,-1.76 -2.64,-3.93 -2.64,-6.48 0,-2.55 0.89,-4.73 2.64,-6.48zm13.6 6.48c0,-1.94 -0.63,-3.57 -1.92,-4.89 -1.29,-1.3 -2.9,-1.96 -4.85,-1.96 -1.96,0 -3.59,0.65 -4.85,1.96 -1.29,1.32 -1.92,2.95 -1.92,4.89 0,1.92 0.63,3.53 1.92,4.85 1.29,1.3 2.9,1.96 4.85,1.96 1.96,0 3.59,-0.65 4.85,-1.96 1.29,-1.32 1.92,-2.95 1.92,-4.85zm20.91 3.04l0 -11.82 2.61 0 0 17.51 -2.61 0 0 -2.68c-1.86,2.08 -4.2,3.11 -7.01,3.11 -2.16,0 -3.8,-0.63 -4.94,-1.9 -1.14,-1.27 -1.72,-3.06 -1.72,-5.38l0 -10.66 2.61 0 0 10.08c0,3.6 1.65,5.39 4.96,5.39 1.21,0 2.37,-0.36 3.48,-1.09 1.18,-0.78 2.05,-1.63 2.61,-2.57l0.02 0zm15.73 6.12c-1.61,0 -2.84,-0.47 -3.68,-1.43 -0.83,-0.96 -1.25,-2.28 -1.25,-3.96l0 -10.27 -4.13 0 0 -2.28 4.13 0 0 -5.39 2.61 0 0 5.39 6.12 0 0 2.28 -6.12 0 0 9.47c0,1.39 0.24,2.37 0.69,2.9 0.49,0.56 1.27,0.83 2.35,0.83 1.07,0 2.01,-0.24 2.86,-0.72l0 2.39c-0.74,0.53 -1.94,0.8 -3.59,0.8zm16.06 6.97c-1.3,0 -2.33,-0.22 -3.08,-0.65l0 -2.39c0.78,0.45 1.61,0.69 2.53,0.69 2.06,0 3.08,-1.18 3.08,-3.51l0 -19.03 2.61 0 0 19.43c0,1.81 -0.45,3.19 -1.38,4.09 -0.92,0.92 -2.17,1.38 -3.77,1.38zm2.54 -29.62c-0.34,-0.36 -0.51,-0.8 -0.51,-1.3 0,-0.51 0.16,-0.94 0.51,-1.3 0.36,-0.36 0.8,-0.54 1.3,-0.54 0.51,0 0.94,0.18 1.3,0.54 0.36,0.36 0.54,0.8 0.54,1.3 0,0.51 -0.18,0.94 -0.54,1.3 -0.36,0.34 -0.8,0.51 -1.3,0.51 -0.51,0 -0.94,-0.16 -1.3,-0.51zm22.63 16.53l0 -11.82 2.61 0 0 17.51 -2.61 0 0 -2.68c-1.86,2.08 -4.2,3.11 -7.01,3.11 -2.16,0 -3.8,-0.63 -4.94,-1.9 -1.14,-1.27 -1.72,-3.06 -1.72,-5.38l0 -10.66 2.61 0 0 10.08c0,3.6 1.65,5.39 4.96,5.39 1.21,0 2.37,-0.36 3.48,-1.09 1.18,-0.78 2.05,-1.63 2.61,-2.57l0.02 0zm11.39 -6.12l0 11.82 -2.61 0 0 -17.51 2.61 0 0 2.68c1.86,-2.08 4.2,-3.11 7.01,-3.11 2.16,0 3.8,0.63 4.94,1.9 1.14,1.27 1.72,3.06 1.72,5.38l0 10.66 -2.61 0 0 -10.08c0,-3.6 -1.65,-5.39 -4.96,-5.39 -1.21,0 -2.37,0.38 -3.51,1.12 -1.16,0.74 -2.01,1.59 -2.57,2.53l-0.02 0zm19.5 -13.56l2.61 0 0 15.08 8.35 -7.21 3.55 0 -9.25 7.89 10.56 9.61 -3.73 0 -9.47 -8.64 0 8.64 -2.61 0 0 -25.38 -0 -0zm33.17 10.16l0 15.23 -2.61 0 0 -15.23 -3.48 0 0 -2.28 3.48 0 0 -2.93c0,-1.61 0.43,-2.9 1.3,-3.82 0.87,-0.92 2.1,-1.39 3.69,-1.39 1.47,0 2.72,0.24 3.69,0.69l0 2.39c-1.16,-0.49 -2.17,-0.72 -3.04,-0.72 -2.03,0 -3.04,1.12 -3.04,3.37l0 2.43 6.08 0 0 2.28 -6.08 0 0 0zm11.57 0c1.76,-1.81 4.04,-2.72 6.83,-2.72 2.79,0 5.05,0.9 6.83,2.72 1.76,1.76 2.64,3.93 2.64,6.48 0,2.57 -0.89,4.73 -2.64,6.48 -1.79,1.79 -4.06,2.68 -6.83,2.68 -2.75,0 -5.03,-0.89 -6.83,-2.68 -1.76,-1.76 -2.64,-3.93 -2.64,-6.48 0,-2.55 0.89,-4.73 2.64,-6.48zm13.6 6.48c0,-1.94 -0.63,-3.57 -1.92,-4.89 -1.29,-1.3 -2.9,-1.96 -4.85,-1.96 -1.96,0 -3.59,0.65 -4.85,1.96 -1.29,1.32 -1.92,2.95 -1.92,4.89 0,1.92 0.63,3.53 1.92,4.85 1.29,1.3 2.9,1.96 4.85,1.96 1.96,0 3.59,-0.65 4.85,-1.96 1.29,-1.32 1.92,-2.95 1.92,-4.85zm8.93 -6.48c1.76,-1.81 4.04,-2.72 6.83,-2.72 2.79,0 5.05,0.9 6.83,2.72 1.76,1.76 2.64,3.93 2.64,6.48 0,2.57 -0.89,4.73 -2.64,6.48 -1.79,1.79 -4.06,2.68 -6.83,2.68 -2.75,0 -5.03,-0.89 -6.83,-2.68 -1.76,-1.76 -2.64,-3.93 -2.64,-6.48 0,-2.55 0.89,-4.73 2.64,-6.48zm13.6 6.48c0,-1.94 -0.63,-3.57 -1.92,-4.89 -1.29,-1.3 -2.9,-1.96 -4.85,-1.96 -1.96,0 -3.59,0.65 -4.85,1.96 -1.29,1.32 -1.92,2.95 -1.92,4.89 0,1.92 0.63,3.53 1.92,4.85 1.29,1.3 2.9,1.96 4.85,1.96 1.96,0 3.59,-0.65 4.85,-1.96 1.29,-1.32 1.92,-2.95 1.92,-4.85zm21.87 -5.97l0 -10.66 2.61 0 0 25.38 -2.61 0 0 -2.79c-1.65,2.16 -3.91,3.22 -6.79,3.22 -2.59,0 -4.71,-0.89 -6.34,-2.68 -1.65,-1.79 -2.46,-3.95 -2.46,-6.48 0,-2.55 0.81,-4.74 2.46,-6.52 1.65,-1.79 3.77,-2.68 6.34,-2.68 2.88,0 5.14,1.07 6.79,3.22l0 -0.02zm0 8.86l0 -5.76c-0.51,-1.16 -1.32,-2.12 -2.46,-2.84 -1.14,-0.74 -2.37,-1.1 -3.69,-1.1 -1.96,0 -3.57,0.67 -4.82,1.99 -1.29,1.32 -1.92,2.95 -1.92,4.85 0,1.92 0.63,3.53 1.92,4.85 1.29,1.3 2.9,1.96 4.82,1.96 1.3,0 2.53,-0.36 3.66,-1.1 1.14,-0.74 1.97,-1.68 2.5,-2.84l0 -0zm8.35 11.39l-2.1 0 2.9 -9.25 3.04 0 -3.84 9.25zm-372.27 40.11l0 -25.38 2.61 0 0 10.66c1.65,-2.16 3.91,-3.22 6.79,-3.22 2.59,0 4.71,0.89 6.34,2.68 1.65,1.79 2.46,3.96 2.46,6.52 0,2.53 -0.81,4.71 -2.46,6.48 -1.65,1.79 -3.77,2.68 -6.34,2.68 -2.88,0 -5.14,-1.07 -6.79,-3.22l0 2.79 -2.61 0 0 0.02zm2.61 -11.64l0 5.76c0.53,1.16 1.36,2.1 2.5,2.84 1.14,0.74 2.35,1.1 3.66,1.1 1.96,0 3.57,-0.65 4.82,-1.96 1.29,-1.32 1.92,-2.95 1.92,-4.85 0,-1.9 -0.63,-3.53 -1.92,-4.85 -1.25,-1.32 -2.86,-1.99 -4.82,-1.99 -1.32,0 -2.55,0.36 -3.69,1.1 -1.14,0.74 -1.96,1.68 -2.46,2.84l0 0zm33.82 5.94l0 -11.82 2.61 0 0 17.51 -2.61 0 0 -2.68c-1.86,2.08 -4.2,3.11 -7.01,3.11 -2.16,0 -3.8,-0.63 -4.94,-1.9 -1.14,-1.27 -1.72,-3.06 -1.72,-5.38l0 -10.66 2.61 0 0 10.08c0,3.6 1.65,5.39 4.96,5.39 1.21,0 2.37,-0.36 3.48,-1.09 1.18,-0.78 2.05,-1.63 2.61,-2.57l0.02 0zm15.73 6.12c-1.61,0 -2.84,-0.47 -3.68,-1.43 -0.83,-0.96 -1.25,-2.28 -1.25,-3.96l0 -10.27 -4.13 0 0 -2.28 4.13 0 0 -5.39 2.61 0 0 5.39 6.12 0 0 2.28 -6.12 0 0 9.47c0,1.39 0.24,2.37 0.69,2.9 0.49,0.56 1.27,0.83 2.35,0.83 1.07,0 2.01,-0.24 2.86,-0.72l0 2.39c-0.74,0.53 -1.94,0.8 -3.59,0.8zm18.2 -25.82l2.61 0 0 15.08 8.35 -7.21 3.55 0 -9.25 7.89 10.56 9.61 -3.73 0 -9.47 -8.64 0 8.64 -2.61 0 0 -25.38 -0 -0zm27.99 25.82c-2.73,0 -5.03,-0.85 -6.88,-2.57 -1.83,-1.68 -2.75,-3.89 -2.75,-6.61 0,-2.61 0.81,-4.8 2.46,-6.55 1.67,-1.76 3.8,-2.64 6.43,-2.64 1.39,0 2.64,0.29 3.73,0.85 1.09,0.56 1.94,1.3 2.57,2.23 0.63,0.92 1.1,1.88 1.41,2.91 0.31,1.03 0.47,2.06 0.47,3.1l0 0.72 -14.4 0c0.15,1.88 0.9,3.39 2.26,4.51 1.36,1.12 3.1,1.68 5.2,1.68 2.03,0 3.91,-0.54 5.61,-1.63l0 2.32c-1.43,1.1 -3.48,1.67 -6.12,1.67l0 0.02zm-6.92 -10.7l11.71 0c-0.07,-1.36 -0.58,-2.57 -1.52,-3.66 -0.89,-1.1 -2.28,-1.67 -4.13,-1.67 -1.74,0 -3.17,0.53 -4.27,1.59 -1.09,1.09 -1.68,2.33 -1.77,3.73l-0.02 0zm27.63 10.7c-2.73,0 -5.03,-0.85 -6.88,-2.57 -1.83,-1.68 -2.75,-3.89 -2.75,-6.61 0,-2.61 0.81,-4.8 2.46,-6.55 1.67,-1.76 3.8,-2.64 6.43,-2.64 1.39,0 2.64,0.29 3.73,0.85 1.09,0.56 1.94,1.3 2.57,2.23 0.63,0.92 1.1,1.88 1.41,2.91 0.31,1.03 0.47,2.06 0.47,3.1l0 0.72 -14.4 0c0.15,1.88 0.9,3.39 2.26,4.51 1.36,1.12 3.1,1.68 5.2,1.68 2.03,0 3.91,-0.54 5.61,-1.63l0 2.32c-1.43,1.1 -3.48,1.67 -6.12,1.67l0 0.02zm-6.92 -10.7l11.71 0c-0.07,-1.36 -0.58,-2.57 -1.52,-3.66 -0.89,-1.1 -2.28,-1.67 -4.13,-1.67 -1.74,0 -3.17,0.53 -4.27,1.59 -1.09,1.09 -1.68,2.33 -1.77,3.73l-0.02 0zm21.87 7.46l0 10.05 -2.61 0 0 -24.77 2.61 0 0 2.79c1.65,-2.16 3.91,-3.22 6.79,-3.22 2.59,0 4.71,0.89 6.34,2.68 1.65,1.79 2.46,3.95 2.46,6.48 0,2.55 -0.81,4.74 -2.46,6.52 -1.65,1.79 -3.77,2.68 -6.34,2.68 -2.88,0 -5.14,-1.07 -6.79,-3.22l0 0.02zm0 -8.85l0 5.76c0.51,1.16 1.32,2.1 2.46,2.84 1.14,0.74 2.37,1.1 3.69,1.1 1.96,0 3.57,-0.65 4.82,-1.96 1.29,-1.36 1.92,-2.99 1.92,-4.89 0,-1.9 -0.63,-3.53 -1.92,-4.85 -1.25,-1.3 -2.86,-1.96 -4.82,-1.96 -1.3,0 -2.53,0.36 -3.66,1.1 -1.14,0.74 -1.97,1.68 -2.5,2.84l0 0zm33.03 11.64l-2.61 0 0 -17.51 2.61 0 0 17.51zm-2.61 -22.23c-0.34,-0.36 -0.51,-0.8 -0.51,-1.3 0,-0.51 0.16,-0.94 0.51,-1.3 0.36,-0.36 0.8,-0.54 1.3,-0.54 0.51,0 0.94,0.18 1.3,0.54 0.36,0.36 0.54,0.8 0.54,1.3 0,0.51 -0.18,0.94 -0.54,1.3 -0.36,0.34 -0.8,0.51 -1.3,0.51 -0.51,0 -0.94,-0.16 -1.3,-0.51zm16.2 22.67c-1.61,0 -2.84,-0.47 -3.68,-1.43 -0.83,-0.96 -1.25,-2.28 -1.25,-3.96l0 -10.27 -4.13 0 0 -2.28 4.13 0 0 -5.39 2.61 0 0 5.39 6.12 0 0 2.28 -6.12 0 0 9.47c0,1.39 0.24,2.37 0.69,2.9 0.49,0.56 1.27,0.83 2.35,0.83 1.07,0 2.01,-0.24 2.86,-0.72l0 2.39c-0.74,0.53 -1.94,0.8 -3.59,0.8zm25.17 0c-1.61,0 -2.84,-0.47 -3.68,-1.43 -0.83,-0.96 -1.25,-2.28 -1.25,-3.96l0 -10.27 -4.13 0 0 -2.28 4.13 0 0 -5.39 2.61 0 0 5.39 6.12 0 0 2.28 -6.12 0 0 9.47c0,1.39 0.24,2.37 0.69,2.9 0.49,0.56 1.27,0.83 2.35,0.83 1.07,0 2.01,-0.24 2.86,-0.72l0 2.39c-0.74,0.53 -1.94,0.8 -3.59,0.8zm10.01 -15.66c1.76,-1.81 4.04,-2.72 6.83,-2.72 2.79,0 5.05,0.9 6.83,2.72 1.76,1.76 2.64,3.93 2.64,6.48 0,2.57 -0.89,4.73 -2.64,6.48 -1.79,1.79 -4.06,2.68 -6.83,2.68 -2.75,0 -5.03,-0.89 -6.83,-2.68 -1.76,-1.76 -2.64,-3.93 -2.64,-6.48 0,-2.55 0.89,-4.73 2.64,-6.48zm13.6 6.48c0,-1.94 -0.63,-3.57 -1.92,-4.89 -1.29,-1.3 -2.9,-1.96 -4.85,-1.96 -1.96,0 -3.59,0.65 -4.85,1.96 -1.29,1.32 -1.92,2.95 -1.92,4.89 0,1.92 0.63,3.53 1.92,4.85 1.29,1.3 2.9,1.96 4.85,1.96 1.96,0 3.59,-0.65 4.85,-1.96 1.29,-1.32 1.92,-2.95 1.92,-4.85zm21.87 7.62l0 -1.85c-1.58,2.08 -3.84,3.11 -6.79,3.11 -2.59,0 -4.71,-0.87 -6.34,-2.61 -1.65,-1.79 -2.46,-3.93 -2.46,-6.41 0,-2.5 0.81,-4.64 2.46,-6.43 1.61,-1.76 3.73,-2.64 6.34,-2.64 3.01,0 5.25,1.03 6.79,3.11l0 -2.68 2.61 0 0 16.39c0,2.75 -0.9,4.85 -2.72,6.3 -1.76,1.48 -4.02,2.21 -6.77,2.21 -2.66,0 -4.92,-0.53 -6.79,-1.59l0 -2.53c1.97,1.18 4.16,1.77 6.52,1.77 2.17,0 3.91,-0.53 5.2,-1.56 1.29,-1.03 1.94,-2.57 1.94,-4.6l0.02 0zm0 -4.92l0 -5.69c-0.49,-1.14 -1.29,-2.06 -2.43,-2.77 -1.14,-0.71 -2.37,-1.07 -3.73,-1.07 -1.94,0 -3.55,0.63 -4.82,1.92 -1.29,1.29 -1.92,2.88 -1.92,4.78 0,1.9 0.63,3.51 1.92,4.78 1.25,1.25 2.86,1.88 4.82,1.88 1.36,0 2.59,-0.36 3.73,-1.07 1.14,-0.71 1.94,-1.63 2.43,-2.77l0 0zm17.11 6.48c-2.73,0 -5.03,-0.85 -6.88,-2.57 -1.83,-1.68 -2.75,-3.89 -2.75,-6.61 0,-2.61 0.81,-4.8 2.46,-6.55 1.67,-1.76 3.8,-2.64 6.43,-2.64 1.39,0 2.64,0.29 3.73,0.85 1.09,0.56 1.94,1.3 2.57,2.23 0.63,0.92 1.1,1.88 1.41,2.91 0.31,1.03 0.47,2.06 0.47,3.1l0 0.72 -14.4 0c0.15,1.88 0.9,3.39 2.26,4.51 1.36,1.12 3.1,1.68 5.2,1.68 2.03,0 3.91,-0.54 5.61,-1.63l0 2.32c-1.43,1.1 -3.48,1.67 -6.12,1.67l0 0.02zm-6.92 -10.7l11.71 0c-0.07,-1.36 -0.58,-2.57 -1.52,-3.66 -0.89,-1.1 -2.28,-1.67 -4.13,-1.67 -1.74,0 -3.17,0.53 -4.27,1.59 -1.09,1.09 -1.68,2.33 -1.77,3.73l-0.02 0zm26.22 10.7c-1.61,0 -2.84,-0.47 -3.68,-1.43 -0.83,-0.96 -1.25,-2.28 -1.25,-3.96l0 -10.27 -4.13 0 0 -2.28 4.13 0 0 -5.39 2.61 0 0 5.39 6.12 0 0 2.28 -6.12 0 0 9.47c0,1.39 0.24,2.37 0.69,2.9 0.49,0.56 1.27,0.83 2.35,0.83 1.07,0 2.01,-0.24 2.86,-0.72l0 2.39c-0.74,0.53 -1.94,0.8 -3.59,0.8zm11.24 -12.26l0 11.82 -2.61 0 0 -25.38 2.61 0 0 10.56c1.86,-2.08 4.2,-3.11 7.01,-3.11 2.16,0 3.8,0.63 4.94,1.9 1.14,1.27 1.72,3.06 1.72,5.38l0 10.66 -2.61 0 0 -10.08c0,-3.6 -1.65,-5.39 -4.96,-5.39 -1.21,0 -2.37,0.38 -3.51,1.12 -1.16,0.74 -2.01,1.59 -2.57,2.53l-0.02 -0zm27.88 12.26c-2.73,0 -5.03,-0.85 -6.88,-2.57 -1.83,-1.68 -2.75,-3.89 -2.75,-6.61 0,-2.61 0.81,-4.8 2.46,-6.55 1.67,-1.76 3.8,-2.64 6.43,-2.64 1.39,0 2.64,0.29 3.73,0.85 1.09,0.56 1.94,1.3 2.57,2.23 0.63,0.92 1.1,1.88 1.41,2.91 0.31,1.03 0.47,2.06 0.47,3.1l0 0.72 -14.4 0c0.15,1.88 0.9,3.39 2.26,4.51 1.36,1.12 3.1,1.68 5.2,1.68 2.03,0 3.91,-0.54 5.61,-1.63l0 2.32c-1.43,1.1 -3.48,1.67 -6.12,1.67l0 0.02zm-6.92 -10.7l11.71 0c-0.07,-1.36 -0.58,-2.57 -1.52,-3.66 -0.89,-1.1 -2.28,-1.67 -4.13,-1.67 -1.74,0 -3.17,0.53 -4.27,1.59 -1.09,1.09 -1.68,2.33 -1.77,3.73l-0.02 0zm21.87 10.27l-2.61 0 0 -17.51 2.61 0 0 3.33c0.65,-1.14 1.61,-2.05 2.9,-2.73 1.29,-0.69 2.63,-1.03 4.06,-1.03l0 2.64c-0.8,0 -1.52,0.11 -2.17,0.33 -1.1,0.29 -2.1,0.8 -2.93,1.5 -0.85,0.71 -1.47,1.52 -1.85,2.41l0 11.06z"/>
   <path class="fil1" d="M781.04 1128.01l-14.74 0 0 -41.79 14.74 0c6.68,0 12.15,1.96 16.42,5.85 4.26,3.89 6.39,8.91 6.39,15.05 0,6.17 -2.14,11.21 -6.39,15.1 -4.22,3.86 -9.69,5.79 -16.42,5.79zm-8.18 -35.76l0 29.73 7.59 0c5.25,0 9.33,-1.34 12.24,-4 2.95,-2.7 4.42,-6.32 4.42,-10.86 0,-4.54 -1.47,-8.17 -4.42,-10.86 -2.9,-2.66 -6.99,-4 -12.24,-4l-7.59 0zm42.98 35.76l-6.99 0 18.27 -42.03 6.32 0 18.27 42.03 -7.04 0 -4.54 -10.39 -19.83 0 -4.47 10.39 0.02 0zm14.4 -33.73l-7.64 17.55 15.28 0 -7.64 -17.55 -0 0zm46.5 33.73l-6.57 0 0 -18.92 -16.19 -22.87 7.64 0 11.93 16.89 11.93 -16.89 7.41 0 -16.19 22.69 0 19.1 0.04 0zm45.07 0l-7.04 0 18.09 -35.89 -21.08 0 0 -5.9 28.54 0 0 5.07 -18.51 36.72z"/>
   <g id="_1923272566640">
    <path class="fil1" d="M699.07 1177.29l0 11.82 -2.61 0 0 -25.38 2.61 0 0 10.56c1.86,-2.08 4.2,-3.11 7.01,-3.11 2.16,0 3.8,0.63 4.94,1.9 1.14,1.27 1.72,3.06 1.72,5.38l0 10.66 -2.61 0 0 -10.08c0,-3.6 -1.65,-5.39 -4.96,-5.39 -1.21,0 -2.37,0.38 -3.51,1.12 -1.16,0.74 -2.01,1.59 -2.57,2.53l-0.02 -0zm25.42 9.9c1.21,0 2.35,-0.27 3.44,-0.83 1.09,-0.56 1.97,-1.25 2.64,-2.1l0 -2.43c-1.79,-1.16 -3.69,-1.74 -5.69,-1.74 -1.59,0 -2.86,0.31 -3.78,0.94 -0.92,0.63 -1.39,1.48 -1.39,2.57 0,1.14 0.45,2.01 1.34,2.64 0.89,0.63 2.05,0.94 3.44,0.94l0 -0zm-0.72 2.35c-1.86,0 -3.44,-0.51 -4.74,-1.52 -1.29,-1.07 -1.92,-2.5 -1.92,-4.27 0,-1.76 0.67,-3.19 2.03,-4.24 1.36,-1.03 3.08,-1.56 5.14,-1.56 2.26,0 4.38,0.56 6.3,1.7l0 -1.74c0,-2.93 -1.92,-4.38 -5.76,-4.38 -2.05,0 -3.96,0.6 -5.72,1.77l0 -2.53c1.72,-1.07 3.8,-1.59 6.27,-1.59 2.39,0 4.29,0.56 5.7,1.68 1.41,1.12 2.12,2.73 2.12,4.8l0 7.22c0,0.67 0.15,1.21 0.45,1.59 0.31,0.38 0.71,0.58 1.21,0.58 0.38,0 0.72,-0.07 1.01,-0.22l0 2.03c-0.38,0.27 -0.96,0.4 -1.74,0.4 -0.87,0 -1.59,-0.24 -2.19,-0.71 -0.6,-0.47 -0.96,-1.16 -1.1,-2.08 -1.76,2.05 -4.13,3.08 -7.06,3.08l0 -0.02zm24.73 -0.32l-2.39 0 -8.06 -17.62 2.93 0 6.39 14.1 6.34 -14.1 2.82 0 -8.06 17.62 0.02 0zm20.55 0.32c-2.73,0 -5.03,-0.85 -6.88,-2.57 -1.83,-1.68 -2.75,-3.89 -2.75,-6.61 0,-2.61 0.81,-4.8 2.46,-6.55 1.67,-1.76 3.8,-2.64 6.43,-2.64 1.39,0 2.64,0.29 3.73,0.85 1.09,0.56 1.94,1.3 2.57,2.23 0.63,0.92 1.1,1.88 1.41,2.91 0.31,1.03 0.47,2.06 0.47,3.1l0 0.72 -14.4 0c0.15,1.88 0.9,3.39 2.26,4.51 1.36,1.12 3.1,1.68 5.2,1.68 2.03,0 3.91,-0.54 5.61,-1.63l0 2.32c-1.43,1.1 -3.48,1.67 -6.12,1.67l0 0.02zm-6.92 -10.7l11.71 0c-0.07,-1.36 -0.58,-2.57 -1.52,-3.66 -0.89,-1.1 -2.28,-1.67 -4.13,-1.67 -1.74,0 -3.17,0.53 -4.27,1.59 -1.09,1.09 -1.68,2.33 -1.77,3.73l-0.02 0zm34.73 8.35c1.21,0 2.35,-0.27 3.44,-0.83 1.09,-0.56 1.97,-1.25 2.64,-2.1l0 -2.43c-1.79,-1.16 -3.69,-1.74 -5.69,-1.74 -1.59,0 -2.86,0.31 -3.78,0.94 -0.92,0.63 -1.39,1.48 -1.39,2.57 0,1.14 0.45,2.01 1.34,2.64 0.89,0.63 2.05,0.94 3.44,0.94l0 -0zm-0.72 2.35c-1.86,0 -3.44,-0.51 -4.74,-1.52 -1.29,-1.07 -1.92,-2.5 -1.92,-4.27 0,-1.76 0.67,-3.19 2.03,-4.24 1.36,-1.03 3.08,-1.56 5.14,-1.56 2.26,0 4.38,0.56 6.3,1.7l0 -1.74c0,-2.93 -1.92,-4.38 -5.76,-4.38 -2.05,0 -3.96,0.6 -5.72,1.77l0 -2.53c1.72,-1.07 3.8,-1.59 6.27,-1.59 2.39,0 4.29,0.56 5.7,1.68 1.41,1.12 2.12,2.73 2.12,4.8l0 7.22c0,0.67 0.15,1.21 0.45,1.59 0.31,0.38 0.71,0.58 1.21,0.58 0.38,0 0.72,-0.07 1.01,-0.22l0 2.03c-0.38,0.27 -0.96,0.4 -1.74,0.4 -0.87,0 -1.59,-0.24 -2.19,-0.71 -0.6,-0.47 -0.96,-1.16 -1.1,-2.08 -1.76,2.05 -4.13,3.08 -7.06,3.08l0 -0.02zm25.93 -0.43l0 -25.38 2.61 0 0 10.66c1.65,-2.16 3.91,-3.22 6.79,-3.22 2.59,0 4.71,0.89 6.34,2.68 1.65,1.79 2.46,3.96 2.46,6.52 0,2.53 -0.81,4.71 -2.46,6.48 -1.65,1.79 -3.77,2.68 -6.34,2.68 -2.88,0 -5.14,-1.07 -6.79,-3.22l0 2.79 -2.61 0 0 0.02zm2.61 -11.64l0 5.76c0.53,1.16 1.36,2.1 2.5,2.84 1.14,0.74 2.35,1.1 3.66,1.1 1.96,0 3.57,-0.65 4.82,-1.96 1.29,-1.32 1.92,-2.95 1.92,-4.85 0,-1.9 -0.63,-3.53 -1.92,-4.85 -1.25,-1.32 -2.86,-1.99 -4.82,-1.99 -1.32,0 -2.55,0.36 -3.69,1.1 -1.14,0.74 -1.96,1.68 -2.46,2.84l0 0zm23.07 11.64l-2.61 0 0 -17.51 2.61 0 0 3.33c0.65,-1.14 1.61,-2.05 2.9,-2.73 1.29,-0.69 2.63,-1.03 4.06,-1.03l0 2.64c-0.8,0 -1.52,0.11 -2.17,0.33 -1.1,0.29 -2.1,0.8 -2.93,1.5 -0.85,0.71 -1.47,1.52 -1.85,2.41l0 11.06zm19.14 0.43c-2.73,0 -5.03,-0.85 -6.88,-2.57 -1.83,-1.68 -2.75,-3.89 -2.75,-6.61 0,-2.61 0.81,-4.8 2.46,-6.55 1.67,-1.76 3.8,-2.64 6.43,-2.64 1.39,0 2.64,0.29 3.73,0.85 1.09,0.56 1.94,1.3 2.57,2.23 0.63,0.92 1.1,1.88 1.41,2.91 0.31,1.03 0.47,2.06 0.47,3.1l0 0.72 -14.4 0c0.15,1.88 0.9,3.39 2.26,4.51 1.36,1.12 3.1,1.68 5.2,1.68 2.03,0 3.91,-0.54 5.61,-1.63l0 2.32c-1.43,1.1 -3.48,1.67 -6.12,1.67l0 0.02zm-6.92 -10.7l11.71 0c-0.07,-1.36 -0.58,-2.57 -1.52,-3.66 -0.89,-1.1 -2.28,-1.67 -4.13,-1.67 -1.74,0 -3.17,0.53 -4.27,1.59 -1.09,1.09 -1.68,2.33 -1.77,3.73l-0.02 0zm25.17 8.35c1.21,0 2.35,-0.27 3.44,-0.83 1.09,-0.56 1.97,-1.25 2.64,-2.1l0 -2.43c-1.79,-1.16 -3.69,-1.74 -5.69,-1.74 -1.59,0 -2.86,0.31 -3.78,0.94 -0.92,0.63 -1.39,1.48 -1.39,2.57 0,1.14 0.45,2.01 1.34,2.64 0.89,0.63 2.05,0.94 3.44,0.94l0 -0zm-0.72 2.35c-1.86,0 -3.44,-0.51 -4.74,-1.52 -1.29,-1.07 -1.92,-2.5 -1.92,-4.27 0,-1.76 0.67,-3.19 2.03,-4.24 1.36,-1.03 3.08,-1.56 5.14,-1.56 2.26,0 4.38,0.56 6.3,1.7l0 -1.74c0,-2.93 -1.92,-4.38 -5.76,-4.38 -2.05,0 -3.96,0.6 -5.72,1.77l0 -2.53c1.72,-1.07 3.8,-1.59 6.27,-1.59 2.39,0 4.29,0.56 5.7,1.68 1.41,1.12 2.12,2.73 2.12,4.8l0 7.22c0,0.67 0.15,1.21 0.45,1.59 0.31,0.38 0.71,0.58 1.21,0.58 0.38,0 0.72,-0.07 1.01,-0.22l0 2.03c-0.38,0.27 -0.96,0.4 -1.74,0.4 -0.87,0 -1.59,-0.24 -2.19,-0.71 -0.6,-0.47 -0.96,-1.16 -1.1,-2.08 -1.76,2.05 -4.13,3.08 -7.06,3.08l0 -0.02zm16.35 -25.82l2.61 0 0 15.08 8.35 -7.21 3.55 0 -9.25 7.89 10.56 9.61 -3.73 0 -9.47 -8.64 0 8.64 -2.61 0 0 -25.38 -0 -0zm33.93 10.66l0 -10.66 2.61 0 0 25.38 -2.61 0 0 -2.79c-1.65,2.16 -3.91,3.22 -6.79,3.22 -2.59,0 -4.71,-0.89 -6.34,-2.68 -1.65,-1.79 -2.46,-3.95 -2.46,-6.48 0,-2.55 0.81,-4.74 2.46,-6.52 1.65,-1.79 3.77,-2.68 6.34,-2.68 2.88,0 5.14,1.07 6.79,3.22l0 -0.02zm0 8.85l0 -5.76c-0.51,-1.16 -1.32,-2.12 -2.46,-2.84 -1.14,-0.74 -2.37,-1.1 -3.69,-1.1 -1.96,0 -3.57,0.67 -4.82,1.99 -1.29,1.32 -1.92,2.95 -1.92,4.85 0,1.92 0.63,3.53 1.92,4.85 1.29,1.3 2.9,1.96 4.82,1.96 1.3,0 2.53,-0.36 3.66,-1.1 1.14,-0.74 1.97,-1.68 2.5,-2.84l0 -0zm10.16 -9.36c1.76,-1.81 4.04,-2.72 6.83,-2.72 2.79,0 5.05,0.9 6.83,2.72 1.76,1.76 2.64,3.93 2.64,6.48 0,2.57 -0.89,4.73 -2.64,6.48 -1.79,1.79 -4.06,2.68 -6.83,2.68 -2.75,0 -5.03,-0.89 -6.83,-2.68 -1.76,-1.76 -2.64,-3.93 -2.64,-6.48 0,-2.55 0.89,-4.73 2.64,-6.48zm13.6 6.48c0,-1.94 -0.63,-3.57 -1.92,-4.89 -1.29,-1.3 -2.9,-1.96 -4.85,-1.96 -1.96,0 -3.59,0.65 -4.85,1.96 -1.29,1.32 -1.92,2.95 -1.92,4.89 0,1.92 0.63,3.53 1.92,4.85 1.29,1.3 2.9,1.96 4.85,1.96 1.96,0 3.59,-0.65 4.85,-1.96 1.29,-1.32 1.92,-2.95 1.92,-4.85zm14.4 8.86l-2.28 0 -6.27 -17.62 2.68 0 4.89 13.63 4.78 -13.71 2.21 0 4.82 13.71 4.85 -13.63 2.64 0 -6.27 17.62 -2.28 0 -4.92 -13.74 -4.85 13.74zm25.46 -11.93l0 11.82 -2.61 0 0 -17.51 2.61 0 0 2.68c1.86,-2.08 4.2,-3.11 7.01,-3.11 2.16,0 3.8,0.63 4.94,1.9 1.14,1.27 1.72,3.06 1.72,5.38l0 10.66 -2.61 0 0 -10.08c0,-3.6 -1.65,-5.39 -4.96,-5.39 -1.21,0 -2.37,0.38 -3.51,1.12 -1.16,0.74 -2.01,1.59 -2.57,2.53l-0.02 0zm-442.83 55.51c1.21,0 2.35,-0.27 3.44,-0.83 1.09,-0.56 1.97,-1.25 2.64,-2.1l0 -2.43c-1.79,-1.16 -3.69,-1.74 -5.69,-1.74 -1.59,0 -2.86,0.31 -3.78,0.94 -0.92,0.63 -1.39,1.48 -1.39,2.57 0,1.14 0.45,2.01 1.34,2.64 0.89,0.63 2.05,0.94 3.44,0.94l0 -0zm-0.72 2.35c-1.86,0 -3.44,-0.51 -4.74,-1.52 -1.29,-1.07 -1.92,-2.5 -1.92,-4.27 0,-1.76 0.67,-3.19 2.03,-4.24 1.36,-1.03 3.08,-1.56 5.14,-1.56 2.26,0 4.38,0.56 6.3,1.7l0 -1.74c0,-2.93 -1.92,-4.38 -5.76,-4.38 -2.05,0 -3.96,0.6 -5.72,1.77l0 -2.53c1.72,-1.07 3.8,-1.59 6.27,-1.59 2.39,0 4.29,0.56 5.7,1.68 1.41,1.12 2.12,2.73 2.12,4.8l0 7.22c0,0.67 0.15,1.21 0.45,1.59 0.31,0.38 0.71,0.58 1.21,0.58 0.38,0 0.72,-0.07 1.01,-0.22l0 2.03c-0.38,0.27 -0.96,0.4 -1.74,0.4 -0.87,0 -1.59,-0.24 -2.19,-0.71 -0.6,-0.47 -0.96,-1.16 -1.1,-2.08 -1.76,2.05 -4.13,3.08 -7.06,3.08l0 -0.02zm18.96 -12.26l0 11.82 -2.61 0 0 -17.51 2.61 0 0 2.68c1.86,-2.08 4.2,-3.11 7.01,-3.11 2.16,0 3.8,0.63 4.94,1.9 1.14,1.27 1.72,3.06 1.72,5.38l0 10.66 -2.61 0 0 -10.08c0,-3.6 -1.65,-5.39 -4.96,-5.39 -1.21,0 -2.37,0.38 -3.51,1.12 -1.16,0.74 -2.01,1.59 -2.57,2.53l-0.02 0zm33.82 -2.9l0 -10.66 2.61 0 0 25.38 -2.61 0 0 -2.79c-1.65,2.16 -3.91,3.22 -6.79,3.22 -2.59,0 -4.71,-0.89 -6.34,-2.68 -1.65,-1.79 -2.46,-3.95 -2.46,-6.48 0,-2.55 0.81,-4.74 2.46,-6.52 1.65,-1.79 3.77,-2.68 6.34,-2.68 2.88,0 5.14,1.07 6.79,3.22l0 -0.02zm0 8.86l0 -5.76c-0.51,-1.16 -1.32,-2.12 -2.46,-2.84 -1.14,-0.74 -2.37,-1.1 -3.69,-1.1 -1.96,0 -3.57,0.67 -4.82,1.99 -1.29,1.32 -1.92,2.95 -1.92,4.85 0,1.92 0.63,3.53 1.92,4.85 1.29,1.3 2.9,1.96 4.82,1.96 1.3,0 2.53,-0.36 3.66,-1.1 1.14,-0.74 1.97,-1.68 2.5,-2.84l0 -0zm19.72 -9.36c1.76,-1.81 4.04,-2.72 6.83,-2.72 2.79,0 5.05,0.9 6.83,2.72 1.76,1.76 2.64,3.93 2.64,6.48 0,2.57 -0.89,4.73 -2.64,6.48 -1.79,1.79 -4.06,2.68 -6.83,2.68 -2.75,0 -5.03,-0.89 -6.83,-2.68 -1.76,-1.76 -2.64,-3.93 -2.64,-6.48 0,-2.55 0.89,-4.73 2.64,-6.48zm13.6 6.48c0,-1.94 -0.63,-3.57 -1.92,-4.89 -1.29,-1.3 -2.9,-1.96 -4.85,-1.96 -1.96,0 -3.59,0.65 -4.85,1.96 -1.29,1.32 -1.92,2.95 -1.92,4.89 0,1.92 0.63,3.53 1.92,4.85 1.29,1.3 2.9,1.96 4.85,1.96 1.96,0 3.59,-0.65 4.85,-1.96 1.29,-1.32 1.92,-2.95 1.92,-4.85zm15.92 8.85l-2.39 0 -8.06 -17.62 2.93 0 6.39 14.1 6.34 -14.1 2.82 0 -8.06 17.62 0.02 0zm20.55 0.33c-2.73,0 -5.03,-0.85 -6.88,-2.57 -1.83,-1.68 -2.75,-3.89 -2.75,-6.61 0,-2.61 0.81,-4.8 2.46,-6.55 1.67,-1.76 3.8,-2.64 6.43,-2.64 1.39,0 2.64,0.29 3.73,0.85 1.09,0.56 1.94,1.3 2.57,2.23 0.63,0.92 1.1,1.88 1.41,2.91 0.31,1.03 0.47,2.06 0.47,3.1l0 0.72 -14.4 0c0.15,1.88 0.9,3.39 2.26,4.51 1.36,1.12 3.1,1.68 5.2,1.68 2.03,0 3.91,-0.54 5.61,-1.63l0 2.32c-1.43,1.1 -3.48,1.67 -6.12,1.67l0 0.02zm-6.92 -10.7l11.71 0c-0.07,-1.36 -0.58,-2.57 -1.52,-3.66 -0.89,-1.1 -2.28,-1.67 -4.13,-1.67 -1.74,0 -3.17,0.53 -4.27,1.59 -1.09,1.09 -1.68,2.33 -1.77,3.73l-0.02 0zm21.87 10.27l-2.61 0 0 -17.51 2.61 0 0 3.33c0.65,-1.14 1.61,-2.05 2.9,-2.73 1.29,-0.69 2.63,-1.03 4.06,-1.03l0 2.64c-0.8,0 -1.52,0.11 -2.17,0.33 -1.1,0.29 -2.1,0.8 -2.93,1.5 -0.85,0.71 -1.47,1.52 -1.85,2.41l0 11.06zm19.14 0.43c-2.73,0 -5.03,-0.85 -6.88,-2.57 -1.83,-1.68 -2.75,-3.89 -2.75,-6.61 0,-2.61 0.81,-4.8 2.46,-6.55 1.67,-1.76 3.8,-2.64 6.43,-2.64 1.39,0 2.64,0.29 3.73,0.85 1.09,0.56 1.94,1.3 2.57,2.23 0.63,0.92 1.1,1.88 1.41,2.91 0.31,1.03 0.47,2.06 0.47,3.1l0 0.72 -14.4 0c0.15,1.88 0.9,3.39 2.26,4.51 1.36,1.12 3.1,1.68 5.2,1.68 2.03,0 3.91,-0.54 5.61,-1.63l0 2.32c-1.43,1.1 -3.48,1.67 -6.12,1.67l0 0.02zm-6.92 -10.7l11.71 0c-0.07,-1.36 -0.58,-2.57 -1.52,-3.66 -0.89,-1.1 -2.28,-1.67 -4.13,-1.67 -1.74,0 -3.17,0.53 -4.27,1.59 -1.09,1.09 -1.68,2.33 -1.77,3.73l-0.02 0zm25.17 8.35c1.21,0 2.35,-0.27 3.44,-0.83 1.09,-0.56 1.97,-1.25 2.64,-2.1l0 -2.43c-1.79,-1.16 -3.69,-1.74 -5.69,-1.74 -1.59,0 -2.86,0.31 -3.78,0.94 -0.92,0.63 -1.39,1.48 -1.39,2.57 0,1.14 0.45,2.01 1.34,2.64 0.89,0.63 2.05,0.94 3.44,0.94l0 -0zm-0.72 2.35c-1.86,0 -3.44,-0.51 -4.74,-1.52 -1.29,-1.07 -1.92,-2.5 -1.92,-4.27 0,-1.76 0.67,-3.19 2.03,-4.24 1.36,-1.03 3.08,-1.56 5.14,-1.56 2.26,0 4.38,0.56 6.3,1.7l0 -1.74c0,-2.93 -1.92,-4.38 -5.76,-4.38 -2.05,0 -3.96,0.6 -5.72,1.77l0 -2.53c1.72,-1.07 3.8,-1.59 6.27,-1.59 2.39,0 4.29,0.56 5.7,1.68 1.41,1.12 2.12,2.73 2.12,4.8l0 7.22c0,0.67 0.15,1.21 0.45,1.59 0.31,0.38 0.71,0.58 1.21,0.58 0.38,0 0.72,-0.07 1.01,-0.22l0 2.03c-0.38,0.27 -0.96,0.4 -1.74,0.4 -0.87,0 -1.59,-0.24 -2.19,-0.71 -0.6,-0.47 -0.96,-1.16 -1.1,-2.08 -1.76,2.05 -4.13,3.08 -7.06,3.08l0 -0.02zm23.32 0c-1.61,0 -2.84,-0.47 -3.68,-1.43 -0.83,-0.96 -1.25,-2.28 -1.25,-3.96l0 -10.27 -4.13 0 0 -2.28 4.13 0 0 -5.39 2.61 0 0 5.39 6.12 0 0 2.28 -6.12 0 0 9.47c0,1.39 0.24,2.37 0.69,2.9 0.49,0.56 1.27,0.83 2.35,0.83 1.07,0 2.01,-0.24 2.86,-0.72l0 2.39c-0.74,0.53 -1.94,0.8 -3.59,0.8zm24.15 0c-1.39,0 -2.77,-0.18 -4.11,-0.53 -1.34,-0.34 -2.39,-0.78 -3.13,-1.29l0 -2.68c2.14,1.43 4.53,2.14 7.19,2.14 1.5,0 2.68,-0.25 3.53,-0.74 0.85,-0.49 1.29,-1.18 1.29,-2.05 0,-0.74 -0.42,-1.36 -1.23,-1.85 -0.24,-0.2 -0.85,-0.42 -1.85,-0.65 -0.29,-0.09 -0.69,-0.2 -1.2,-0.29 -0.65,-0.16 -1.05,-0.27 -1.2,-0.29 -2.19,-0.56 -3.77,-1.21 -4.71,-1.97 -0.94,-0.76 -1.41,-1.86 -1.41,-3.31 0,-1.52 0.62,-2.72 1.85,-3.57 1.23,-0.85 2.95,-1.29 5.18,-1.29 2.64,0 4.76,0.53 6.39,1.56l0 2.57c-1.97,-1.18 -4.07,-1.77 -6.27,-1.77 -1.47,0 -2.59,0.24 -3.35,0.69 -0.76,0.45 -1.14,1.09 -1.14,1.88 0,0.87 0.45,1.52 1.34,1.96 0.16,0.05 0.38,0.13 0.63,0.24 0.25,0.11 0.51,0.2 0.78,0.27l0.8 0.22c0.58,0.2 1.16,0.33 1.74,0.4 2.17,0.53 3.78,1.18 4.8,1.96 1.03,0.78 1.54,1.86 1.54,3.3 0,1.59 -0.71,2.84 -2.1,3.73 -1.39,0.92 -3.19,1.38 -5.32,1.38l-0.04 -0zm13.89 -15.66c1.76,-1.81 4.04,-2.72 6.83,-2.72 2.79,0 5.05,0.9 6.83,2.72 1.76,1.76 2.64,3.93 2.64,6.48 0,2.57 -0.89,4.73 -2.64,6.48 -1.79,1.79 -4.06,2.68 -6.83,2.68 -2.75,0 -5.03,-0.89 -6.83,-2.68 -1.76,-1.76 -2.64,-3.93 -2.64,-6.48 0,-2.55 0.89,-4.73 2.64,-6.48zm13.6 6.48c0,-1.94 -0.63,-3.57 -1.92,-4.89 -1.29,-1.3 -2.9,-1.96 -4.85,-1.96 -1.96,0 -3.59,0.65 -4.85,1.96 -1.29,1.32 -1.92,2.95 -1.92,4.89 0,1.92 0.63,3.53 1.92,4.85 1.29,1.3 2.9,1.96 4.85,1.96 1.96,0 3.59,-0.65 4.85,-1.96 1.29,-1.32 1.92,-2.95 1.92,-4.85zm10.16 8.75l-2.61 0 0 -17.51 2.61 0 0 2.61c1.45,-2.03 3.55,-3.04 6.3,-3.04 1.43,0 2.63,0.31 3.6,0.9 0.98,0.6 1.65,1.45 2.01,2.53 0.67,-1.03 1.59,-1.88 2.77,-2.5 1.18,-0.63 2.5,-0.94 3.96,-0.94 1.96,0 3.48,0.62 4.56,1.83 1.09,1.21 1.63,2.95 1.63,5.2l0 10.92 -2.61 0 0 -10.34c0,-3.44 -1.45,-5.14 -4.35,-5.14 -1.07,0 -2.12,0.36 -3.17,1.1 -1.05,0.74 -1.85,1.63 -2.37,2.66 0,0.24 0,0.53 0.02,0.83 0.02,0.31 0.02,0.56 0.04,0.72 0.02,0.16 0.02,0.31 0.02,0.4l0 9.76 -2.61 0 0 -10.34c0,-3.44 -1.45,-5.14 -4.35,-5.14 -1.01,0 -2.05,0.36 -3.11,1.09 -1.01,0.67 -1.79,1.52 -2.35,2.53l0 11.86 0 0zm39.09 0.43c-2.73,0 -5.03,-0.85 -6.88,-2.57 -1.83,-1.68 -2.75,-3.89 -2.75,-6.61 0,-2.61 0.81,-4.8 2.46,-6.55 1.67,-1.76 3.8,-2.64 6.43,-2.64 1.39,0 2.64,0.29 3.73,0.85 1.09,0.56 1.94,1.3 2.57,2.23 0.63,0.92 1.1,1.88 1.41,2.91 0.31,1.03 0.47,2.06 0.47,3.1l0 0.72 -14.4 0c0.15,1.88 0.9,3.39 2.26,4.51 1.36,1.12 3.1,1.68 5.2,1.68 2.03,0 3.91,-0.54 5.61,-1.63l0 2.32c-1.43,1.1 -3.48,1.67 -6.12,1.67l0 0.02zm-6.92 -10.7l11.71 0c-0.07,-1.36 -0.58,-2.57 -1.52,-3.66 -0.89,-1.1 -2.28,-1.67 -4.13,-1.67 -1.74,0 -3.17,0.53 -4.27,1.59 -1.09,1.09 -1.68,2.33 -1.77,3.73l-0.02 0zm30.06 -5.94l-2.32 0 0 -9.18 2.32 0 0 9.18zm6.7 0l-2.32 0 0 -9.18 2.32 0 0 9.18zm9.07 0.98l0 15.23 -2.61 0 0 -15.23 -3.48 0 0 -2.28 3.48 0 0 -2.93c0,-1.61 0.43,-2.9 1.3,-3.82 0.87,-0.92 2.1,-1.39 3.69,-1.39 1.47,0 2.72,0.24 3.69,0.69l0 2.39c-1.16,-0.49 -2.17,-0.72 -3.04,-0.72 -2.03,0 -3.04,1.12 -3.04,3.37l0 2.43 6.08 0 0 2.28 -6.08 0 0 0zm11.57 0c1.76,-1.81 4.04,-2.72 6.83,-2.72 2.79,0 5.05,0.9 6.83,2.72 1.76,1.76 2.64,3.93 2.64,6.48 0,2.57 -0.89,4.73 -2.64,6.48 -1.79,1.79 -4.06,2.68 -6.83,2.68 -2.75,0 -5.03,-0.89 -6.83,-2.68 -1.76,-1.76 -2.64,-3.93 -2.64,-6.48 0,-2.55 0.89,-4.73 2.64,-6.48zm13.6 6.48c0,-1.94 -0.63,-3.57 -1.92,-4.89 -1.29,-1.3 -2.9,-1.96 -4.85,-1.96 -1.96,0 -3.59,0.65 -4.85,1.96 -1.29,1.32 -1.92,2.95 -1.92,4.89 0,1.92 0.63,3.53 1.92,4.85 1.29,1.3 2.9,1.96 4.85,1.96 1.96,0 3.59,-0.65 4.85,-1.96 1.29,-1.32 1.92,-2.95 1.92,-4.85zm10.16 8.75l-2.61 0 0 -17.51 2.61 0 0 3.33c0.65,-1.14 1.61,-2.05 2.9,-2.73 1.29,-0.69 2.63,-1.03 4.06,-1.03l0 2.64c-0.8,0 -1.52,0.11 -2.17,0.33 -1.1,0.29 -2.1,0.8 -2.93,1.5 -0.85,0.71 -1.47,1.52 -1.85,2.41l0 11.06zm10.77 0l0 -25.38 2.61 0 0 10.66c1.65,-2.16 3.91,-3.22 6.79,-3.22 2.59,0 4.71,0.89 6.34,2.68 1.65,1.79 2.46,3.96 2.46,6.52 0,2.53 -0.81,4.71 -2.46,6.48 -1.65,1.79 -3.77,2.68 -6.34,2.68 -2.88,0 -5.14,-1.07 -6.79,-3.22l0 2.79 -2.61 0 0 0.02zm2.61 -11.64l0 5.76c0.53,1.16 1.36,2.1 2.5,2.84 1.14,0.74 2.35,1.1 3.66,1.1 1.96,0 3.57,-0.65 4.82,-1.96 1.29,-1.32 1.92,-2.95 1.92,-4.85 0,-1.9 -0.63,-3.53 -1.92,-4.85 -1.25,-1.32 -2.86,-1.99 -4.82,-1.99 -1.32,0 -2.55,0.36 -3.69,1.1 -1.14,0.74 -1.96,1.68 -2.46,2.84l0 0zm23.47 11.64l-2.61 0 0 -17.51 2.61 0 0 17.51zm-2.61 -22.23c-0.34,-0.36 -0.51,-0.8 -0.51,-1.3 0,-0.51 0.16,-0.94 0.51,-1.3 0.36,-0.36 0.8,-0.54 1.3,-0.54 0.51,0 0.94,0.18 1.3,0.54 0.36,0.36 0.54,0.8 0.54,1.3 0,0.51 -0.18,0.94 -0.54,1.3 -0.36,0.34 -0.8,0.51 -1.3,0.51 -0.51,0 -0.94,-0.16 -1.3,-0.51zm23.57 7.49l0 -10.66 2.61 0 0 25.38 -2.61 0 0 -2.79c-1.65,2.16 -3.91,3.22 -6.79,3.22 -2.59,0 -4.71,-0.89 -6.34,-2.68 -1.65,-1.79 -2.46,-3.95 -2.46,-6.48 0,-2.55 0.81,-4.74 2.46,-6.52 1.65,-1.79 3.77,-2.68 6.34,-2.68 2.88,0 5.14,1.07 6.79,3.22l0 -0.02zm0 8.86l0 -5.76c-0.51,-1.16 -1.32,-2.12 -2.46,-2.84 -1.14,-0.74 -2.37,-1.1 -3.69,-1.1 -1.96,0 -3.57,0.67 -4.82,1.99 -1.29,1.32 -1.92,2.95 -1.92,4.85 0,1.92 0.63,3.53 1.92,4.85 1.29,1.3 2.9,1.96 4.82,1.96 1.3,0 2.53,-0.36 3.66,-1.1 1.14,-0.74 1.97,-1.68 2.5,-2.84l0 -0zm23.1 -8.86l0 -10.66 2.61 0 0 25.38 -2.61 0 0 -2.79c-1.65,2.16 -3.91,3.22 -6.79,3.22 -2.59,0 -4.71,-0.89 -6.34,-2.68 -1.65,-1.79 -2.46,-3.95 -2.46,-6.48 0,-2.55 0.81,-4.74 2.46,-6.52 1.65,-1.79 3.77,-2.68 6.34,-2.68 2.88,0 5.14,1.07 6.79,3.22l0 -0.02zm0 8.86l0 -5.76c-0.51,-1.16 -1.32,-2.12 -2.46,-2.84 -1.14,-0.74 -2.37,-1.1 -3.69,-1.1 -1.96,0 -3.57,0.67 -4.82,1.99 -1.29,1.32 -1.92,2.95 -1.92,4.85 0,1.92 0.63,3.53 1.92,4.85 1.29,1.3 2.9,1.96 4.82,1.96 1.3,0 2.53,-0.36 3.66,-1.1 1.14,-0.74 1.97,-1.68 2.5,-2.84l0 -0zm17.15 6.3c-2.73,0 -5.03,-0.85 -6.88,-2.57 -1.83,-1.68 -2.75,-3.89 -2.75,-6.61 0,-2.61 0.81,-4.8 2.46,-6.55 1.67,-1.76 3.8,-2.64 6.43,-2.64 1.39,0 2.64,0.29 3.73,0.85 1.09,0.56 1.94,1.3 2.57,2.23 0.63,0.92 1.1,1.88 1.41,2.91 0.31,1.03 0.47,2.06 0.47,3.1l0 0.72 -14.4 0c0.15,1.88 0.9,3.39 2.26,4.51 1.36,1.12 3.1,1.68 5.2,1.68 2.03,0 3.91,-0.54 5.61,-1.63l0 2.32c-1.43,1.1 -3.48,1.67 -6.12,1.67l0 0.02zm-6.92 -10.7l11.71 0c-0.07,-1.36 -0.58,-2.57 -1.52,-3.66 -0.89,-1.1 -2.28,-1.67 -4.13,-1.67 -1.74,0 -3.17,0.53 -4.27,1.59 -1.09,1.09 -1.68,2.33 -1.77,3.73l-0.02 0zm21.87 -1.56l0 11.82 -2.61 0 0 -17.51 2.61 0 0 2.68c1.86,-2.08 4.2,-3.11 7.01,-3.11 2.16,0 3.8,0.63 4.94,1.9 1.14,1.27 1.72,3.06 1.72,5.38l0 10.66 -2.61 0 0 -10.08c0,-3.6 -1.65,-5.39 -4.96,-5.39 -1.21,0 -2.37,0.38 -3.51,1.12 -1.16,0.74 -2.01,1.59 -2.57,2.53l-0.02 0zm20.75 -4.38l-2.32 0 0 -9.18 2.32 0 0 9.18zm6.7 0l-2.32 0 0 -9.18 2.32 0 0 9.18zm18.63 0.98l0 15.23 -2.61 0 0 -15.23 -3.48 0 0 -2.28 3.48 0 0 -2.93c0,-1.61 0.43,-2.9 1.3,-3.82 0.87,-0.92 2.1,-1.39 3.69,-1.39 1.47,0 2.72,0.24 3.69,0.69l0 2.39c-1.16,-0.49 -2.17,-0.72 -3.04,-0.72 -2.03,0 -3.04,1.12 -3.04,3.37l0 2.43 6.08 0 0 2.28 -6.08 0 0 0zm11.57 0c1.76,-1.81 4.04,-2.72 6.83,-2.72 2.79,0 5.05,0.9 6.83,2.72 1.76,1.76 2.64,3.93 2.64,6.48 0,2.57 -0.89,4.73 -2.64,6.48 -1.79,1.79 -4.06,2.68 -6.83,2.68 -2.75,0 -5.03,-0.89 -6.83,-2.68 -1.76,-1.76 -2.64,-3.93 -2.64,-6.48 0,-2.55 0.89,-4.73 2.64,-6.48zm13.6 6.48c0,-1.94 -0.63,-3.57 -1.92,-4.89 -1.29,-1.3 -2.9,-1.96 -4.85,-1.96 -1.96,0 -3.59,0.65 -4.85,1.96 -1.29,1.32 -1.92,2.95 -1.92,4.89 0,1.92 0.63,3.53 1.92,4.85 1.29,1.3 2.9,1.96 4.85,1.96 1.96,0 3.59,-0.65 4.85,-1.96 1.29,-1.32 1.92,-2.95 1.92,-4.85z"/>
    <path class="fil1" d="M1120.48 1219.5c1.76,-1.81 4.04,-2.72 6.83,-2.72 2.79,0 5.05,0.9 6.83,2.72 1.76,1.76 2.64,3.93 2.64,6.48 0,2.57 -0.89,4.73 -2.64,6.48 -1.79,1.79 -4.06,2.68 -6.83,2.68 -2.75,0 -5.03,-0.89 -6.83,-2.68 -1.76,-1.76 -2.64,-3.93 -2.64,-6.48 0,-2.55 0.89,-4.73 2.64,-6.48zm13.6 6.48c0,-1.94 -0.63,-3.57 -1.92,-4.89 -1.29,-1.3 -2.9,-1.96 -4.85,-1.96 -1.96,0 -3.59,0.65 -4.85,1.96 -1.29,1.32 -1.92,2.95 -1.92,4.89 0,1.92 0.63,3.53 1.92,4.85 1.29,1.3 2.9,1.96 4.85,1.96 1.96,0 3.59,-0.65 4.85,-1.96 1.29,-1.32 1.92,-2.95 1.92,-4.85zm21.87 -5.98l0 -10.66 2.61 0 0 25.38 -2.61 0 0 -2.79c-1.65,2.16 -3.91,3.22 -6.79,3.22 -2.59,0 -4.71,-0.89 -6.34,-2.68 -1.65,-1.79 -2.46,-3.95 -2.46,-6.48 0,-2.55 0.81,-4.74 2.46,-6.52 1.65,-1.79 3.77,-2.68 6.34,-2.68 2.88,0 5.14,1.07 6.79,3.22l0 -0.02zm0 8.86l0 -5.76c-0.51,-1.16 -1.32,-2.12 -2.46,-2.84 -1.14,-0.74 -2.37,-1.1 -3.69,-1.1 -1.96,0 -3.57,0.67 -4.82,1.99 -1.29,1.32 -1.92,2.95 -1.92,4.85 0,1.92 0.63,3.53 1.92,4.85 1.29,1.3 2.9,1.96 4.82,1.96 1.3,0 2.53,-0.36 3.66,-1.1 1.14,-0.74 1.97,-1.68 2.5,-2.84l0 -0z"/>
   </g>
   <path class="fil1" d="M568.07 442.5l0 -6.03 34.2 0 0 6.03 -13.85 0 0 35.76 -6.57 0 0 -35.76 -13.8 0 0.02 0zm47.95 35.76l-6.57 0 0 -41.79 6.57 0 0 16.48 21.78 0 0 -16.48 6.57 0 0 41.79 -6.57 0 0 -19.28 -21.78 0 0 19.28zm69.26 0l-30.51 0 0 -41.79 29.73 0 0 6.03 -23.16 0 0 10.45 18.87 0 0 6.03 -18.87 0 0 13.25 23.94 0 0 6.03 0 -0zm53.79 0l-30.51 0 0 -41.79 29.73 0 0 6.03 -23.16 0 0 10.45 18.87 0 0 6.03 -18.87 0 0 13.25 23.94 0 0 6.03 0 -0zm14.21 0l-6.45 0 0 -41.79 5.72 0 23.58 30.27 0 -30.27 6.45 0 0 41.79 -5.56 0 -23.75 -30.38 0 30.38 0.02 0zm54.44 0l-14.74 0 0 -41.79 14.74 0c6.68,0 12.15,1.96 16.42,5.85 4.26,3.89 6.39,8.91 6.39,15.05 0,6.17 -2.14,11.21 -6.39,15.1 -4.22,3.86 -9.69,5.79 -16.42,5.79zm-8.18 -35.76l0 29.73 7.59 0c5.25,0 9.33,-1.34 12.24,-4 2.95,-2.7 4.42,-6.32 4.42,-10.86 0,-4.54 -1.47,-8.17 -4.42,-10.86 -2.9,-2.66 -6.99,-4 -12.24,-4l-7.59 0zm-275.05 101.07c2.82,2.95 6.28,4.42 10.39,4.42 4.09,0 7.57,-1.47 10.39,-4.42 2.82,-3.02 4.24,-6.72 4.24,-11.1 0,-4.42 -1.41,-8.09 -4.24,-11.04 -2.82,-2.99 -6.28,-4.47 -10.39,-4.47 -4.09,0 -7.57,1.48 -10.39,4.47 -2.79,2.91 -4.18,6.59 -4.18,11.04 0,4.45 1.39,8.17 4.18,11.1zm25.68 4.36c-4.06,4.15 -9.16,6.21 -15.28,6.21 -6.14,0 -11.23,-2.06 -15.28,-6.21 -4.02,-4.22 -6.03,-9.38 -6.03,-15.46 0,-6.12 2.01,-11.26 6.03,-15.41 4.06,-4.18 9.16,-6.27 15.28,-6.27 6.12,0 11.23,2.08 15.28,6.27 4.06,4.15 6.08,9.27 6.08,15.41 0,6.12 -2.03,11.28 -6.08,15.46zm21.55 5.43l-6.57 0 0 -41.79 29.68 0 0 6.03 -23.1 0 0 10.92 18.32 0 0 6.03 -18.32 0 0 18.81 0 -0zm43.04 -35.76l0 -6.03 34.2 0 0 6.03 -13.85 0 0 35.76 -6.57 0 0 -35.76 -13.8 0 0.02 0zm47.95 35.76l-6.57 0 0 -41.79 6.57 0 0 16.48 21.78 0 0 -16.48 6.57 0 0 41.79 -6.57 0 0 -19.28 -21.78 0 0 19.28zm69.26 0l-30.51 0 0 -41.79 29.73 0 0 6.03 -23.16 0 0 10.45 18.87 0 0 6.03 -18.87 0 0 13.25 23.94 0 0 6.03 0 -0zm38.02 0l-14.74 0 0 -41.79 14.74 0c6.68,0 12.15,1.96 16.42,5.85 4.26,3.89 6.39,8.91 6.39,15.05 0,6.17 -2.14,11.21 -6.39,15.1 -4.22,3.86 -9.69,5.79 -16.42,5.79zm-8.18 -35.76l0 29.73 7.59 0c5.25,0 9.33,-1.34 12.24,-4 2.95,-2.7 4.42,-6.32 4.42,-10.86 0,-4.54 -1.47,-8.17 -4.42,-10.86 -2.9,-2.66 -6.99,-4 -12.24,-4l-7.59 0zm46.75 35.76l-6.57 0 0 -41.79 6.57 0 0 41.79zm41.25 0l-30.51 0 0 -41.79 29.73 0 0 6.03 -23.16 0 0 10.45 18.87 0 0 6.03 -18.87 0 0 13.25 23.94 0 0 6.03 0 -0zm4.54 -35.76l0 -6.03 34.2 0 0 6.03 -13.85 0 0 35.76 -6.57 0 0 -35.76 -13.8 0 0.02 0z"/>
   <path class="fil1" d="M573.2 611.05l0 -25.38 2.61 0 0 10.66c1.65,-2.16 3.91,-3.22 6.79,-3.22 2.59,0 4.71,0.89 6.34,2.68 1.65,1.79 2.46,3.96 2.46,6.52 0,2.53 -0.81,4.71 -2.46,6.48 -1.65,1.79 -3.77,2.68 -6.34,2.68 -2.88,0 -5.14,-1.07 -6.79,-3.22l0 2.79 -2.61 0 0 0.02zm2.61 -11.64l0 5.76c0.53,1.16 1.36,2.1 2.5,2.84 1.14,0.74 2.35,1.1 3.66,1.1 1.96,0 3.57,-0.65 4.82,-1.96 1.29,-1.32 1.92,-2.95 1.92,-4.85 0,-1.9 -0.63,-3.53 -1.92,-4.85 -1.25,-1.32 -2.86,-1.99 -4.82,-1.99 -1.32,0 -2.55,0.36 -3.69,1.1 -1.14,0.74 -1.96,1.68 -2.46,2.84l0 0zm24.48 12.08c-1.21,0 -2.17,-0.34 -2.91,-1.05 -0.74,-0.71 -1.1,-1.79 -1.1,-3.26l0 -21.51 2.61 0 0 20.88c0,1.72 0.76,2.57 2.28,2.57 0.6,0 1.18,-0.16 1.7,-0.47l0 2.32c-0.63,0.34 -1.48,0.51 -2.57,0.51l0 0.02zm12.48 -2.35c1.21,0 2.35,-0.27 3.44,-0.83 1.09,-0.56 1.97,-1.25 2.64,-2.1l0 -2.43c-1.79,-1.16 -3.69,-1.74 -5.69,-1.74 -1.59,0 -2.86,0.31 -3.78,0.94 -0.92,0.63 -1.39,1.48 -1.39,2.57 0,1.14 0.45,2.01 1.34,2.64 0.89,0.63 2.05,0.94 3.44,0.94l0 -0zm-0.72 2.35c-1.86,0 -3.44,-0.51 -4.74,-1.52 -1.29,-1.07 -1.92,-2.5 -1.92,-4.27 0,-1.76 0.67,-3.19 2.03,-4.24 1.36,-1.03 3.08,-1.56 5.14,-1.56 2.26,0 4.38,0.56 6.3,1.7l0 -1.74c0,-2.93 -1.92,-4.38 -5.76,-4.38 -2.05,0 -3.96,0.6 -5.72,1.77l0 -2.53c1.72,-1.07 3.8,-1.59 6.27,-1.59 2.39,0 4.29,0.56 5.7,1.68 1.41,1.12 2.12,2.73 2.12,4.8l0 7.22c0,0.67 0.15,1.21 0.45,1.59 0.31,0.38 0.71,0.58 1.21,0.58 0.38,0 0.72,-0.07 1.01,-0.22l0 2.03c-0.38,0.27 -0.96,0.4 -1.74,0.4 -0.87,0 -1.59,-0.24 -2.19,-0.71 -0.6,-0.47 -0.96,-1.16 -1.1,-2.08 -1.76,2.05 -4.13,3.08 -7.06,3.08l0 -0.02zm18.96 -0.43l-2.61 0 0 -17.51 2.61 0 0 2.61c1.45,-2.03 3.55,-3.04 6.3,-3.04 1.43,0 2.63,0.31 3.6,0.9 0.98,0.6 1.65,1.45 2.01,2.53 0.67,-1.03 1.59,-1.88 2.77,-2.5 1.18,-0.63 2.5,-0.94 3.96,-0.94 1.96,0 3.48,0.62 4.56,1.83 1.09,1.21 1.63,2.95 1.63,5.2l0 10.92 -2.61 0 0 -10.34c0,-3.44 -1.45,-5.14 -4.35,-5.14 -1.07,0 -2.12,0.36 -3.17,1.1 -1.05,0.74 -1.85,1.63 -2.37,2.66 0,0.24 0,0.53 0.02,0.83 0.02,0.31 0.02,0.56 0.04,0.72 0.02,0.16 0.02,0.31 0.02,0.4l0 9.76 -2.61 0 0 -10.34c0,-3.44 -1.45,-5.14 -4.35,-5.14 -1.01,0 -2.05,0.36 -3.11,1.09 -1.01,0.67 -1.79,1.52 -2.35,2.53l0 11.86 0 0zm39.09 0.43c-2.73,0 -5.03,-0.85 -6.88,-2.57 -1.83,-1.68 -2.75,-3.89 -2.75,-6.61 0,-2.61 0.81,-4.8 2.46,-6.55 1.67,-1.76 3.8,-2.64 6.43,-2.64 1.39,0 2.64,0.29 3.73,0.85 1.09,0.56 1.94,1.3 2.57,2.23 0.63,0.92 1.1,1.88 1.41,2.91 0.31,1.03 0.47,2.06 0.47,3.1l0 0.72 -14.4 0c0.15,1.88 0.9,3.39 2.26,4.51 1.36,1.12 3.1,1.68 5.2,1.68 2.03,0 3.91,-0.54 5.61,-1.63l0 2.32c-1.43,1.1 -3.48,1.67 -6.12,1.67l0 0.02zm-6.92 -10.7l11.71 0c-0.07,-1.36 -0.58,-2.57 -1.52,-3.66 -0.89,-1.1 -2.28,-1.67 -4.13,-1.67 -1.74,0 -3.17,0.53 -4.27,1.59 -1.09,1.09 -1.68,2.33 -1.77,3.73l-0.02 0zm29.8 17.65c-1.25,0 -2.19,-0.16 -2.79,-0.51l0 -2.43c0.74,0.38 1.54,0.58 2.39,0.58 1.07,0 1.97,-0.43 2.75,-1.32 0.78,-0.89 1.58,-2.33 2.43,-4.36l-7.8 -16.86 2.9 0 6.21 13.78 6.01 -13.78 2.82 0 -8.67 19.46c-1.58,3.62 -3.66,5.43 -6.27,5.43l0.02 -0zm20.52 -22.63c1.76,-1.81 4.04,-2.72 6.83,-2.72 2.79,0 5.05,0.9 6.83,2.72 1.76,1.76 2.64,3.93 2.64,6.48 0,2.57 -0.89,4.73 -2.64,6.48 -1.79,1.79 -4.06,2.68 -6.83,2.68 -2.75,0 -5.03,-0.89 -6.83,-2.68 -1.76,-1.76 -2.64,-3.93 -2.64,-6.48 0,-2.55 0.89,-4.73 2.64,-6.48zm13.6 6.48c0,-1.94 -0.63,-3.57 -1.92,-4.89 -1.29,-1.3 -2.9,-1.96 -4.85,-1.96 -1.96,0 -3.59,0.65 -4.85,1.96 -1.29,1.32 -1.92,2.95 -1.92,4.89 0,1.92 0.63,3.53 1.92,4.85 1.29,1.3 2.9,1.96 4.85,1.96 1.96,0 3.59,-0.65 4.85,-1.96 1.29,-1.32 1.92,-2.95 1.92,-4.85zm20.91 3.04l0 -11.82 2.61 0 0 17.51 -2.61 0 0 -2.68c-1.86,2.08 -4.2,3.11 -7.01,3.11 -2.16,0 -3.8,-0.63 -4.94,-1.9 -1.14,-1.27 -1.72,-3.06 -1.72,-5.38l0 -10.66 2.61 0 0 10.08c0,3.6 1.65,5.39 4.96,5.39 1.21,0 2.37,-0.36 3.48,-1.09 1.18,-0.78 2.05,-1.63 2.61,-2.57l0.02 0zm11.39 5.69l-2.61 0 0 -17.51 2.61 0 0 3.33c0.65,-1.14 1.61,-2.05 2.9,-2.73 1.29,-0.69 2.63,-1.03 4.06,-1.03l0 2.64c-0.8,0 -1.52,0.11 -2.17,0.33 -1.1,0.29 -2.1,0.8 -2.93,1.5 -0.85,0.71 -1.47,1.52 -1.85,2.41l0 11.06zm16.71 0.43c-1.39,0 -2.77,-0.18 -4.11,-0.53 -1.34,-0.34 -2.39,-0.78 -3.13,-1.29l0 -2.68c2.14,1.43 4.53,2.14 7.19,2.14 1.5,0 2.68,-0.25 3.53,-0.74 0.85,-0.49 1.29,-1.18 1.29,-2.05 0,-0.74 -0.42,-1.36 -1.23,-1.85 -0.24,-0.2 -0.85,-0.42 -1.85,-0.65 -0.29,-0.09 -0.69,-0.2 -1.2,-0.29 -0.65,-0.16 -1.05,-0.27 -1.2,-0.29 -2.19,-0.56 -3.77,-1.21 -4.71,-1.97 -0.94,-0.76 -1.41,-1.86 -1.41,-3.31 0,-1.52 0.62,-2.72 1.85,-3.57 1.23,-0.85 2.95,-1.29 5.18,-1.29 2.64,0 4.76,0.53 6.39,1.56l0 2.57c-1.97,-1.18 -4.07,-1.77 -6.27,-1.77 -1.47,0 -2.59,0.24 -3.35,0.69 -0.76,0.45 -1.14,1.09 -1.14,1.88 0,0.87 0.45,1.52 1.34,1.96 0.16,0.05 0.38,0.13 0.63,0.24 0.25,0.11 0.51,0.2 0.78,0.27l0.8 0.22c0.58,0.2 1.16,0.33 1.74,0.4 2.17,0.53 3.78,1.18 4.8,1.96 1.03,0.78 1.54,1.86 1.54,3.3 0,1.59 -0.71,2.84 -2.1,3.73 -1.39,0.92 -3.19,1.38 -5.32,1.38l-0.04 -0zm20.9 0c-2.73,0 -5.03,-0.85 -6.88,-2.57 -1.83,-1.68 -2.75,-3.89 -2.75,-6.61 0,-2.61 0.81,-4.8 2.46,-6.55 1.67,-1.76 3.8,-2.64 6.43,-2.64 1.39,0 2.64,0.29 3.73,0.85 1.09,0.56 1.94,1.3 2.57,2.23 0.63,0.92 1.1,1.88 1.41,2.91 0.31,1.03 0.47,2.06 0.47,3.1l0 0.72 -14.4 0c0.15,1.88 0.9,3.39 2.26,4.51 1.36,1.12 3.1,1.68 5.2,1.68 2.03,0 3.91,-0.54 5.61,-1.63l0 2.32c-1.43,1.1 -3.48,1.67 -6.12,1.67l0 0.02zm-6.92 -10.7l11.71 0c-0.07,-1.36 -0.58,-2.57 -1.52,-3.66 -0.89,-1.1 -2.28,-1.67 -4.13,-1.67 -1.74,0 -3.17,0.53 -4.27,1.59 -1.09,1.09 -1.68,2.33 -1.77,3.73l-0.02 0zm23.28 10.7c-1.21,0 -2.17,-0.34 -2.91,-1.05 -0.74,-0.71 -1.1,-1.79 -1.1,-3.26l0 -21.51 2.61 0 0 20.88c0,1.72 0.76,2.57 2.28,2.57 0.6,0 1.18,-0.16 1.7,-0.47l0 2.32c-0.63,0.34 -1.48,0.51 -2.57,0.51l0 0.02zm10.56 -15.66l0 15.23 -2.61 0 0 -15.23 -3.48 0 0 -2.28 3.48 0 0 -2.93c0,-1.61 0.43,-2.9 1.3,-3.82 0.87,-0.92 2.1,-1.39 3.69,-1.39 1.47,0 2.72,0.24 3.69,0.69l0 2.39c-1.16,-0.49 -2.17,-0.72 -3.04,-0.72 -2.03,0 -3.04,1.12 -3.04,3.37l0 2.43 6.08 0 0 2.28 -6.08 0 0 0zm-238.15 58.92c1.21,0 2.35,-0.27 3.44,-0.83 1.09,-0.56 1.97,-1.25 2.64,-2.1l0 -2.43c-1.79,-1.16 -3.69,-1.74 -5.69,-1.74 -1.59,0 -2.86,0.31 -3.78,0.94 -0.92,0.63 -1.39,1.48 -1.39,2.57 0,1.14 0.45,2.01 1.34,2.64 0.89,0.63 2.05,0.94 3.44,0.94l0 -0zm-0.72 2.35c-1.86,0 -3.44,-0.51 -4.74,-1.52 -1.29,-1.07 -1.92,-2.5 -1.92,-4.27 0,-1.76 0.67,-3.19 2.03,-4.24 1.36,-1.03 3.08,-1.56 5.14,-1.56 2.26,0 4.38,0.56 6.3,1.7l0 -1.74c0,-2.93 -1.92,-4.38 -5.76,-4.38 -2.05,0 -3.96,0.6 -5.72,1.77l0 -2.53c1.72,-1.07 3.8,-1.59 6.27,-1.59 2.39,0 4.29,0.56 5.7,1.68 1.41,1.12 2.12,2.73 2.12,4.8l0 7.22c0,0.67 0.15,1.21 0.45,1.59 0.31,0.38 0.71,0.58 1.21,0.58 0.38,0 0.72,-0.07 1.01,-0.22l0 2.03c-0.38,0.27 -0.96,0.4 -1.74,0.4 -0.87,0 -1.59,-0.24 -2.19,-0.71 -0.6,-0.47 -0.96,-1.16 -1.1,-2.08 -1.76,2.05 -4.13,3.08 -7.06,3.08l0 -0.02zm18.96 -12.26l0 11.82 -2.61 0 0 -17.51 2.61 0 0 2.68c1.86,-2.08 4.2,-3.11 7.01,-3.11 2.16,0 3.8,0.63 4.94,1.9 1.14,1.27 1.72,3.06 1.72,5.38l0 10.66 -2.61 0 0 -10.08c0,-3.6 -1.65,-5.39 -4.96,-5.39 -1.21,0 -2.37,0.38 -3.51,1.12 -1.16,0.74 -2.01,1.59 -2.57,2.53l-0.02 0zm33.82 -2.9l0 -10.66 2.61 0 0 25.38 -2.61 0 0 -2.79c-1.65,2.16 -3.91,3.22 -6.79,3.22 -2.59,0 -4.71,-0.89 -6.34,-2.68 -1.65,-1.79 -2.46,-3.95 -2.46,-6.48 0,-2.55 0.81,-4.74 2.46,-6.52 1.65,-1.79 3.77,-2.68 6.34,-2.68 2.88,0 5.14,1.07 6.79,3.22l0 -0.02zm0 8.86l0 -5.76c-0.51,-1.16 -1.32,-2.12 -2.46,-2.84 -1.14,-0.74 -2.37,-1.1 -3.69,-1.1 -1.96,0 -3.57,0.67 -4.82,1.99 -1.29,1.32 -1.92,2.95 -1.92,4.85 0,1.92 0.63,3.53 1.92,4.85 1.29,1.3 2.9,1.96 4.82,1.96 1.3,0 2.53,-0.36 3.66,-1.1 1.14,-0.74 1.97,-1.68 2.5,-2.84l0 -0zm24.3 6.3c-1.39,0 -2.77,-0.18 -4.11,-0.53 -1.34,-0.34 -2.39,-0.78 -3.13,-1.29l0 -2.68c2.14,1.43 4.53,2.14 7.19,2.14 1.5,0 2.68,-0.25 3.53,-0.74 0.85,-0.49 1.29,-1.18 1.29,-2.05 0,-0.74 -0.42,-1.36 -1.23,-1.85 -0.24,-0.2 -0.85,-0.42 -1.85,-0.65 -0.29,-0.09 -0.69,-0.2 -1.2,-0.29 -0.65,-0.16 -1.05,-0.27 -1.2,-0.29 -2.19,-0.56 -3.77,-1.21 -4.71,-1.97 -0.94,-0.76 -1.41,-1.86 -1.41,-3.31 0,-1.52 0.62,-2.72 1.85,-3.57 1.23,-0.85 2.95,-1.29 5.18,-1.29 2.64,0 4.76,0.53 6.39,1.56l0 2.57c-1.97,-1.18 -4.07,-1.77 -6.27,-1.77 -1.47,0 -2.59,0.24 -3.35,0.69 -0.76,0.45 -1.14,1.09 -1.14,1.88 0,0.87 0.45,1.52 1.34,1.96 0.16,0.05 0.38,0.13 0.63,0.24 0.25,0.11 0.51,0.2 0.78,0.27l0.8 0.22c0.58,0.2 1.16,0.33 1.74,0.4 2.17,0.53 3.78,1.18 4.8,1.96 1.03,0.78 1.54,1.86 1.54,3.3 0,1.59 -0.71,2.84 -2.1,3.73 -1.39,0.92 -3.19,1.38 -5.32,1.38l-0.04 -0zm19.46 0c-1.61,0 -2.84,-0.47 -3.68,-1.43 -0.83,-0.96 -1.25,-2.28 -1.25,-3.96l0 -10.27 -4.13 0 0 -2.28 4.13 0 0 -5.39 2.61 0 0 5.39 6.12 0 0 2.28 -6.12 0 0 9.47c0,1.39 0.24,2.37 0.69,2.9 0.49,0.56 1.27,0.83 2.35,0.83 1.07,0 2.01,-0.24 2.86,-0.72l0 2.39c-0.74,0.53 -1.94,0.8 -3.59,0.8zm14.54 -2.35c1.21,0 2.35,-0.27 3.44,-0.83 1.09,-0.56 1.97,-1.25 2.64,-2.1l0 -2.43c-1.79,-1.16 -3.69,-1.74 -5.69,-1.74 -1.59,0 -2.86,0.31 -3.78,0.94 -0.92,0.63 -1.39,1.48 -1.39,2.57 0,1.14 0.45,2.01 1.34,2.64 0.89,0.63 2.05,0.94 3.44,0.94l0 -0zm-0.72 2.35c-1.86,0 -3.44,-0.51 -4.74,-1.52 -1.29,-1.07 -1.92,-2.5 -1.92,-4.27 0,-1.76 0.67,-3.19 2.03,-4.24 1.36,-1.03 3.08,-1.56 5.14,-1.56 2.26,0 4.38,0.56 6.3,1.7l0 -1.74c0,-2.93 -1.92,-4.38 -5.76,-4.38 -2.05,0 -3.96,0.6 -5.72,1.77l0 -2.53c1.72,-1.07 3.8,-1.59 6.27,-1.59 2.39,0 4.29,0.56 5.7,1.68 1.41,1.12 2.12,2.73 2.12,4.8l0 7.22c0,0.67 0.15,1.21 0.45,1.59 0.31,0.38 0.71,0.58 1.21,0.58 0.38,0 0.72,-0.07 1.01,-0.22l0 2.03c-0.38,0.27 -0.96,0.4 -1.74,0.4 -0.87,0 -1.59,-0.24 -2.19,-0.71 -0.6,-0.47 -0.96,-1.16 -1.1,-2.08 -1.76,2.05 -4.13,3.08 -7.06,3.08l0 -0.02zm18.96 -0.44l-2.61 0 0 -17.51 2.61 0 0 3.33c0.65,-1.14 1.61,-2.05 2.9,-2.73 1.29,-0.69 2.63,-1.03 4.06,-1.03l0 2.64c-0.8,0 -1.52,0.11 -2.17,0.33 -1.1,0.29 -2.1,0.8 -2.93,1.5 -0.85,0.71 -1.47,1.52 -1.85,2.41l0 11.06zm17.73 0.44c-1.61,0 -2.84,-0.47 -3.68,-1.43 -0.83,-0.96 -1.25,-2.28 -1.25,-3.96l0 -10.27 -4.13 0 0 -2.28 4.13 0 0 -5.39 2.61 0 0 5.39 6.12 0 0 2.28 -6.12 0 0 9.47c0,1.39 0.24,2.37 0.69,2.9 0.49,0.56 1.27,0.83 2.35,0.83 1.07,0 2.01,-0.24 2.86,-0.72l0 2.39c-0.74,0.53 -1.94,0.8 -3.59,0.8zm19.57 -15.66c1.76,-1.81 4.04,-2.72 6.83,-2.72 2.79,0 5.05,0.9 6.83,2.72 1.76,1.76 2.64,3.93 2.64,6.48 0,2.57 -0.89,4.73 -2.64,6.48 -1.79,1.79 -4.06,2.68 -6.83,2.68 -2.75,0 -5.03,-0.89 -6.83,-2.68 -1.76,-1.76 -2.64,-3.93 -2.64,-6.48 0,-2.55 0.89,-4.73 2.64,-6.48zm13.6 6.48c0,-1.94 -0.63,-3.57 -1.92,-4.89 -1.29,-1.3 -2.9,-1.96 -4.85,-1.96 -1.96,0 -3.59,0.65 -4.85,1.96 -1.29,1.32 -1.92,2.95 -1.92,4.89 0,1.92 0.63,3.53 1.92,4.85 1.29,1.3 2.9,1.96 4.85,1.96 1.96,0 3.59,-0.65 4.85,-1.96 1.29,-1.32 1.92,-2.95 1.92,-4.85zm15.92 8.85l-2.39 0 -8.06 -17.62 2.93 0 6.39 14.1 6.34 -14.1 2.82 0 -8.06 17.62 0.02 0zm20.55 0.33c-2.73,0 -5.03,-0.85 -6.88,-2.57 -1.83,-1.68 -2.75,-3.89 -2.75,-6.61 0,-2.61 0.81,-4.8 2.46,-6.55 1.67,-1.76 3.8,-2.64 6.43,-2.64 1.39,0 2.64,0.29 3.73,0.85 1.09,0.56 1.94,1.3 2.57,2.23 0.63,0.92 1.1,1.88 1.41,2.91 0.31,1.03 0.47,2.06 0.47,3.1l0 0.72 -14.4 0c0.15,1.88 0.9,3.39 2.26,4.51 1.36,1.12 3.1,1.68 5.2,1.68 2.03,0 3.91,-0.54 5.61,-1.63l0 2.32c-1.43,1.1 -3.48,1.67 -6.12,1.67l0 0.02zm-6.92 -10.7l11.71 0c-0.07,-1.36 -0.58,-2.57 -1.52,-3.66 -0.89,-1.1 -2.28,-1.67 -4.13,-1.67 -1.74,0 -3.17,0.53 -4.27,1.59 -1.09,1.09 -1.68,2.33 -1.77,3.73l-0.02 0zm21.87 10.27l-2.61 0 0 -17.51 2.61 0 0 3.33c0.65,-1.14 1.61,-2.05 2.9,-2.73 1.29,-0.69 2.63,-1.03 4.06,-1.03l0 2.64c-0.8,0 -1.52,0.11 -2.17,0.33 -1.1,0.29 -2.1,0.8 -2.93,1.5 -0.85,0.71 -1.47,1.52 -1.85,2.41l0 11.06z"/>
   <polygon class="fil5" points="491.03,167.41 2114.11,167.41 2114.11,1258.28 491.03,1258.28 "/>
  </g>
 </g>
</svg>
